<svg width="200" height="231" viewBox="0 0 200 231" fill="none" xmlns="http://www.w3.org/2000/svg">
<path d="M177.589 14.4375H22.4107C10.1339 14.4375 0 24.6791 0 37.0863V193.914C0 206.321 10.1339 216.562 22.4107 216.562H177.589C189.866 216.562 200 206.321 200 193.914V37.0863C200 24.6791 189.866 14.4375 177.589 14.4375ZM157.321 142.706C157.321 144.601 155.714 145.413 153.839 146.225C146.384 149.473 138.393 152.406 129.821 152.406C117.812 152.406 112.232 144.871 97.8125 144.871C87.4107 144.871 76.4732 148.661 67.6786 152.677C67.1429 152.947 66.6071 152.947 66.0714 153.218V173.701C66.0714 174.513 66.0714 175.325 65.8036 175.867V176.408C64.7321 180.198 61.25 182.86 57.2768 182.86C52.2321 182.86 48.2143 178.799 48.2143 173.701V75.075C44.7321 72.368 42.3661 68.0818 42.3661 63.2092C42.3661 54.8625 49.0179 48.0949 57.3214 48.0949C65.5804 48.0949 72.2768 54.8174 72.2768 63.2092C72.2768 68.0818 70.1339 72.368 66.4286 75.075V83.4217C67.2321 83.151 68.0357 82.8803 68.8393 82.3389C77.0982 78.8197 86.9643 75.8871 96.2946 75.8871C106.429 75.8871 114.42 78.5941 123.482 82.0682C125.357 82.8803 127.232 83.151 129.33 83.151C139.464 83.151 150.67 75.8871 153.348 75.8871C155.491 75.8871 157.366 77.5113 157.366 79.4062V142.706H157.321Z" fill="#339AF0"/>
</svg>
