<svg width="217" height="217" viewBox="0 0 217 217" fill="none" xmlns="http://www.w3.org/2000/svg">
<g clip-path="url(#clip0)">
<path d="M217 108.5C217.017 122.438 214.341 136.248 209.119 149.171C209.106 149.2 209.096 149.226 209.084 149.255V149.258C205.574 157.911 200.957 166.073 195.348 173.539C194.266 174.984 193.15 176.398 192 177.783C191.579 178.29 191.152 178.794 190.725 179.291C188.526 181.843 186.213 184.288 183.785 186.626C183.22 187.172 182.649 187.711 182.071 188.244C181.936 188.369 181.801 188.491 181.667 188.617C178.839 191.201 175.876 193.633 172.791 195.903C170.72 197.435 168.595 198.889 166.416 200.266C165.937 200.571 165.456 200.871 164.971 201.165C164.13 201.678 163.281 202.18 162.425 202.67C161.308 203.312 160.177 203.934 159.032 204.535C158.57 204.783 158.105 205.02 157.639 205.258C156.959 205.607 156.275 205.945 155.585 206.275C155.466 206.333 155.347 206.391 155.228 206.445C154.779 206.664 154.323 206.875 153.867 207.087C147.931 209.825 141.757 212.016 135.422 213.633C135.387 213.642 135.355 213.649 135.32 213.658C134.906 213.764 134.488 213.867 134.071 213.966C133.76 214.044 133.445 214.117 133.13 214.188C133.092 214.201 133.052 214.21 133.012 214.217C132.366 214.368 131.721 214.512 131.07 214.644C130.704 214.721 130.338 214.798 129.972 214.872C129.75 214.92 129.526 214.962 129.304 215.003C129.025 215.058 128.749 215.109 128.469 215.164C128.315 215.196 128.161 215.222 128.004 215.247C127.651 215.311 127.298 215.376 126.948 215.437C126.351 215.539 125.747 215.639 125.147 215.729C124.71 215.796 124.277 215.86 123.841 215.921C123.327 215.995 122.813 216.063 122.296 216.127C122.155 216.149 122.014 216.165 121.873 216.181C121.69 216.204 121.507 216.226 121.324 216.249C120.955 216.294 120.586 216.336 120.213 216.374C120.021 216.397 119.831 216.416 119.639 216.435C119.273 216.474 118.907 216.509 118.541 216.541C118.069 216.586 117.597 216.624 117.122 216.663C116.544 216.708 115.969 216.75 115.388 216.785C115.016 216.807 114.644 216.83 114.268 216.849C113.312 216.9 112.355 216.936 111.392 216.961C110.914 216.974 110.432 216.984 109.951 216.99H109.941C109.463 216.997 108.981 217 108.5 217C103.62 217.002 98.7458 216.676 93.9099 216.024C90.3628 215.549 86.8724 214.905 83.4387 214.092C83.3007 214.06 83.1627 214.027 83.0278 213.992C82.6812 213.912 82.3377 213.825 81.9942 213.739C81.6892 213.662 81.3875 213.581 81.0825 213.501C73.2232 211.456 65.6204 208.528 58.4195 204.773C58.3842 204.754 58.3457 204.734 58.3104 204.715C58.1017 204.606 57.8963 204.5 57.6908 204.388C57.2382 204.15 56.7877 203.908 56.3394 203.662C53.7874 202.259 51.3007 200.759 48.8792 199.162C48.2565 198.754 47.6401 198.34 47.0302 197.919C46.8344 197.785 46.6418 197.65 46.4492 197.515C46.247 197.374 46.0447 197.232 45.8457 197.091C45.3161 196.716 44.7896 196.336 44.2664 195.952C42.0996 194.359 39.997 192.689 37.9586 190.941C30.7336 184.753 24.3492 177.647 18.9679 169.802C17.09 167.068 15.3373 164.245 13.7098 161.334C4.69053 145.188 -0.030349 126.995 -0.000346161 108.5C-0.000346161 48.5778 48.5775 0 108.5 0C168.422 0 217 48.5778 217 108.5Z" fill="#6C63FF"/>
<path opacity="0.2" d="M125.947 213.992C126.293 213.912 126.637 213.825 126.98 213.739C127.285 213.662 127.587 213.581 127.892 213.501C127.908 212.862 127.931 212.159 127.953 211.398C128.142 205.441 128.589 195.849 129.642 184.293C129.699 183.673 129.757 183.049 129.815 182.421C130.19 178.505 130.63 174.386 131.157 170.117C131.173 169.976 131.192 169.838 131.208 169.697C131.635 166.236 132.12 162.683 132.665 159.062C133.047 156.529 133.46 153.968 133.905 151.38C133.937 151.2 133.969 151.017 134.001 150.837C134.129 150.09 134.261 149.345 134.396 148.594C134.771 146.504 135.173 144.401 135.593 142.299C137.073 134.903 138.835 127.462 140.938 120.223C143.074 112.716 145.704 105.359 148.812 98.1989C151.223 92.6371 154.094 87.2866 157.396 82.2032C157.444 82.1293 157.492 82.0587 157.54 81.9849C161.761 75.6258 166.586 70.2297 172.095 66.1946L170.952 64.6345C165.674 68.5026 160.834 73.6494 156.43 80.0749C156.407 80.107 156.388 80.1359 156.365 80.168C153.053 85.0792 150.163 90.2616 147.724 95.6597C144.458 102.88 141.704 110.321 139.48 117.928C137.375 124.996 135.486 132.655 133.815 140.902C133.227 143.807 132.667 146.784 132.133 149.833C132.043 150.353 131.953 150.873 131.863 151.396C131.863 151.402 131.86 151.412 131.86 151.418C131.722 152.221 131.59 153.024 131.455 153.836C131.121 155.88 130.807 157.909 130.511 159.922C130.056 163.023 129.644 166.07 129.276 169.064C129.154 170.053 129.036 171.034 128.923 172.008C128.762 173.382 128.61 174.737 128.467 176.075C128.264 177.937 128.079 179.759 127.911 181.542L127.863 182.033C127.838 182.315 127.812 182.598 127.786 182.877C126.483 196.934 126.075 208.288 125.947 213.992Z" fill="black"/>
<path opacity="0.2" d="M150.555 204.773C150.59 204.754 150.629 204.734 150.664 204.715C151.325 204.372 151.98 204.022 152.635 203.662C152.85 201.101 153.139 198.285 153.518 195.326C153.598 194.716 153.678 194.096 153.768 193.474C153.813 193.14 153.861 192.803 153.909 192.462C154.288 189.856 154.737 187.166 155.277 184.463C157.469 173.433 161.109 162.159 167.154 155.2C167.478 154.824 167.809 154.465 168.152 154.115C169.003 153.23 169.928 152.42 170.916 151.691L169.773 150.135C168.394 151.155 167.125 152.315 165.985 153.598C165.584 154.044 165.193 154.509 164.811 154.991C159.248 161.992 155.774 172.358 153.611 182.62C153.046 185.298 152.571 187.972 152.166 190.575C152.063 191.255 151.965 191.929 151.871 192.597C151.245 197.008 150.831 201.174 150.555 204.773Z" fill="black"/>
<path opacity="0.2" d="M182.889 66.1498C188.223 66.1498 192.548 61.8254 192.548 56.4911C192.548 51.1568 188.223 46.8325 182.889 46.8325C177.555 46.8325 173.23 51.1568 173.23 56.4911C173.23 61.8254 177.555 66.1498 182.889 66.1498Z" fill="black"/>
<path opacity="0.2" d="M179.779 149.293C185.113 149.293 189.437 144.969 189.437 139.635C189.437 134.3 185.113 129.976 179.779 129.976C174.444 129.976 170.12 134.3 170.12 139.635C170.12 144.969 174.444 149.293 179.779 149.293Z" fill="black"/>
<path opacity="0.2" d="M144.544 72.7147C146.593 84.27 142.071 94.7332 142.071 94.7332C142.071 94.7332 134.229 86.4615 132.181 74.9061C130.133 63.3507 134.654 52.8876 134.654 52.8876C134.654 52.8876 142.496 61.1593 144.544 72.7147Z" fill="black"/>
<path opacity="0.2" d="M176.644 100.145C165.622 104.175 154.547 101.589 154.547 101.589C154.547 101.589 161.341 92.4679 172.363 88.4376C183.385 84.4074 194.46 86.9937 194.46 86.9937C194.46 86.9937 187.666 96.1144 176.644 100.145Z" fill="black"/>
<path opacity="0.2" d="M178.513 173.771C170.788 176.596 163.014 174.753 163.014 174.753C163.014 174.753 167.765 168.33 175.49 165.506C183.216 162.681 190.99 164.523 190.99 164.523C190.99 164.523 186.238 170.946 178.513 173.771Z" fill="black"/>
<path d="M141.23 172.146L141.622 172.348C141.584 172.765 141.49 173.022 141.23 172.146Z" fill="#2F2E41"/>
<path d="M141.747 172.281C141.75 172.326 141.756 172.374 141.76 172.419L141.622 172.348C141.625 172.306 141.628 172.261 141.634 172.216C141.667 171.655 141.628 170.99 141.747 172.281Z" fill="#2F2E41"/>
<path d="M100.052 156.924C129.164 156.924 152.764 133.324 152.764 104.212C152.764 75.0996 129.164 51.4996 100.052 51.4996C70.9398 51.4996 47.3398 75.0996 47.3398 104.212C47.3398 133.324 70.9398 156.924 100.052 156.924Z" fill="#2F2E41"/>
<path d="M104.391 154.775C122.021 154.775 136.313 140.483 136.313 122.853C136.313 105.223 122.021 90.9308 104.391 90.9308C86.7608 90.9308 72.4688 105.223 72.4688 122.853C72.4688 140.483 86.7608 154.775 104.391 154.775Z" fill="#D0CDE1"/>
<path d="M177.282 184.036L177.243 184.046L169.818 185.827L154.359 189.538L152.25 190.045L128.739 195.685L126.743 196.167L69.7031 209.854C65.8472 208.38 62.0798 206.683 58.4197 204.773C58.3844 204.754 58.3459 204.734 58.3106 204.715C58.102 204.606 57.8965 204.5 57.6911 204.388C57.2385 204.15 56.788 203.908 56.3396 203.662C53.7876 202.259 51.3009 200.759 48.8795 199.162C48.2567 198.754 47.6404 198.34 47.0305 197.919C46.8347 197.785 46.6421 197.65 46.4494 197.515C46.2472 197.374 46.045 197.233 45.846 197.091C45.3163 196.716 44.7898 196.336 44.2666 195.952C49.8072 185.882 63.0005 179.189 76.1938 175.526C86.1514 172.759 88.3407 163.665 88.1513 155.572C88.1032 153.726 87.9467 151.885 87.6827 150.057C87.2804 147.149 86.6405 144.278 85.7695 141.474L117.693 142.539L120.987 150.128C120.897 150.962 120.868 151.801 120.9 152.638C121.151 158.863 124.993 162.888 129.734 165.485C130.351 165.822 130.983 166.137 131.625 166.429C139.4 169.963 148.552 170.204 148.552 170.204C151.339 169.896 154.154 169.949 156.927 170.361C157.601 170.464 158.256 170.587 158.891 170.73C162.602 171.56 166.108 173.128 169.199 175.343C170.379 176.183 171.496 177.109 172.541 178.113C174.396 179.85 175.993 181.845 177.282 184.036Z" fill="#D0CDE1"/>
<path d="M182.071 188.244C181.937 188.37 181.802 188.492 181.667 188.617C178.839 191.201 175.876 193.633 172.791 195.904C170.721 197.435 168.596 198.889 166.416 200.266C165.938 200.571 165.456 200.871 164.971 201.165C164.13 201.678 163.282 202.18 162.426 202.67C161.309 203.312 160.178 203.934 159.033 204.535C158.571 204.783 158.105 205.02 157.64 205.258C156.959 205.608 156.275 205.945 155.585 206.275C155.466 206.333 155.348 206.391 155.229 206.445L153.871 205.319L169.819 185.827L173.025 181.908C173.025 181.908 174.306 181.908 177.244 184.046C178.867 185.254 180.401 186.578 181.834 188.007C181.911 188.087 181.991 188.164 182.071 188.244Z" fill="#D0CDE1"/>
<path d="M181.846 188.026C181.803 188.228 181.743 188.425 181.667 188.617C178.839 191.201 175.876 193.633 172.791 195.903C170.114 196.868 167.337 197.528 164.512 197.871C164.512 197.871 164.753 199.078 164.971 201.165C164.13 201.678 163.282 202.18 162.426 202.67C161.308 203.312 160.177 203.934 159.032 204.535C158.57 204.782 158.105 205.02 157.639 205.258C156.959 205.607 156.275 205.945 155.585 206.275C155.466 206.333 155.347 206.391 155.229 206.445C154.779 206.664 154.323 206.875 153.867 207.087C147.931 209.825 141.757 212.016 135.422 213.633C135.387 213.642 135.355 213.649 135.32 213.658C134.906 213.764 134.488 213.867 134.071 213.966C133.76 214.043 133.445 214.117 133.131 214.188C133.092 214.201 133.052 214.21 133.012 214.217C132.367 214.368 131.721 214.512 131.07 214.644C130.704 214.721 130.338 214.798 129.972 214.872C129.75 214.92 129.526 214.962 129.304 215.003C129.025 215.058 128.749 215.109 128.47 215.164C128.315 215.196 128.161 215.222 128.004 215.247C127.651 215.311 127.298 215.376 126.948 215.437C126.351 215.539 125.747 215.639 125.147 215.729C124.711 215.796 124.277 215.86 123.841 215.921C123.327 215.995 122.813 216.063 122.297 216.127C122.155 216.149 122.014 216.165 121.873 216.181C121.69 216.204 121.507 216.226 121.324 216.249C120.955 216.294 120.586 216.335 120.213 216.374C120.021 216.396 119.831 216.416 119.639 216.435C119.273 216.474 118.907 216.509 118.541 216.541C118.069 216.586 117.597 216.624 117.122 216.663C116.544 216.708 115.97 216.75 115.389 216.785C115.016 216.807 114.644 216.83 114.268 216.849C113.312 216.9 112.355 216.936 111.392 216.961C110.914 216.974 110.432 216.984 109.951 216.99H109.941C109.463 216.997 108.981 217 108.5 217C103.62 217.002 98.7459 216.676 93.91 216.024C90.3629 215.549 86.8725 214.905 83.4388 214.092C83.3008 214.06 83.1627 214.027 83.0279 213.992C82.6812 213.912 82.3377 213.825 81.9943 213.739C81.6893 213.662 81.3876 213.581 81.0826 213.501C73.2232 211.456 65.6205 208.528 58.4196 204.773C58.3843 204.754 58.3458 204.734 58.3105 204.715C58.1018 204.606 57.8964 204.5 57.6909 204.388C75.3109 200.282 103.155 193.807 127.317 188.26C127.994 188.106 128.667 187.952 129.336 187.798C138.26 185.75 146.619 183.843 153.691 182.248C154.423 182.084 155.14 181.924 155.842 181.766C163.44 180.059 169.34 178.762 172.54 178.113C173.403 177.916 174.275 177.763 175.153 177.654L181.834 188.007L181.846 188.026Z" fill="#2F2E41"/>
<path d="M51.826 81.781C60.4977 81.781 67.5274 74.7512 67.5274 66.0795C67.5274 57.4078 60.4977 50.3781 51.826 50.3781C43.1543 50.3781 36.1245 57.4078 36.1245 66.0795C36.1245 74.7512 43.1543 81.781 51.826 81.781Z" fill="#2F2E41"/>
<path d="M148.278 77.2949C156.949 77.2949 163.979 70.2651 163.979 61.5934C163.979 52.9218 156.949 45.892 148.278 45.892C139.606 45.892 132.576 52.9218 132.576 61.5934C132.576 70.2651 139.606 77.2949 148.278 77.2949Z" fill="#2F2E41"/>
<path d="M131.455 54.8642C131.456 50.9916 132.887 47.2558 135.475 44.3747C138.063 41.4936 141.624 39.6704 145.474 39.2556C143.282 39.016 141.063 39.2412 138.963 39.9164C136.863 40.5916 134.929 41.7017 133.287 43.1743C131.645 44.6469 130.331 46.449 129.432 48.4632C128.533 50.4774 128.068 52.6584 128.068 54.8642C128.068 57.07 128.533 59.251 129.432 61.2652C130.331 63.2794 131.645 65.0815 133.287 66.5541C134.929 68.0267 136.863 69.1368 138.963 69.812C141.063 70.4872 143.282 70.7124 145.474 70.4728C141.624 70.058 138.063 68.2349 135.475 65.3537C132.887 62.4726 131.456 58.7368 131.455 54.8642V54.8642Z" fill="#2F2E41"/>
<path d="M34.2821 78.7801C31.5722 76.0136 29.9803 72.3432 29.8123 68.4742C29.6443 64.6053 30.912 60.8107 33.3719 57.8197C31.638 59.1832 30.2109 60.8968 29.1835 62.8487C28.1562 64.8006 27.5516 66.9471 27.4092 69.1483C27.2668 71.3495 27.5898 73.556 28.3572 75.624C29.1245 77.692 30.3189 79.5751 31.8627 81.1507C33.4064 82.7262 35.2648 83.9588 37.3167 84.7682C39.3687 85.5775 41.5681 85.9455 43.7717 85.848C45.9754 85.7505 48.1337 85.1899 50.1062 84.2025C52.0787 83.2152 53.821 81.8233 55.2196 80.1176C52.179 82.516 48.3594 83.7061 44.4947 83.4592C40.6299 83.2123 36.9928 81.5459 34.2821 78.7801V78.7801Z" fill="#2F2E41"/>
<path d="M100.052 79.5378C81.4696 79.5378 66.4058 88.3251 66.4058 99.1647C66.4058 104.015 69.4337 108.447 74.4319 111.872L80.9091 107.179L79.1477 114.531C79.8785 114.87 80.6248 115.198 81.4032 115.501L91.0795 104.212V118.08C94.0466 118.556 97.0468 118.793 100.052 118.791C118.634 118.791 133.698 110.004 133.698 99.1647C133.698 88.3251 118.634 79.5378 100.052 79.5378Z" fill="#2F2E41"/>
<path d="M132.576 61.5934C132.576 61.5934 130.138 72.8087 145.376 77.2949L132.576 61.5934Z" fill="#2F2E41"/>
<path d="M66.4063 63.6346C66.4063 63.6346 72.0139 76.1733 55.1909 81.7809L66.4063 63.6346Z" fill="#2F2E41"/>
<path d="M74.7222 135.386C76.137 134.989 76.5134 131.916 75.5628 128.52C74.6122 125.125 72.6948 122.693 71.28 123.089C69.8652 123.485 69.4888 126.559 70.4394 129.955C71.39 133.35 73.3075 135.782 74.7222 135.386Z" fill="#D0CDE1"/>
<path d="M139.501 124.081C139.717 120.561 138.704 117.635 137.238 117.545C135.772 117.454 134.407 120.234 134.19 123.754C133.974 127.273 134.987 130.199 136.453 130.289C137.919 130.38 139.284 127.6 139.501 124.081Z" fill="#D0CDE1"/>
</g>
<defs>
<clipPath id="clip0">
<rect width="217" height="217" fill="white"/>
</clipPath>
</defs>
</svg>
