<svg width="84" height="126" viewBox="0 0 84 126" fill="none" xmlns="http://www.w3.org/2000/svg">
<g clip-path="url(#clip0)">
<path d="M21.0041 126C32.5938 126 41.9999 116.592 41.9999 105V84H21.0041C9.41442 84 0.00830078 93.408 0.00830078 105C0.00830078 116.592 9.41442 126 21.0041 126Z" fill="#0ACF83"/>
<path d="M0.00830078 63C0.00830078 51.408 9.41442 42 21.0041 42H41.9999V84H21.0041C9.41442 84 0.00830078 74.592 0.00830078 63Z" fill="#A259FF"/>
<path d="M0.00854492 21C0.00854492 9.408 9.41466 0 21.0043 0H42.0002V42H21.0043C9.41466 42 0.00854492 32.592 0.00854492 21Z" fill="#F24E1E"/>
<path d="M42 0H62.9958C74.5855 0 83.9916 9.408 83.9916 21C83.9916 32.592 74.5855 42 62.9958 42H42V0Z" fill="#FF7262"/>
<path d="M83.9916 63C83.9916 74.592 74.5855 84 62.9958 84C51.4061 84 42 74.592 42 63C42 51.408 51.4061 42 62.9958 42C74.5855 42 83.9916 51.408 83.9916 63Z" fill="#1ABCFE"/>
</g>
<defs>
<clipPath id="clip0">
<rect width="84" height="126" fill="white"/>
</clipPath>
</defs>
</svg>
