<svg width="109" height="125" viewBox="0 0 109 125" fill="none" xmlns="http://www.w3.org/2000/svg">
<g clip-path="url(#clip0)">
<path d="M106.944 57.6296L59.366 9.87565C58.0489 8.5552 56.2633 7.81348 54.4014 7.81348C52.5396 7.81348 50.7539 8.5552 49.4368 9.87565L39.5441 19.7951L52.0791 32.3732C58.6629 30.1418 64.8963 36.4674 62.636 43.0373L74.7185 55.1613C83.0468 52.2804 89.6038 62.7297 83.3485 69.0016C76.9034 75.4689 66.2661 68.3009 69.7235 59.8854L58.4464 48.5841V78.3327C64.6019 81.3942 63.8623 88.55 60.6555 91.7604C59.0888 93.3316 56.9644 94.2143 54.7493 94.2143C52.5343 94.2143 50.4099 93.3316 48.8432 91.7604C44.5683 87.4635 46.1498 80.3078 51.5803 78.0885V48.0592C46.5196 45.9816 45.5951 40.5544 47.0451 37.0729L34.6878 24.6584L2.05587 57.4074C0.739346 58.7287 -0.000244141 60.5206 -0.000244141 62.3891C-0.000244141 64.2575 0.739346 66.0494 2.05587 67.3708L49.6485 115.125C50.9652 116.445 52.7505 117.187 54.6119 117.187C56.4733 117.187 58.2586 116.445 59.5753 115.125L106.944 67.5929C108.261 66.2716 109 64.4797 109 62.6112C109 60.7428 108.261 58.9509 106.944 57.6296Z" fill="#F1502F"/>
</g>
<defs>
<clipPath id="clip0">
<rect width="109" height="125" fill="white"/>
</clipPath>
</defs>
</svg>
