<svg width="108" height="118" viewBox="0 0 108 118" fill="none" xmlns="http://www.w3.org/2000/svg">
<path d="M36.1234 91.5883C36.1234 92.0492 35.6226 92.418 34.9911 92.418C34.2726 92.4871 33.7718 92.1184 33.7718 91.5883C33.7718 91.1273 34.2726 90.7586 34.904 90.7586C35.5573 90.6895 36.1234 91.0582 36.1234 91.5883ZM29.3516 90.5512C29.1992 91.0121 29.6347 91.5422 30.2879 91.6805C30.854 91.9109 31.5073 91.6805 31.6379 91.2195C31.7685 90.7586 31.3548 90.2285 30.7016 90.0211C30.1355 89.8598 29.504 90.0902 29.3516 90.5512ZM38.9758 90.1594C38.3444 90.3207 37.9089 90.7586 37.9742 91.2887C38.0395 91.7496 38.6056 92.0492 39.2589 91.8879C39.8903 91.7266 40.3258 91.2887 40.2605 90.8277C40.1952 90.3899 39.6073 90.0902 38.9758 90.1594ZM53.3032 1.84375C23.1024 1.84375 0 26.1121 0 58.0781C0 83.6371 15.1984 105.509 36.9073 113.206C39.6944 113.736 40.6742 111.916 40.6742 110.418C40.6742 108.989 40.6089 101.107 40.6089 96.2668C40.6089 96.2668 25.3669 99.7238 22.1661 89.3988C22.1661 89.3988 19.6839 82.6922 16.1129 80.9637C16.1129 80.9637 11.1266 77.3453 16.4613 77.4145C16.4613 77.4145 21.8831 77.8754 24.8661 83.3606C29.6347 92.2566 37.6258 89.6984 40.7395 88.1774C41.2403 84.4899 42.6556 81.9316 44.2234 80.4106C32.0516 78.9816 19.771 77.1148 19.771 54.9438C19.771 48.6059 21.4258 45.4254 24.9097 41.3691C24.3435 39.8711 22.4927 33.6945 25.4758 25.7203C30.0266 24.2223 40.5 31.943 40.5 31.943C44.8548 30.6523 49.5363 29.984 54.1742 29.984C58.8121 29.984 63.4935 30.6523 67.8484 31.943C67.8484 31.943 78.3218 24.1992 82.8726 25.7203C85.8556 33.7176 84.0048 39.8711 83.4387 41.3691C86.9226 45.4484 89.0564 48.6289 89.0564 54.9438C89.0564 77.184 76.2315 78.9586 64.0597 80.4106C66.0629 82.2313 67.7613 85.6883 67.7613 91.1043C67.7613 98.8711 67.696 108.482 67.696 110.371C67.696 111.87 68.6976 113.69 71.4629 113.16C93.2371 105.509 108 83.6371 108 58.0781C108 26.1121 83.504 1.84375 53.3032 1.84375ZM21.1645 81.3324C20.8815 81.5629 20.9468 82.093 21.3169 82.5309C21.6653 82.8996 22.1661 83.0609 22.4492 82.7613C22.7323 82.5309 22.6669 82.0008 22.2968 81.5629C21.9484 81.1941 21.4476 81.0328 21.1645 81.3324ZM18.8129 79.4656C18.6605 79.7652 18.8782 80.134 19.3137 80.3645C19.6621 80.5949 20.0976 80.5258 20.25 80.2031C20.4024 79.9035 20.1847 79.5348 19.7492 79.3043C19.3137 79.166 18.9653 79.2352 18.8129 79.4656ZM25.8677 87.6703C25.5194 87.9699 25.65 88.6613 26.1508 89.0992C26.6516 89.6293 27.2831 89.6984 27.5661 89.3297C27.8492 89.0301 27.7185 88.3387 27.2831 87.9008C26.804 87.3707 26.1508 87.3016 25.8677 87.6703ZM23.3855 84.2824C23.0371 84.5129 23.0371 85.1121 23.3855 85.6422C23.7339 86.1723 24.3218 86.4027 24.6048 86.1723C24.9532 85.8727 24.9532 85.2734 24.6048 84.7434C24.3 84.2133 23.7339 83.9828 23.3855 84.2824Z" fill="black"/>
</svg>
