<svg width="100" height="117" viewBox="0 0 100 117" fill="none" xmlns="http://www.w3.org/2000/svg">
<path d="M0 7.3125V109.688H100V7.3125H0ZM54.4196 87.1559C54.4196 97.1191 48.7054 101.667 40.3795 101.667C32.8571 101.667 28.5045 97.6904 26.2723 92.8688L33.9286 88.1385C35.4018 90.8121 36.7411 93.0744 39.9777 93.0744C43.058 93.0744 45.0223 91.8404 45.0223 87.0187V54.3182H54.4196V87.1559ZM76.6518 101.667C67.9241 101.667 62.2768 97.4162 59.5313 91.8404L67.1875 87.3158C69.1964 90.675 71.8304 93.1658 76.4509 93.1658C80.3348 93.1658 82.8348 91.1777 82.8348 88.4127C82.8348 85.1221 80.2902 83.9566 75.9821 82.0143L73.6384 80.9859C66.8527 78.0381 62.3661 74.3133 62.3661 66.4752C62.3661 59.2541 67.7455 53.7697 76.1161 53.7697C82.0982 53.7697 86.3839 55.8949 89.4643 61.4707L82.1429 66.2695C80.5357 63.3217 78.7946 62.1562 76.0938 62.1562C73.3482 62.1562 71.6071 63.9387 71.6071 66.2695C71.6071 69.1488 73.3482 70.3143 77.3884 72.1195L79.7321 73.1479C87.7232 76.6441 92.2098 80.2318 92.2098 88.2756C92.2098 96.9135 85.558 101.667 76.6518 101.667Z" fill="#FFD43B"/>
</svg>
