<svg width="143" height="114" viewBox="0 0 143 114" fill="none" xmlns="http://www.w3.org/2000/svg">
<g clip-path="url(#clip0)">
<path d="M132.677 13.1587H10.3228C4.62516 13.1587 0 17.7677 0 23.4231V90.554C0 96.2318 4.62516 100.841 10.3228 100.841H132.7C138.397 100.841 143.022 96.2317 143 90.5763V23.4231C143 17.7677 138.375 13.1587 132.677 13.1587ZM75.6336 80.2896H61.8922V53.5708L48.1508 70.6931L34.4094 53.5708V80.2896H20.6233V33.7099H34.3647L48.1061 50.8321L61.8475 33.7099H75.5889V80.2896H75.6336ZM105.865 80.9798L85.2414 56.9997H98.9828V33.7099H112.724V56.9997H126.466L105.865 80.9798Z" fill="black"/>
</g>
<defs>
<clipPath id="clip0">
<rect width="143" height="114" fill="white"/>
</clipPath>
</defs>
</svg>
