<svg width="116" height="126" viewBox="0 0 116 126" fill="none" xmlns="http://www.w3.org/2000/svg">
<path d="M54.7088 93.2498C54.6545 93.3974 54.6001 93.5155 54.7088 93.2498V93.2498ZM99.8636 71.8396C96.2182 71.838 92.6214 72.9747 89.3511 75.1619C88.2818 72.2334 87.1761 69.674 86.9949 67.7545C86.7774 65.515 86.5418 64.1861 86.7955 61.5283C87.0493 58.8705 88.1911 55.1052 88.173 54.8345C88.1549 54.5638 87.9193 53.2103 85.5811 53.1857C83.243 53.1611 81.2311 53.8009 80.9973 54.6377C80.5844 56.1668 80.2631 57.7387 80.0367 59.3381C79.6198 62.2173 75.3623 72.5041 72.9516 77.8689C72.1541 75.7771 71.4835 73.9314 71.3385 72.4548C71.121 70.2154 70.8854 68.8865 71.1391 66.2287C71.3929 63.5709 72.5348 59.8056 72.5166 59.5349C72.4985 59.2642 72.2629 57.9107 69.9266 57.8861C67.5903 57.8615 65.5766 58.5013 65.341 59.3381C65.1053 60.1748 64.8516 62.1435 64.3803 64.0384C63.9091 65.9334 58.2378 83.0615 56.7533 87.5158C55.9921 89.7798 55.3396 91.6009 54.8683 92.8314C54.7958 93.0283 54.7415 93.1513 54.7052 93.2498C54.7596 93.1267 54.7958 93.0037 54.7958 93.0529C54.3971 94.1111 54.1615 94.7017 54.1615 94.7017V94.7263C53.8533 95.5138 53.509 96.2275 53.3458 96.2275C53.2371 96.2275 53.0015 94.1603 53.4002 91.3302C54.2521 85.3748 56.264 76.1216 56.2458 75.8017C56.2277 75.6295 56.6265 74.0298 54.9227 73.1685C53.2733 72.3564 52.6752 73.7099 52.5302 73.7099C52.3852 73.7099 52.2765 74.2021 52.2765 74.2021C52.2765 74.2021 54.1071 63.7677 48.762 63.7677C45.427 63.7677 40.787 68.7388 38.5069 73.2423C37.075 74.3005 33.9756 76.5892 30.7131 79.0256C29.4625 79.9607 28.1756 80.9205 26.9613 81.831C26.8706 81.708 26.7981 81.5849 26.7075 81.4619C20.2206 72.0611 8.24358 65.4166 8.75108 52.792C8.93233 48.19 10.1105 36.1068 31.7825 21.4396C49.545 9.43025 63.746 12.7279 66.191 20.0615C69.7073 30.5205 58.5985 49.9865 40.1526 52.792C33.122 53.8502 29.4263 50.1588 28.5019 48.7806C27.5413 47.3287 27.3963 47.2548 27.0338 47.5256C26.4356 47.9685 26.8163 49.2482 27.0338 50.0111C27.5775 51.9552 29.8431 55.4006 33.702 57.1232C37.0913 58.6244 45.3346 59.4611 55.3015 54.2193C66.4991 48.3623 75.2155 32.0463 72.6598 18.3881C70.0571 4.50837 53.1066 -0.044364 37.0786 7.68298C27.5286 12.2849 17.201 19.5201 9.77152 28.9455C0.946456 40.1674 -0.465482 49.9373 0.114518 54.0224C2.17896 68.5173 16.8928 77.9673 22.7816 84.9564C22.4916 85.1779 22.2198 85.3748 21.966 85.5716C19.0135 87.565 7.79589 95.5384 4.98833 103.955C1.81646 113.503 5.51396 120.345 7.94089 121.28C15.5153 124.135 23.271 118.991 27.438 110.55C31.6049 102.109 31.0992 91.0841 29.178 86.0638C29.1598 85.99 29.1236 85.9408 29.1055 85.867C29.8667 85.2517 30.6461 84.6365 31.4255 84.0213C32.928 82.8154 34.3961 81.708 35.683 80.7482C34.958 83.406 34.4324 86.6052 34.1605 91.2318C33.8343 96.6459 35.4836 103.66 37.6224 106.416C38.5649 107.622 39.705 107.646 40.4118 107.646C42.9131 107.646 44.0368 104.841 45.2856 101.494C46.8263 97.4088 48.1856 92.6591 48.1856 92.6591C48.1856 92.6591 46.4819 105.505 51.14 105.505C52.842 105.505 54.5457 102.528 55.3088 101.002V101.026C55.3088 101.026 55.345 100.928 55.4356 100.731C55.6169 100.362 55.7075 100.14 55.7075 100.14V100.067C56.3963 98.4669 57.9006 94.8002 60.1645 88.7462C63.1007 80.9205 65.9083 71.1506 65.9083 71.1506C66.1796 73.2982 66.555 75.4192 67.032 77.4998C67.5395 79.8377 68.6089 82.397 69.4608 84.8826C68.772 86.1623 68.3551 86.9005 68.3551 86.9005C68.3565 86.9194 68.3629 86.937 68.3733 86.9498C67.8295 87.9341 67.2133 88.9923 66.5789 90.0259C64.2607 93.7666 61.5039 98.0486 61.1414 99.2791C60.7064 100.731 60.8151 101.814 61.6489 102.651C62.2651 103.29 63.3526 103.389 64.4927 103.266C66.5771 103.069 68.0452 102.38 68.7521 101.937C70.0552 101.302 71.2869 100.424 72.4115 99.3283C74.6771 97.0642 76.0546 93.8158 75.9278 89.5338C75.8553 87.1712 75.2934 84.8087 74.6046 82.5939C74.804 82.2002 75.0215 81.7818 75.2209 81.3634C78.8078 74.2513 81.581 66.4452 81.581 66.4452C81.8523 68.5929 82.2277 70.7139 82.7047 72.7944C83.1397 74.7878 83.9898 76.9781 84.7691 79.1191C81.3997 82.8351 79.3153 87.1417 78.5903 89.9718C77.2491 95.2136 78.3003 97.5761 80.276 98.1175C81.1641 98.3636 82.4328 97.7976 83.3753 97.2562C84.7751 96.6231 86.0949 95.7018 87.2885 94.5245C89.5541 92.2605 91.7455 89.0859 91.6005 84.7792C91.5461 82.8351 91.1473 80.8909 90.6217 79.0206C93.4673 77.3964 97.163 76.5105 101.876 77.2487C111.968 78.8484 113.943 87.4124 113.563 90.9808C113.182 94.5491 111.061 96.5425 110.354 97.1331C109.648 97.7238 109.43 97.9452 109.484 98.3882C109.575 99.028 109.901 99.0034 110.499 98.8558C111.333 98.6589 115.79 95.9519 115.989 89.332C116.279 80.9648 110.354 71.7609 99.8582 71.8347L99.8636 71.8396ZM22.0748 107.449C18.7416 112.396 14.0653 114.266 12.0553 112.691C9.89839 110.988 10.7503 103.709 14.8628 98.4374C17.3641 95.2382 20.5885 92.2851 22.7273 90.464C23.2166 90.0702 23.9235 89.4796 24.7935 88.7659C24.9385 88.6429 25.011 88.5937 25.011 88.5937C25.1741 88.446 25.3554 88.323 25.5366 88.1753C27.0392 95.6566 25.591 102.252 22.0748 107.444V107.449ZM46.4275 84.9564C45.2675 88.8201 42.8225 98.6638 41.3362 98.147C40.0675 97.7041 39.2881 90.1982 41.0825 82.8154C41.9887 79.0994 43.91 74.6697 45.0518 72.947C46.8806 70.1662 48.8925 69.2802 49.3638 70.3877C49.9981 71.8396 47.1525 82.5447 46.4275 84.9564ZM66.5463 97.9994C66.0569 98.3439 65.6038 98.5654 65.3863 98.3931C65.2231 98.2701 65.5856 97.8025 65.5856 97.8025C65.5856 97.8025 68.105 94.1357 69.1019 92.4623C69.6819 91.4779 70.3525 90.3213 71.0757 89.0416C71.0757 89.1646 71.0938 89.2877 71.0938 89.4353C71.0703 93.8404 67.9546 96.8181 66.5408 97.9994H66.5463ZM82.0576 93.2005C81.6951 92.856 81.7495 91.6994 82.9639 88.1064C83.4352 86.7037 84.5208 84.3412 86.4076 82.0771C86.6212 82.9341 86.7374 83.8304 86.752 84.7349C86.7339 90.272 83.8158 92.3392 82.0595 93.2005H82.0576Z" fill="#CD6799"/>
</svg>
