<svg width="2890" height="1891" viewBox="0 0 2890 1891" fill="none" xmlns="http://www.w3.org/2000/svg">
<path d="M961.372 1327.24C978.532 1326.81 1064.33 1321.19 1076.97 1317.73C1066.13 1306.49 880.091 1313.4 769.911 1103.29C750.494 1066.11 736.044 1027.2 741.011 983.966C754.106 873.721 889.574 854.266 975.822 903.985C1138.38 997.368 1261.66 1298.7 1489.25 1325.51C1656.32 1344.96 1871.27 1252.01 1977.83 1129.23C1975.13 1128.8 1974.22 1128.37 1973.32 1128.8C1971.51 1129.23 1969.71 1129.66 1968.35 1130.09C1817.98 1182.41 1542.53 1172.03 1360.1 1066.11C1190.31 967.538 1120.32 812.33 1126.19 743.589C1134.32 651.502 1229.6 643.288 1288.3 658.852C1353.33 675.713 1398.48 734.943 1463.96 777.311C1534.4 822.274 1612.52 836.541 1695.61 821.841C1762.89 810.168 1850.95 768.664 1860.43 759.153C1855.46 758.721 1852.3 758.721 1849.14 758.289C1821.14 755.695 1793.15 754.83 1765.6 750.939C1263.47 679.604 1183.54 43.6426 625.411 2.57105C425.37 -12.1283 176.56 37.59 9.93433 153.887C6.32185 156.481 3.16092 159.075 0 161.669C0.451561 162.534 0.451561 162.966 0.903121 163.831C4.51561 163.831 8.12809 163.399 11.7406 162.966C40.1889 158.643 68.1856 159.508 96.1824 164.263C203.654 182.854 311.577 264.132 348.605 494.998C372.537 643.288 345.444 714.623 384.73 867.236C470.526 1200.56 795.65 1332.43 961.372 1327.24ZM340.025 119.301C335.961 114.978 335.961 114.113 334.155 110.654C388.794 99.4136 443.432 92.9286 499.426 89.9022C494.459 153.455 399.179 181.989 340.025 119.301ZM1229.15 1634.63C1035.88 1639.81 813.712 1519.19 671.47 1369.17C650.699 1347.56 595.608 1281.84 587.48 1268.01L589.286 1266.28C619.089 1284.01 705.338 1346.69 836.742 1383.01C946.019 1413.27 1053.94 1410.25 1160.06 1368.74C1262.56 1328.54 1345.2 1366.58 1354.68 1381.28C1271.14 1397.71 1263.92 1400.3 1246.31 1415.43C1223.28 1434.46 1225.54 1466.02 1277.92 1489.8C1396.23 1543.4 1562.4 1477.69 1716.83 1599.61C1727.67 1608.25 1753.41 1633.33 1762.44 1645.87C1761.99 1646.73 1761.09 1647.16 1760.63 1648.03C1738.96 1641.54 1686.58 1615.6 1579.11 1607.82C1467.57 1599.18 1370.03 1630.74 1229.15 1634.63V1634.63ZM2018.48 545.148C2092.53 522.667 2204.97 487.216 2318.76 530.882C2391.46 558.983 2437.07 611.728 2463.71 680.469C2479.52 721.108 2486.74 765.638 2486.74 804.548C2485.84 804.548 2484.94 804.548 2484.03 804.98C2483.13 803.251 2482.23 801.089 2481.78 799.36C2459.2 704.247 2346.76 609.998 2176.52 670.093C1949.84 750.507 1587.69 712.029 1377.71 462.573C1374.55 458.682 1366.87 455.223 1371.84 448.738C1372.29 447.874 1381.32 451.332 1385.39 454.359C1467.12 512.291 1558.34 549.04 1657.68 567.63C1795.4 594.002 1904.23 580.167 2018.48 545.148V545.148ZM2482.23 1053.14C2335.92 1054 2329.6 1269.74 2014.41 1331.56C1932.23 1347.56 1839.66 1351.45 1811.66 1349.72V1347.99C1824.3 1341.51 1878.04 1336.75 1945.77 1276.22C1981.45 1244.66 2014.86 1210.94 2048.73 1177.22C2136.78 1089.89 2235.68 994.775 2418.56 1008.61C2522.87 1016.39 2550.87 1044.06 2581.57 1063.52C2582.93 1064.38 2583.38 1065.68 2584.73 1067.41C2582.47 1067.41 2581.57 1067.84 2580.67 1067.41C2549.06 1055.73 2516.1 1053.14 2482.23 1053.14V1053.14ZM2426.69 948.947C2426.23 949.812 2426.23 950.677 2425.78 951.541C2295.28 932.519 2209.03 917.387 2116.46 968.835C2039.7 1011.64 1974.67 1057.46 1836.5 1074.32C1714.12 1089.02 1632.84 1084.7 1538.02 1039.74C1536.66 1038.87 1535.31 1038.01 1533.5 1037.14C1533.5 1036.28 1533.95 1035.85 1533.95 1034.98C1646.39 1051.41 1698.32 1057.03 1784.57 1009.91C1885.27 954.135 1965.64 894.906 2106.53 875.883C2240.19 858.157 2338.18 886.691 2426.69 948.947V948.947ZM1212.89 259.377C1210.18 256.783 1207.92 254.189 1203.41 249.433C1237.73 249.433 1337.52 244.245 1444.54 285.749C1533.5 320.336 1589.94 376.539 1671.23 427.986C1721.35 459.547 1776.89 468.193 1835.59 463.005C1855.01 461.276 1873.98 457.817 1893.39 455.656C1895.2 455.223 1897.46 455.656 1900.17 456.953C1897.46 458.682 1894.75 460.844 1892.04 462.141C1855.46 479.434 1816.63 489.378 1776.44 492.836C1658.58 504.077 1549.3 476.84 1444.99 426.257C1357.84 383.456 1280.63 327.253 1212.89 259.377V259.377ZM2889.99 1290.06C2874.18 1303.46 2787.48 1340.21 2697.17 1312.97C2641.63 1296.11 2609.12 1248.55 2554.48 1208.78C2509.32 1175.92 2460.1 1174.62 2427.59 1172.46C2430.3 1169 2431.65 1167.28 2433.01 1166.41C2499.84 1126.64 2570.73 1113.67 2646.6 1138.31C2703.04 1156.47 2733.3 1196.67 2783.87 1242.93C2832.64 1287.9 2878.7 1285.73 2888.18 1288.33C2888.63 1287.9 2889.08 1288.33 2889.99 1290.06V1290.06ZM1930.42 1882.35C1940.36 1887.54 1937.65 1888.84 1937.19 1891C1853.66 1884.95 1784.12 1858.14 1725.86 1795.02C1627.42 1688.24 1537.56 1674.4 1506.41 1666.62C1508.66 1665.75 1510.02 1664.89 1511.37 1664.89C1570.53 1665.32 1629.23 1667.92 1687.03 1681.75C1801.27 1709.42 1845.08 1791.56 1874.88 1834.36C1889.33 1855.12 1907.84 1870.25 1930.42 1882.35V1882.35Z" fill="url(#paint0_linear)"/>
<defs>
<linearGradient id="paint0_linear" x1="1444.99" y1="0.0585937" x2="1444.99" y2="1891" gradientUnits="userSpaceOnUse">
<stop stop-color="#D35400"/>
<stop offset="1" stop-color="#F39C12"/>
</linearGradient>
</defs>
</svg>
