<svg width="266" height="399" viewBox="0 0 266 399" fill="none" xmlns="http://www.w3.org/2000/svg">
<path d="M66.5131 399C103.214 399 133 369.208 133 332.5V266H66.5131C29.8125 266 0.026413 295.792 0.026413 332.5C0.026413 369.208 29.8125 399 66.5131 399Z" fill="#0ACF83"/>
<path d="M0.026413 199.5C0.026413 162.792 29.8125 133 66.5131 133H133V266H66.5131C29.8125 266 0.026413 236.208 0.026413 199.5Z" fill="#A259FF"/>
<path d="M0.0316162 66.5C0.0316162 29.792 29.8177 0 66.5183 0H133.005V133H66.5183C29.8177 133 0.0316162 103.208 0.0316162 66.5Z" fill="#F24E1E"/>
<path d="M133 0H199.487C236.187 0 265.973 29.792 265.973 66.5C265.973 103.208 236.187 133 199.487 133H133V0Z" fill="#FF7262"/>
<path d="M265.973 199.5C265.973 236.208 236.187 266 199.487 266C162.786 266 133 236.208 133 199.5C133 162.792 162.786 133 199.487 133C236.187 133 265.973 162.792 265.973 199.5Z" fill="#1ABCFE"/>
</svg>
