<svg width="1681" height="1698" viewBox="0 0 1681 1698" fill="none" xmlns="http://www.w3.org/2000/svg">
<path d="M1626.96 1335.17C1641.79 1350.17 1652.11 1369.12 1656.7 1389.81C1661.29 1410.5 1659.97 1432.08 1652.89 1452.05C1651.47 1456.06 1649.82 1459.98 1647.95 1463.8C1640.97 1478.03 1631.08 1490.6 1618.92 1500.67C1606.77 1510.75 1592.63 1518.1 1577.45 1522.24C1573.03 1523.46 1568.54 1524.38 1564 1525.01C1558.96 1525.71 1553.87 1526.06 1548.77 1526.06H162.755C136.965 1526.09 111.981 1516.98 92.1532 1500.32C89.4972 1498.06 86.9533 1495.72 84.5215 1493.31C83.1598 1491.93 81.8151 1490.52 80.5207 1489.06C78.8397 1487.21 77.2763 1485.31 75.7634 1483.34C71.0216 1477.28 66.9253 1470.73 63.5426 1463.8C63.0887 1462.88 62.6516 1461.96 62.2314 1461.03C60.8866 1458.08 59.6763 1455.09 58.6004 1452.05C52.2338 1434.23 50.4579 1415.08 53.4398 1396.38C56.4217 1377.69 64.0633 1360.06 75.6458 1345.17C77.1587 1343.2 78.7556 1341.3 80.403 1339.45C90.7731 1327.76 103.469 1318.42 117.66 1312.03C131.851 1305.64 147.218 1302.35 162.755 1302.37H307.086C308.901 1302.37 310.7 1302.3 312.482 1302.16C317.055 1301.83 321.587 1301.06 326.014 1299.85C329.877 1298.81 333.645 1297.44 337.277 1295.74C345.166 1292.09 352.349 1287.05 358.491 1280.85C365.256 1274.04 370.62 1265.95 374.275 1257.04C377.931 1248.13 379.805 1238.57 379.789 1228.93C379.794 1226.15 379.637 1223.37 379.318 1220.61C377.656 1205.99 371.686 1192.21 362.183 1181.05C352.679 1169.89 340.079 1161.88 326.014 1158.04C321.586 1156.83 317.055 1156.06 312.482 1155.73C310.7 1155.59 308.901 1155.52 307.086 1155.52H284.426C271.807 1155.54 259.227 1154.11 246.923 1151.28H246.805C246.519 1151.28 246.234 1151.16 245.948 1151.08C245.007 1150.87 244.082 1150.63 243.157 1150.4L241.779 1150.04C240.569 1149.72 239.358 1149.39 238.165 1149.04C236.971 1148.68 236.148 1148.44 235.156 1148.12C227.612 1145.83 220.241 1142.99 213.101 1139.63C211.521 1138.88 209.941 1138.12 208.394 1137.3C205.839 1136 203.351 1134.64 200.863 1133.2C196.213 1130.51 191.73 1127.6 187.415 1124.47C183.785 1121.87 180.271 1119.12 176.859 1116.25C172.959 1112.97 169.216 1109.51 165.63 1105.89C136.246 1076.35 118.757 1036.85 116.545 995.029C116.477 993.772 116.427 992.516 116.393 991.259C116.393 989.409 116.292 987.541 116.292 985.69C116.292 984.875 116.292 983.992 116.292 983.262C116.383 976.446 116.877 969.642 117.772 962.886C120.853 939.786 128.617 917.577 140.58 897.646C152.543 877.715 168.447 860.49 187.298 847.048C191.422 844.082 195.675 841.315 200.057 838.745C200.309 838.592 200.561 838.439 200.83 838.304C208.368 833.914 216.237 830.133 224.364 826.995C227.894 825.619 231.474 824.38 235.105 823.242C238.736 822.105 242.821 821.018 246.755 820.118C259.096 817.265 271.716 815.83 284.376 815.839H408.198C423.567 815.83 438.555 811.007 451.097 802.034C454.486 799.594 457.669 796.874 460.612 793.901C473.465 780.968 481.164 763.715 482.246 745.423C482.33 743.98 482.381 742.519 482.381 741.042C482.377 729.82 479.878 718.743 475.069 708.627C470.259 698.511 463.262 689.615 454.594 682.597C453.467 681.68 452.324 680.899 451.148 679.982C446.926 676.931 442.388 674.352 437.616 672.29C436.456 671.764 435.279 671.288 434.085 670.847C425.821 667.732 417.069 666.144 408.248 666.16H182.019C161.117 666.18 140.379 662.431 120.781 655.089C113.869 652.504 107.131 649.47 100.609 646.005C97.7173 644.477 94.8764 642.875 92.086 641.2C88.1076 638.811 84.2301 636.264 80.4534 633.559C78.7724 632.404 77.2595 631.232 75.6962 630.027C71.0175 626.423 66.5287 622.575 62.2482 618.497C60.7353 617.088 59.256 615.645 57.7936 614.168C33.9029 590.102 17.3912 559.586 10.2381 526.279C10.0363 525.385 9.85143 524.485 9.68333 523.579C9.07817 520.591 8.55706 517.585 8.12 514.529C6.87575 505.926 6.25214 497.244 6.25409 488.55C6.25409 487.87 6.25409 487.191 6.25409 486.512C6.64791 446.055 20.7699 406.958 46.2619 375.751C47.842 373.816 49.4726 371.897 51.1368 370.029C53.2549 367.618 55.457 365.275 57.7095 362.999C59.172 361.522 60.6513 360.079 62.1642 358.669L62.6012 358.262C63.862 357.073 65.1227 355.919 66.4171 354.781C69.4205 352.121 72.5135 349.574 75.6962 347.14C77.2595 345.934 78.8397 344.763 80.4534 343.608C82.0672 342.454 83.3784 341.554 84.8577 340.552C87.2279 338.956 89.6317 337.411 92.086 335.95L93.2795 335.237C95.6833 333.811 98.1376 332.435 100.609 331.145C107.128 327.679 113.867 324.65 120.781 322.078C140.373 314.713 161.114 310.957 182.019 310.99C183.794 310.988 185.567 310.892 187.331 310.701C191.959 310.194 196.489 309.01 200.779 307.186C212.476 302.299 221.848 293.033 226.936 281.326C228.927 276.734 230.208 271.86 230.735 266.876C230.91 265.314 230.999 263.744 231.004 262.172C231.004 261.951 231.004 261.731 231.004 261.51V226.175C231.006 218.01 232.178 209.888 234.483 202.063C234.702 201.333 234.921 200.603 235.156 199.889C240.244 184.113 249.806 170.193 262.656 159.858C275.506 149.522 291.078 143.226 307.439 141.75C309.12 141.597 310.801 141.495 312.482 141.444H314.987H807.52C809.386 141.444 811.218 141.444 813.05 141.631C817.608 141.915 822.135 142.585 826.582 143.635C841.238 147.085 854.703 154.458 865.564 164.979C866.018 165.403 866.455 165.845 866.893 166.286C881.97 181.484 890.742 201.919 891.418 223.424V226.259C891.418 226.259 891.418 227.957 891.418 228.671C891.53 232.656 891.924 236.628 892.595 240.557C892.73 241.389 892.898 242.255 893.049 243.053C893.368 244.632 893.738 246.211 894.125 247.756C895.417 252.723 897.155 257.559 899.319 262.206C900.059 263.802 900.849 265.381 901.672 266.91C902.059 267.64 902.463 268.353 902.883 269.066C905.401 273.42 908.305 277.534 911.557 281.36C913.953 284.193 916.536 286.859 919.289 289.34C920.516 290.461 921.777 291.531 923.055 292.583C927.742 296.335 932.814 299.568 938.184 302.228C939.243 302.771 940.319 303.281 941.411 303.773C952.124 308.573 963.716 311.043 975.435 311.024H1221.1C1225.92 311.024 1230.68 311.278 1235.38 311.754C1252.38 313.501 1268.9 318.399 1284.13 326.204C1294.78 331.642 1304.69 338.426 1313.64 346.393C1314.44 347.123 1315.23 347.836 1316.02 348.583C1316.81 349.33 1317.35 349.823 1317.99 350.468C1319.45 351.877 1320.86 353.304 1322.21 354.781C1322.75 355.307 1323.23 355.851 1323.72 356.394C1323.79 356.437 1323.85 356.495 1323.89 356.564C1324.41 357.124 1324.91 357.685 1325.39 358.262C1325.86 358.839 1326.6 359.62 1327.17 360.317C1328.01 361.284 1328.85 362.269 1329.62 363.271C1330.23 364.001 1330.81 364.748 1331.3 365.512C1331.79 366.277 1332.43 366.973 1332.98 367.72C1333.54 368.467 1334.13 369.248 1334.66 370.029C1334.91 370.357 1335.15 370.68 1335.37 370.997C1336.46 372.559 1337.52 374.138 1338.55 375.751C1339.22 376.821 1339.89 377.891 1340.55 378.978C1341.69 380.879 1342.78 382.815 1343.91 384.768C1345.42 387.609 1346.85 390.496 1348.18 393.428C1349.38 396.042 1350.5 398.703 1351.54 401.408C1353.35 406.128 1354.89 410.946 1356.16 415.841C1356.87 418.473 1357.49 421.139 1358.03 423.822C1359 428.596 1359.71 433.42 1360.17 438.272C1360.62 442.87 1360.84 447.489 1360.84 452.11V568.101C1360.82 580.253 1363.18 592.289 1367.78 603.52C1372.37 614.751 1379.11 624.957 1387.62 633.555C1396.12 642.153 1406.21 648.973 1417.33 653.627C1428.44 658.281 1440.35 660.676 1452.38 660.676H1592.13C1605.91 660.683 1619.48 664.186 1631.58 670.864C1637.46 674.106 1642.94 678.051 1647.89 682.614C1648.81 683.463 1649.72 684.312 1650.59 685.229C1652.65 687.306 1654.59 689.488 1656.42 691.766C1668.32 706.635 1674.81 725.175 1674.81 744.294C1674.81 763.412 1668.32 781.953 1656.42 796.821C1654.59 799.1 1652.65 801.282 1650.59 803.359C1637.73 816.391 1620.96 824.751 1602.9 827.131C1599.33 827.609 1595.73 827.847 1592.13 827.844C1587.18 827.845 1582.27 828.554 1577.52 829.949C1572.76 831.366 1568.23 833.477 1564.07 836.215C1562.78 837.047 1561.53 837.913 1560.32 838.881C1554.08 843.783 1549.03 850.062 1545.56 857.237C1542.09 864.412 1540.29 872.293 1540.3 880.278V1047.92C1540.34 1072.85 1531.78 1097.01 1516.09 1116.25C1513.89 1118.98 1511.54 1121.6 1509.07 1124.09C1504.2 1129.01 1498.87 1133.44 1493.15 1137.3C1491.99 1138.12 1490.81 1138.88 1489.62 1139.63C1487.94 1140.68 1486.26 1141.69 1484.46 1142.64L1482 1143.94C1481.8 1144.06 1481.58 1144.17 1481.37 1144.27C1480.54 1144.69 1479.68 1145.1 1478.88 1145.49C1478.79 1145.55 1478.68 1145.6 1478.57 1145.62C1477.65 1146.07 1476.73 1146.49 1475.8 1146.88C1474.88 1147.27 1473.82 1147.73 1472.83 1148.12C1469.73 1149.38 1466.57 1150.47 1463.36 1151.4C1459.78 1152.45 1456.14 1153.31 1452.47 1153.98C1447.99 1154.77 1443.47 1155.28 1438.94 1155.51C1437.26 1155.51 1435.42 1155.64 1433.66 1155.64C1415.8 1155.63 1398.55 1162.27 1385.22 1174.28C1371.89 1186.29 1363.4 1202.83 1361.38 1220.76C1361.06 1223.52 1360.9 1226.3 1360.9 1229.08C1360.94 1248.52 1368.6 1267.14 1382.21 1280.88C1395.82 1294.62 1414.27 1302.34 1433.51 1302.37H1548.69C1553.78 1302.36 1558.87 1302.72 1563.92 1303.44C1568.46 1304.06 1572.95 1304.98 1577.37 1306.19C1578.86 1306.6 1580.34 1307.04 1581.82 1307.5C1598.86 1312.9 1614.35 1322.4 1626.96 1335.17Z" fill="#F3F4FE"/>
<path d="M75.6453 347.141V629.96C70.9666 626.356 66.4778 622.508 62.1973 618.43V358.637L62.6343 358.229C63.8951 357.04 65.1558 355.886 66.4502 354.748C69.4536 352.111 72.5186 349.575 75.6453 347.141V347.141Z" fill="#EFF1FD"/>
<path d="M62.1961 1367.49C65.7952 1359.54 70.309 1352.05 75.6441 1345.17V1483.34C70.9022 1477.28 66.806 1470.73 63.4232 1463.8C62.9694 1462.88 62.5323 1461.96 62.1121 1461.03L62.1961 1367.49Z" fill="#EFF1FD"/>
<path d="M200.861 307.186V666.092H187.413V310.734C192.042 310.217 196.573 309.021 200.861 307.186V307.186Z" fill="#EFF1FD"/>
<path d="M200.038 838.811C200.29 838.658 200.543 838.505 200.811 838.369V1133.09C196.161 1130.41 191.678 1127.5 187.364 1124.36V847.08C191.465 844.114 195.69 841.358 200.038 838.811V838.811Z" fill="#EFF1FD"/>
<path d="M187.33 1302.42H200.862V1526.06H187.33V1302.42Z" fill="#EFF1FD"/>
<path d="M326.012 141.359V666.041H312.48V141.359H314.984H326.012Z" fill="#EFF1FD"/>
<path d="M312.48 815.87H326.012V1158.03C321.584 1156.83 317.053 1156.06 312.48 1155.72V815.87Z" fill="#EFF1FD"/>
<path d="M312.48 1302.22C317.053 1301.88 321.585 1301.11 326.012 1299.91V1526.06H312.48V1302.22Z" fill="#EFF1FD"/>
<path d="M451.147 141.359V679.914C446.925 676.863 442.388 674.284 437.615 672.222V141.359H451.147Z" fill="#EFF1FD"/>
<path d="M437.615 809.742C442.381 807.673 446.917 805.1 451.147 802.067V1526.06H437.615V809.742Z" fill="#EFF1FD"/>
<path d="M562.764 141.359H576.296V1526.06H562.764V141.359Z" fill="#EFF1FD"/>
<path d="M687.914 141.359H701.446V1526.06H687.914V141.359Z" fill="#EFF1FD"/>
<path d="M826.581 143.549V1526.06H813.049V141.545C817.608 141.829 822.134 142.5 826.581 143.549V143.549Z" fill="#EFF1FD"/>
<path d="M951.732 307.559V1526.06H938.284V302.244C939.343 302.788 940.419 303.297 941.511 303.789C944.833 305.271 948.247 306.53 951.732 307.559V307.559Z" fill="#EFF1FD"/>
<path d="M1063.35 310.988H1076.88V1526.06H1063.35V310.988Z" fill="#EFF1FD"/>
<path d="M1188.48 310.988H1202.02V1526.06H1188.48V310.988Z" fill="#EFF1FD"/>
<path d="M1327.17 360.315V1526.06H1313.72V346.392C1314.53 347.122 1315.32 347.835 1316.11 348.582C1316.9 349.329 1317.43 349.822 1318.07 350.467C1319.53 351.876 1320.95 353.302 1322.29 354.78C1322.83 355.306 1323.32 355.849 1323.8 356.393C1323.87 356.436 1323.93 356.494 1323.97 356.563C1324.49 357.123 1325 357.683 1325.47 358.261C1325.94 358.838 1326.59 359.619 1327.17 360.315V360.315Z" fill="#EFF1FD"/>
<path d="M1452.38 660.674V1153.88C1447.91 1154.67 1443.39 1155.18 1438.85 1155.4V659.587C1443.33 660.286 1447.85 660.649 1452.38 660.674V660.674Z" fill="#EFF1FD"/>
<path d="M1438.78 1302.42H1452.32V1526.06H1438.78V1302.42Z" fill="#EFF1FD"/>
<path d="M1577.45 660.675V829.847C1572.69 831.263 1568.16 833.374 1564 836.112V660.675H1577.45Z" fill="#EFF1FD"/>
<path d="M1577.45 1306.24V1522.24C1573.03 1523.46 1568.54 1524.38 1564 1525.01V1303.49C1568.54 1304.11 1573.03 1305.03 1577.45 1306.24Z" fill="#EFF1FD"/>
<path d="M146.651 1556.64H241.56C249.73 1556.64 256.353 1549.95 256.353 1541.7V1541.68C256.353 1533.43 249.73 1526.74 241.56 1526.74H146.651C138.481 1526.74 131.858 1533.43 131.858 1541.68V1541.7C131.858 1549.95 138.481 1556.64 146.651 1556.64Z" fill="#7986BF"/>
<path d="M283.181 1556.64H1615.1C1623.27 1556.64 1629.9 1549.95 1629.9 1541.7V1541.68C1629.9 1533.43 1623.27 1526.74 1615.1 1526.74H283.181C275.011 1526.74 268.388 1533.43 268.388 1541.68V1541.7C268.388 1549.95 275.011 1556.64 283.181 1556.64Z" fill="#7986BF"/>
<path d="M356.809 236.328H434.303C435.321 236.328 436.329 236.53 437.269 236.924C438.209 237.317 439.063 237.893 439.783 238.62C440.502 239.347 441.073 240.21 441.463 241.16C441.852 242.11 442.053 243.127 442.053 244.155V431.717H356.809V236.328V236.328Z" fill="#6675AD"/>
<path d="M351.329 236.328H428.823V431.717H343.512V244.155C343.512 243.127 343.713 242.11 344.102 241.16C344.492 240.21 345.062 239.347 345.782 238.62C346.502 237.893 347.356 237.317 348.296 236.924C349.236 236.53 350.244 236.328 351.262 236.328H351.329Z" fill="#7986BF"/>
<path d="M384.966 317.341C396.274 317.341 405.441 308.081 405.441 296.659C405.441 285.237 396.274 275.978 384.966 275.978C373.658 275.978 364.491 285.237 364.491 296.659C364.491 308.081 373.658 317.341 384.966 317.341Z" fill="#6675AD"/>
<path d="M384.966 306.047C390.1 306.047 394.262 301.843 394.262 296.657C394.262 291.471 390.1 287.267 384.966 287.267C379.832 287.267 375.67 291.471 375.67 296.657C375.67 301.843 379.832 306.047 384.966 306.047Z" fill="#F3F4FE"/>
<path d="M384.967 426.335C403.349 426.335 418.25 411.283 418.25 392.715C418.25 374.147 403.349 359.094 384.967 359.094C366.585 359.094 351.683 374.147 351.683 392.715C351.683 411.283 366.585 426.335 384.967 426.335Z" fill="#6675AD"/>
<path d="M384.965 407.962C393.302 407.962 400.06 401.135 400.06 392.714C400.06 384.293 393.302 377.466 384.965 377.466C376.628 377.466 369.87 384.293 369.87 392.714C369.87 401.135 376.628 407.962 384.965 407.962Z" fill="#F3F4FE"/>
<path d="M523.868 236.328H601.362C602.379 236.328 603.387 236.53 604.327 236.924C605.268 237.317 606.122 237.893 606.841 238.62C607.561 239.347 608.132 240.21 608.521 241.16C608.911 242.11 609.111 243.127 609.111 244.155V431.717H523.868V236.328V236.328Z" fill="#6675AD"/>
<path d="M518.32 236.328H595.814V431.717H510.571V244.155C510.571 243.127 510.771 242.11 511.161 241.16C511.55 240.21 512.121 239.347 512.841 238.62C513.56 237.893 514.414 237.317 515.355 236.924C516.295 236.53 517.303 236.328 518.32 236.328V236.328Z" fill="#7986BF"/>
<path d="M552.025 317.341C563.333 317.341 572.499 308.081 572.499 296.659C572.499 285.237 563.333 275.978 552.025 275.978C540.717 275.978 531.55 285.237 531.55 296.659C531.55 308.081 540.717 317.341 552.025 317.341Z" fill="#6675AD"/>
<path d="M552.023 306.047C557.157 306.047 561.319 301.843 561.319 296.657C561.319 291.471 557.157 287.267 552.023 287.267C546.889 287.267 542.727 291.471 542.727 296.657C542.727 301.843 546.889 306.047 552.023 306.047Z" fill="#F3F4FE"/>
<path d="M552.024 426.335C570.406 426.335 585.307 411.283 585.307 392.715C585.307 374.147 570.406 359.094 552.024 359.094C533.641 359.094 518.74 374.147 518.74 392.715C518.74 411.283 533.641 426.335 552.024 426.335Z" fill="#6675AD"/>
<path d="M552.023 407.962C560.36 407.962 567.119 401.135 567.119 392.714C567.119 384.293 560.36 377.466 552.023 377.466C543.686 377.466 536.928 384.293 536.928 392.714C536.928 401.135 543.686 407.962 552.023 407.962Z" fill="#F3F4FE"/>
<path d="M223.826 470.873H727.336L694.186 431.717H256.992L223.826 470.873Z" fill="#D2D6FA"/>
<path d="M633.031 470.872V523.442L597.697 548.556V470.872H633.031Z" fill="#D2D6FA"/>
<path d="M362.055 470.872V548.556L326.721 523.442V470.872H362.055Z" fill="#D2D6FA"/>
<path d="M326.719 470.872H362.053V487.122H326.719V470.872Z" fill="#969ECC"/>
<path d="M597.697 470.872H633.032V487.122H597.697V470.872Z" fill="#969ECC"/>
<path d="M1092.58 462.958H1284.4V680.54H1092.58V462.958Z" fill="#D2D6FA"/>
<path d="M1109.37 481.994H1267.62V661.49H1109.37V481.994Z" fill="#F3F4FE"/>
<path d="M1156.29 540.627L1198.74 619.737L1123.13 624.814L1156.29 540.627Z" fill="#D2D6FA"/>
<path d="M1249 502.779L1219.42 556.895L1188.49 514.58L1249 502.779Z" fill="#D2D6FA"/>
<path d="M1244.36 582.719L1238.16 620.075L1211.77 601.975L1244.36 582.719Z" fill="#D2D6FA"/>
<path d="M884.676 490.976C909.446 490.976 929.526 470.693 929.526 445.673C929.526 420.653 909.446 400.371 884.676 400.371C859.907 400.371 839.827 420.653 839.827 445.673C839.827 470.693 859.907 490.976 884.676 490.976Z" fill="#332D52"/>
<path d="M890.146 703.174C913.665 684.932 918.091 650.885 900.031 627.128C881.971 603.371 848.265 598.901 824.746 617.143L688.393 722.906C664.874 741.148 660.448 775.195 678.508 798.952C696.568 822.708 730.274 827.179 753.793 808.936L890.146 703.174Z" fill="#FAEEDE"/>
<path d="M721.266 820.151C753.091 820.151 778.891 794.09 778.891 761.943C778.891 729.796 753.091 703.736 721.266 703.736C689.441 703.736 663.641 729.796 663.641 761.943C663.641 794.09 689.441 820.151 721.266 820.151Z" fill="#F2E6D7"/>
<path d="M606.125 549.293L606.11 549.301C584.452 560.831 576.148 587.912 587.562 609.789L676.445 780.149C687.86 802.026 714.67 810.414 736.328 798.884L736.343 798.877C758.001 787.347 766.305 760.266 754.891 738.389L666.007 568.029C654.593 546.152 627.783 537.764 606.125 549.293Z" fill="#EF948C"/>
<path d="M606.047 624.22C628.301 633.975 654.168 623.664 663.824 601.19C673.48 578.716 663.268 552.588 641.014 542.833L605.778 527.387C583.525 517.631 557.657 527.942 548.001 550.416C538.345 572.891 548.558 599.018 570.811 608.773L606.047 624.22Z" fill="#EF948C"/>
<path d="M620.575 568.847C628.623 572.375 637.979 568.645 641.472 560.515C644.964 552.386 641.271 542.935 633.223 539.407L551.634 503.641C543.586 500.113 534.23 503.843 530.737 511.972C527.245 520.102 530.937 529.552 538.986 533.08L620.575 568.847Z" fill="#EF948C"/>
<path d="M626.317 565.962C631.171 573.345 641.03 575.355 648.339 570.452C655.647 565.549 657.637 555.59 652.783 548.208L625.413 506.58C620.559 499.198 610.7 497.188 603.391 502.091C596.083 506.994 594.093 516.953 598.947 524.335L626.317 565.962Z" fill="#EA8681"/>
<path d="M630.022 599.243C647.308 599.243 661.322 585.087 661.322 567.626C661.322 550.165 647.308 536.009 630.022 536.009C612.735 536.009 598.721 550.165 598.721 567.626C598.721 585.087 612.735 599.243 630.022 599.243Z" fill="#EA8681"/>
<path d="M890.146 703.174C913.665 684.932 918.091 650.885 900.031 627.128C881.971 603.371 848.265 598.901 824.746 617.143L688.393 722.906C664.874 741.148 660.448 775.195 678.508 798.952C696.568 822.708 730.274 827.179 753.793 808.936L890.146 703.174Z" fill="#F2E6D7"/>
<path d="M721.266 820.151C753.091 820.151 778.891 794.09 778.891 761.943C778.891 729.796 753.091 703.736 721.266 703.736C689.441 703.736 663.641 729.796 663.641 761.943C663.641 794.09 689.441 820.151 721.266 820.151Z" fill="#FAEEDE"/>
<path d="M606.125 549.293L606.11 549.301C584.452 560.831 576.148 587.912 587.562 609.789L676.445 780.149C687.86 802.026 714.67 810.414 736.328 798.884L736.343 798.876C758.001 787.347 766.305 760.265 754.891 738.388L666.007 568.029C654.593 546.152 627.783 537.764 606.125 549.293Z" fill="#EF948C"/>
<path d="M606.047 624.222C628.301 633.977 654.168 623.666 663.824 601.192C673.48 578.718 663.267 552.59 641.014 542.835L605.778 527.389C583.524 517.633 557.657 527.944 548.001 550.418C538.345 572.893 548.558 599.02 570.811 608.775L606.047 624.222Z" fill="#EF948C"/>
<path d="M548.006 550.373C549.58 546.72 551.626 543.294 554.091 540.185C550.952 550.597 551.722 561.813 556.252 571.69C560.783 581.566 568.757 589.41 578.651 593.722L582.937 595.59L599.63 602.909L611.8 626.222L684.285 765.169C687.714 771.746 692.71 777.358 698.821 781.499C704.932 785.64 711.967 788.181 719.293 788.892C726.618 789.602 734.003 788.461 740.783 785.571C747.563 782.681 753.525 778.132 758.131 772.335C755.573 780.827 750.575 788.361 743.77 793.978C736.966 799.596 728.663 803.045 719.915 803.887C711.166 804.73 702.368 802.928 694.635 798.71C686.903 794.492 680.585 788.048 676.485 780.197L591.847 617.936L570.851 608.733C565.551 606.424 560.754 603.081 556.736 598.896C552.717 594.71 549.556 589.765 547.434 584.343C545.312 578.921 544.27 573.13 544.368 567.3C544.466 561.471 545.702 555.718 548.006 550.373V550.373Z" fill="#EA8681"/>
<path d="M620.575 568.847C628.623 572.375 637.979 568.645 641.472 560.515C644.964 552.386 641.271 542.935 633.223 539.407L551.634 503.641C543.586 500.113 534.23 503.843 530.737 511.972C527.244 520.102 530.937 529.552 538.985 533.08L620.575 568.847Z" fill="#EF948C"/>
<path d="M626.316 565.962C631.169 573.345 641.029 575.355 648.337 570.452C655.645 565.549 657.635 555.59 652.781 548.208L625.411 506.58C620.557 499.198 610.698 497.188 603.39 502.091C596.082 506.994 594.092 516.953 598.946 524.335L626.316 565.962Z" fill="#EF948C"/>
<path d="M630.022 599.243C647.308 599.243 661.322 585.087 661.322 567.626C661.322 550.165 647.308 536.009 630.022 536.009C612.735 536.009 598.721 550.165 598.721 567.626C598.721 585.087 612.735 599.243 630.022 599.243Z" fill="#EF948C"/>
<path d="M887.685 759.634C934.16 759.634 971.836 721.577 971.836 674.632C971.836 627.687 934.16 589.63 887.685 589.63C841.21 589.63 803.534 627.687 803.534 674.632C803.534 721.577 841.21 759.634 887.685 759.634Z" fill="#F2E6D7"/>
<path d="M855.287 701.647L861.372 972.476C862.476 1021.6 902.797 1060.52 951.432 1059.41L1029.06 1057.63C1077.69 1056.52 1116.22 1015.79 1115.12 966.66L1109.04 695.831C1107.93 646.704 1067.61 607.782 1018.98 608.897L941.351 610.676C892.716 611.791 854.184 652.52 855.287 701.647Z" fill="#FAEEDE"/>
<path d="M819.643 670.884C819.145 645.71 828.567 621.368 845.837 603.211C863.107 585.054 886.81 574.571 911.732 574.068L1053.15 571.211C1078.08 570.707 1102.18 580.225 1120.15 597.669C1138.12 615.114 1148.5 639.056 1149 664.23C1149.41 684.796 1145.8 705.242 1138.39 724.4C1130.97 743.557 1119.89 761.052 1105.78 775.885C1091.68 790.718 1074.81 802.599 1056.16 810.849C1037.5 819.1 1017.42 823.558 997.064 823.969L977.766 824.359C936.65 825.185 896.893 809.48 867.239 780.698C837.586 751.917 820.465 712.416 819.643 670.884V670.884Z" fill="#FAEEDE"/>
<path d="M994.429 822.291H994.58C1035.68 821.347 1074.72 803.954 1103.13 773.937C1131.53 743.919 1146.98 703.735 1146.06 662.221C1145.49 637.054 1135.05 613.144 1117.04 595.751C1099.02 578.358 1074.9 568.907 1049.99 569.476L908.597 572.719C902.137 572.862 895.709 573.681 889.417 575.164L1025.14 572.04H1027.33C1051.86 572.051 1075.42 581.753 1092.96 599.074C1110.51 616.394 1120.65 639.959 1121.23 664.734C1122.06 701.928 1109.76 738.207 1086.52 767.075C1063.29 795.944 1030.64 815.517 994.429 822.291V822.291Z" fill="#FFF7EE"/>
<path d="M931.863 503.339L933.679 584.232C933.934 596.345 938.881 607.875 947.458 616.345C956.035 624.815 967.558 629.55 979.553 629.534H980.595C986.622 629.395 992.562 628.058 998.076 625.599C1003.59 623.14 1008.57 619.607 1012.73 615.203C1016.89 610.799 1020.16 605.609 1022.33 599.93C1024.51 594.252 1025.55 588.196 1025.41 582.109L1024.81 554.398L1023.6 501.233C1023.33 489.124 1018.38 477.602 1009.8 469.135C1001.23 460.667 989.712 455.928 977.721 455.931H976.662C964.5 456.224 952.951 461.382 944.551 470.271C936.151 479.16 931.588 491.054 931.863 503.339V503.339Z" fill="#EF948C"/>
<path d="M640.891 990.191L641.051 997.304C641.91 1035.52 673.274 1065.79 711.105 1064.93L1048.63 1057.19C1086.46 1056.32 1116.43 1024.64 1115.58 986.427L1115.42 979.314C1114.56 941.1 1083.19 910.824 1045.36 911.692L707.837 919.429C670.005 920.296 640.033 951.977 640.891 990.191Z" fill="#332D52"/>
<path d="M971.838 989.763V1424.26H1115.93V989.763C1115.93 970.461 1108.34 951.95 1094.83 938.302C1081.32 924.654 1062.99 916.986 1043.89 916.986C1024.78 916.986 1006.45 924.654 992.94 938.302C979.428 951.95 971.838 970.461 971.838 989.763V989.763Z" fill="#666DA2"/>
<path d="M971.838 989.763V1424.26H1009.31V1055.88C1009.31 1043.25 1012.57 1030.84 1018.76 1019.87C1024.96 1008.89 1033.87 999.736 1044.62 993.295C1055.38 986.855 1067.61 983.352 1080.11 983.131C1092.62 982.911 1104.96 985.98 1115.93 992.038V989.763C1115.93 970.461 1108.34 951.95 1094.83 938.302C1081.32 924.654 1062.99 916.986 1043.89 916.986C1024.78 916.986 1006.45 924.654 992.94 938.302C979.428 951.95 971.838 970.461 971.838 989.763Z" fill="#555A8B"/>
<path d="M971.838 1361.68V1424.27H1115.93V1384.53L971.838 1361.68Z" fill="#141334"/>
<path d="M495.408 1375.52L623.853 1427.53L638.36 1389.54L779.816 1019.38C783.223 1010.46 784.856 1000.95 784.624 991.392C784.392 981.835 782.298 972.418 778.463 963.678C774.628 954.938 769.126 947.047 762.271 940.455C755.417 933.863 747.344 928.699 738.514 925.259C729.684 921.818 720.27 920.168 710.808 920.402C701.347 920.637 692.024 922.752 683.371 926.626C674.719 930.5 666.907 936.057 660.381 942.981C653.855 949.905 648.743 958.059 645.336 966.978L512.789 1314.02L495.458 1359.3L495.408 1375.52Z" fill="#332D52"/>
<path d="M582.24 1486.08L481.421 1446.77L502.744 1390.98L603.563 1430.29L582.24 1486.08Z" fill="#EA8681"/>
<path d="M1097.93 1491.51H989.858V1435.61H1097.93V1491.51Z" fill="#EF948C"/>
<path d="M931.863 503.337L933.678 584.23C933.765 588.474 934.432 592.685 935.662 596.744H939.024C955.574 596.753 971.907 592.932 986.768 585.573C1001.63 578.214 1014.62 567.514 1024.75 554.294L1023.54 501.13C1023.28 489.02 1018.32 477.498 1009.75 469.031C1001.18 460.564 989.661 455.824 977.67 455.827H976.661C970.63 455.973 964.687 457.317 959.171 459.784C953.655 462.251 948.675 465.792 944.514 470.204C940.354 474.616 937.095 479.814 934.924 485.499C932.753 491.184 931.713 497.246 931.863 503.337V503.337Z" fill="#EA8681"/>
<path d="M852.267 465.441C852.268 493.467 862.896 520.429 881.967 540.786C901.038 561.143 927.104 573.348 954.808 574.894C956.741 574.996 958.674 575.046 960.641 575.046C975.003 575.227 989.258 572.526 1002.58 567.099C1015.9 561.672 1028.02 553.628 1038.24 543.433C1048.46 533.238 1056.57 521.095 1062.11 507.708C1067.65 494.322 1070.5 479.958 1070.5 465.449C1070.5 450.941 1067.65 436.577 1062.11 423.19C1056.57 409.803 1048.46 397.66 1038.24 387.465C1028.02 377.27 1015.9 369.226 1002.58 363.799C989.258 358.373 975.003 355.671 960.641 355.852C958.674 355.852 956.741 355.852 954.808 356.005C927.106 357.546 901.04 369.747 881.968 390.101C862.897 410.455 852.268 437.415 852.267 465.441V465.441Z" fill="#EF948C"/>
<path d="M915.994 495.018C915.998 498.231 916.629 501.412 917.852 504.378C919.075 507.344 920.866 510.038 923.121 512.303C923.676 512.864 924.265 513.39 924.802 513.883C929.143 517.493 934.595 519.457 940.217 519.435H941.209C947.284 519.408 953.127 517.08 957.585 512.911C962.042 508.742 964.788 503.035 965.281 496.919C965.281 496.24 965.281 495.561 965.281 494.882C965.286 494.252 965.167 493.627 964.931 493.044C964.694 492.46 964.344 491.931 963.902 491.486C963.007 490.595 961.797 490.101 960.54 490.11L920.499 490.212C919.276 490.261 918.12 490.791 917.278 491.689C916.436 492.587 915.975 493.781 915.994 495.018V495.018Z" fill="#962F4A"/>
<path d="M940.756 515.665C940.759 516.931 940.883 518.193 941.125 519.435H941.26C947.337 519.416 953.185 517.09 957.644 512.92C962.103 508.749 964.847 503.038 965.332 496.919C963.59 496.404 961.784 496.147 959.97 496.155C957.44 496.162 954.936 496.672 952.601 497.656C950.267 498.64 948.147 500.079 946.362 501.89C944.578 503.702 943.165 505.851 942.203 508.214C941.241 510.578 940.749 513.11 940.756 515.665V515.665Z" fill="#E1617F"/>
<path d="M921.559 490.263C921.76 495.068 929.106 498.889 938.117 498.872C947.127 498.855 954.439 494.984 954.607 490.178L921.559 490.263Z" fill="white"/>
<path d="M852.267 465.439C852.268 493.466 862.896 520.428 881.967 540.785C901.038 561.141 927.104 573.347 954.808 574.892C957.8 574.722 960.776 574.451 963.717 574.026C937.74 570.423 913.933 557.44 896.699 537.478C879.464 517.516 869.969 491.925 869.969 465.439C869.969 438.952 879.464 413.362 896.699 393.4C913.933 373.438 937.74 360.455 963.717 356.852C960.776 356.444 957.8 356.156 954.808 356.003C927.106 357.544 901.04 369.746 881.968 390.1C862.897 410.454 852.268 437.414 852.267 465.439V465.439Z" fill="#EA8681"/>
<path d="M1050.29 660.387V661.525C1051.35 697.726 1075.25 726.422 1104.43 726.864H1106.32C1136.68 726.066 1160.78 694.975 1160.11 657.45C1159.77 636.666 1155.4 619.856 1143.3 607.715C1136.06 600.974 1127.46 595.904 1118.08 592.858C1110.43 590.567 1102.31 590.356 1094.55 592.246C1068.93 598.495 1049.75 626.869 1050.29 660.387Z" fill="#FAEEDE"/>
<path d="M1048.12 658.976V660.131C1049.04 686.263 1061.79 708.609 1079.87 719.561C1070.44 706.775 1065.16 691.353 1064.75 675.413C1064.75 675.022 1064.75 674.649 1064.75 674.258C1064.02 640.196 1083.64 611.432 1110.13 605.252C1113.34 604.481 1116.62 604.06 1119.92 603.995C1124.85 603.896 1129.76 604.566 1134.49 605.982C1138.62 607.223 1142.57 608.992 1146.26 611.246C1139.2 601.521 1129.25 594.324 1117.86 590.7C1109.95 588.312 1101.55 588.06 1093.51 589.97C1067 596.201 1047.38 624.864 1048.12 658.976Z" fill="#F2E6D7"/>
<path d="M1168.05 640.681C1155.55 613.52 1123.62 601.736 1096.73 614.361C1069.84 626.986 1058.18 659.24 1070.68 686.402L1143.14 843.876C1155.64 871.038 1187.57 882.822 1214.46 870.196C1241.35 857.571 1253.02 825.317 1240.52 798.155L1168.05 640.681Z" fill="#FAEEDE"/>
<path d="M1188 878.258C1219.82 878.258 1245.62 852.197 1245.62 820.051C1245.62 787.904 1219.82 761.843 1188 761.843C1156.17 761.843 1130.37 787.904 1130.37 820.051C1130.37 852.197 1156.17 878.258 1188 878.258Z" fill="#F2E6D7"/>
<path d="M1168.05 640.681C1155.55 613.52 1123.62 601.736 1096.73 614.361C1069.84 626.986 1058.18 659.24 1070.68 686.402L1143.14 843.876C1155.64 871.038 1187.57 882.822 1214.46 870.196C1241.35 857.571 1253.02 825.317 1240.52 798.155L1168.05 640.681Z" fill="#FAEEDE"/>
<path d="M1068.63 645.852C1073.79 637.624 1081.05 630.952 1089.64 626.536C1098.24 622.12 1107.85 620.124 1117.47 620.756C1127.09 621.388 1136.37 624.626 1144.32 630.13C1152.28 635.633 1158.62 643.199 1162.68 652.033L1235.13 809.505C1241.01 822.237 1241.76 836.776 1237.22 850.053C1242.67 841.363 1245.59 831.292 1245.62 821.001C1245.61 813.118 1243.89 805.333 1240.58 798.197L1168.13 640.724C1163.63 630.916 1156.33 622.691 1147.17 617.105C1138 611.518 1127.4 608.826 1116.71 609.374C1106.02 609.921 1095.74 613.684 1087.18 620.178C1078.63 626.672 1072.19 635.601 1068.7 645.818L1068.63 645.852Z" fill="#FFF7EE"/>
<path d="M1188 878.258C1219.82 878.258 1245.62 852.197 1245.62 820.051C1245.62 787.904 1219.82 761.843 1188 761.843C1156.17 761.843 1130.37 787.904 1130.37 820.051C1130.37 852.197 1156.17 878.258 1188 878.258Z" fill="#F2E6D7"/>
<path d="M876.724 440.307H1038.64C1067.34 440.307 1090.61 416.801 1090.61 387.804C1090.61 358.808 1067.34 335.302 1038.64 335.302H876.724C848.018 335.302 824.748 358.808 824.748 387.804C824.748 416.801 848.018 440.307 876.724 440.307Z" fill="#332D52"/>
<path d="M1060.27 490.976C1085.04 490.976 1105.12 470.693 1105.12 445.673C1105.12 420.653 1085.04 400.371 1060.27 400.371C1035.51 400.371 1015.43 420.653 1015.43 445.673C1015.43 470.693 1035.51 490.976 1060.27 490.976Z" fill="#332D52"/>
<path d="M1068.29 490.975C1088.63 490.975 1105.12 474.319 1105.12 453.772C1105.12 433.225 1088.63 416.569 1068.29 416.569C1047.95 416.569 1031.46 433.225 1031.46 453.772C1031.46 474.319 1047.95 490.975 1068.29 490.975Z" fill="#49466B"/>
<path d="M1069.17 501.777C1089.03 501.777 1105.12 485.516 1105.12 465.457C1105.12 445.398 1089.03 429.137 1069.17 429.137C1049.31 429.137 1033.21 445.398 1033.21 465.457C1033.21 485.516 1049.31 501.777 1069.17 501.777Z" fill="#EF948C"/>
<path d="M1066.34 476.766V454.114C1066.34 453.548 1066.48 452.991 1066.73 452.487C1066.99 451.983 1067.36 451.548 1067.81 451.217C1068.27 450.885 1068.79 450.667 1069.35 450.581C1069.9 450.494 1070.47 450.541 1071 450.718C1074.09 451.72 1076.79 453.687 1078.7 456.338C1080.62 458.988 1081.65 462.184 1081.65 465.465C1081.65 468.746 1080.62 471.943 1078.7 474.593C1076.79 477.244 1074.09 479.211 1071 480.213C1070.46 480.387 1069.89 480.431 1069.34 480.34C1068.78 480.249 1068.25 480.026 1067.8 479.69C1067.34 479.353 1066.98 478.913 1066.72 478.405C1066.47 477.896 1066.34 477.335 1066.34 476.766V476.766Z" fill="#EA8681"/>
<path d="M884.677 441.244C922.62 441.244 953.38 410.173 953.38 371.846C953.38 333.519 922.62 302.449 884.677 302.449C846.734 302.449 815.974 333.519 815.974 371.846C815.974 410.173 846.734 441.244 884.677 441.244Z" fill="#332D52"/>
<path d="M822.228 371.863C822.221 380.076 823.938 388.197 827.266 395.691C830.594 403.184 835.457 409.88 841.535 415.335C847.613 420.791 854.767 424.883 862.525 427.341C870.283 429.799 878.469 430.567 886.543 429.594C872.572 427.914 859.696 421.116 850.353 410.489C841.011 399.862 835.852 386.143 835.852 371.93C835.852 357.718 841.011 343.999 850.353 333.372C859.696 322.745 872.572 315.947 886.543 314.266C878.469 313.294 870.283 314.062 862.525 316.52C854.767 318.978 847.613 323.07 841.535 328.526C835.457 333.981 830.594 340.677 827.266 348.17C823.938 355.664 822.221 363.785 822.228 371.998V371.863Z" fill="#49466B"/>
<path d="M939.075 377.617C965.181 377.617 986.345 356.239 986.345 329.869C986.345 303.499 965.181 282.121 939.075 282.121C912.969 282.121 891.805 303.499 891.805 329.869C891.805 356.239 912.969 377.617 939.075 377.617Z" fill="#332D52"/>
<path d="M886.543 456.861C886.663 460.196 888.059 463.354 890.437 465.67C892.815 467.987 895.99 469.281 899.294 469.281C902.597 469.281 905.772 467.987 908.15 465.67C910.528 463.354 911.924 460.196 912.044 456.861C912.048 455.854 911.929 454.85 911.691 453.873C911.028 456.691 909.444 459.201 907.195 460.997C904.945 462.793 902.161 463.77 899.294 463.77C896.426 463.77 893.642 462.793 891.393 460.997C889.143 459.201 887.559 456.691 886.896 453.873C886.658 454.85 886.54 455.854 886.543 456.861V456.861Z" fill="#332D52"/>
<path d="M956.591 456.861C956.591 460.279 957.935 463.557 960.328 465.974C962.72 468.391 965.966 469.749 969.349 469.749C972.733 469.749 975.979 468.391 978.371 465.974C980.764 463.557 982.108 460.279 982.108 456.861C982.112 455.854 981.993 454.85 981.755 453.873C981.086 456.687 979.498 459.192 977.248 460.984C974.997 462.775 972.215 463.75 969.349 463.75C966.484 463.75 963.702 462.775 961.451 460.984C959.201 459.192 957.613 456.687 956.944 453.873C956.705 454.85 956.587 455.854 956.591 456.861V456.861Z" fill="#332D52"/>
<path d="M971.854 1519.27H1109.16C1109.16 1500.87 1101.93 1483.24 1089.05 1470.23C1076.18 1457.23 1058.71 1449.92 1040.51 1449.92C1022.3 1449.92 1004.84 1457.23 991.962 1470.23C979.087 1483.24 971.854 1500.87 971.854 1519.27Z" fill="#332D52"/>
<path d="M971.854 1519.27H1003.56C1003.57 1504.17 1008.26 1489.46 1016.98 1477.2C1025.7 1464.94 1038.01 1455.75 1052.17 1450.92C1042.32 1449.23 1032.21 1449.72 1022.57 1452.37C1012.92 1455.03 1003.96 1459.77 996.317 1466.28C988.671 1472.78 982.522 1480.89 978.297 1490.05C974.072 1499.2 971.873 1509.17 971.854 1519.27V1519.27Z" fill="#49466B"/>
<path d="M952.841 1506.72C952.847 1508.08 952.982 1509.43 953.244 1510.76C953.373 1511.41 953.536 1512.05 953.732 1512.68C953.921 1513.3 954.145 1513.91 954.404 1514.51C955.142 1516.3 956.139 1517.96 957.363 1519.45C957.766 1519.95 958.187 1520.4 958.64 1520.86C959.087 1521.31 959.558 1521.74 960.052 1522.14C963.596 1525.09 968.048 1526.71 972.643 1526.7H1119.16C1123.06 1526.71 1126.8 1525.18 1129.59 1522.44C1132.38 1519.69 1134 1515.95 1134.1 1512.02C1134.19 1508.08 1132.76 1504.27 1130.11 1501.38C1127.46 1498.5 1123.79 1496.78 1119.9 1496.6L1010.06 1489.14L973.601 1486.7C970.319 1486.53 967.048 1487.19 964.087 1488.63C963.227 1489.06 962.396 1489.54 961.599 1490.08C960.823 1490.6 960.076 1491.17 959.363 1491.78C958.657 1492.42 957.999 1493.12 957.396 1493.86C956.993 1494.36 956.606 1494.87 956.253 1495.39C954.982 1497.29 954.049 1499.39 953.496 1501.61C953.326 1502.24 953.192 1502.89 953.093 1503.54C952.927 1504.59 952.842 1505.65 952.841 1506.72Z" fill="#332D52"/>
<path d="M952.841 1506.72C952.847 1508.08 952.982 1509.43 953.244 1510.76C953.365 1511.41 953.528 1512.05 953.732 1512.68C953.913 1513.31 954.138 1513.92 954.404 1514.52C955.142 1516.3 956.139 1517.97 957.363 1519.46C957.766 1519.95 958.187 1520.41 958.64 1520.87C959.087 1521.32 959.558 1521.74 960.052 1522.14C963.596 1525.1 968.048 1526.71 972.643 1526.71H1019.63C1015.23 1526.71 1010.96 1525.24 1007.49 1522.52C1004.01 1519.8 1001.53 1515.99 1000.43 1511.69C999.338 1507.39 999.689 1502.85 1001.43 1498.77C1003.18 1494.7 1006.21 1491.32 1010.06 1489.18L973.601 1486.74C970.319 1486.57 967.048 1487.23 964.087 1488.67C962.369 1489.51 960.779 1490.59 959.363 1491.88C958.657 1492.53 957.999 1493.23 957.396 1493.97C956.986 1494.46 956.605 1494.97 956.253 1495.5C954.982 1497.39 954.049 1499.49 953.496 1501.71C953.326 1502.35 953.192 1503 953.093 1503.65C952.932 1504.66 952.847 1505.69 952.841 1506.72V1506.72Z" fill="#49466B"/>
<path d="M587.891 1503.57L477.571 1456.73L495.055 1414.72L587.445 1453.95C592.2 1455.96 595.967 1459.81 597.916 1464.63C599.865 1469.46 599.837 1474.87 597.838 1479.67L587.891 1503.57Z" fill="#49466B"/>
<path d="M394.211 1436.29L520.791 1490.03C527.846 1473.07 527.944 1453.98 521.064 1436.95C514.184 1419.93 500.888 1406.36 484.103 1399.23C467.317 1392.1 448.417 1392 431.559 1398.95C414.701 1405.9 401.267 1419.33 394.211 1436.29V1436.29Z" fill="#332D52"/>
<path d="M394.211 1436.29L429.781 1451.38C435.531 1437.56 445.562 1425.99 458.369 1418.41C471.177 1410.83 486.071 1407.65 500.82 1409.34C492.544 1402.55 482.816 1397.79 472.405 1395.46C461.995 1393.12 451.189 1393.27 440.844 1395.88C430.499 1398.5 420.899 1403.51 412.804 1410.52C404.71 1417.54 398.344 1426.36 394.211 1436.29Z" fill="#49466B"/>
<path d="M596.268 1497.48L414.434 1409.58C412.016 1408.41 409.389 1407.75 406.711 1407.64C404.033 1407.53 401.36 1407.97 398.855 1408.93C396.35 1409.89 394.064 1411.35 392.136 1413.24C390.208 1415.12 388.678 1417.37 387.639 1419.87C386.63 1422.29 386.103 1424.89 386.088 1427.52C386.073 1430.14 386.571 1432.75 387.552 1435.18C388.534 1437.61 389.981 1439.83 391.81 1441.7C393.639 1443.56 395.815 1445.05 398.213 1446.07L584.047 1524.97C587.694 1526.52 591.8 1526.54 595.462 1525.03C599.125 1523.52 602.045 1520.61 603.58 1516.93C605.066 1513.36 605.135 1509.35 603.774 1505.73C602.412 1502.11 599.725 1499.16 596.268 1497.48V1497.48Z" fill="#332D52"/>
<path d="M387.638 1419.88C385.604 1424.77 385.576 1430.28 387.559 1435.19C389.541 1440.1 393.373 1444.01 398.211 1446.07L441.514 1464.46C437.359 1462.69 433.924 1459.55 431.778 1455.54C429.632 1451.54 428.902 1446.91 429.709 1442.44C430.517 1437.96 432.813 1433.89 436.218 1430.91C439.624 1427.92 443.935 1426.2 448.439 1426.03L414.449 1409.58C412.03 1408.41 409.4 1407.75 406.719 1407.63C404.039 1407.52 401.363 1407.96 398.856 1408.92C396.349 1409.89 394.061 1411.36 392.133 1413.24C390.204 1415.12 388.675 1417.38 387.638 1419.88V1419.88Z" fill="#49466B"/>
<path d="M1188.01 901.961L1199.36 934.631L1219.31 992.176L1404.8 1526.79H1446.16L1303.99 992.176L1288.69 934.631L1280 901.961H1188.01Z" fill="#441242"/>
<path d="M1199.36 934.63L1219.31 992.175H1303.99L1288.69 934.63H1199.36Z" fill="#2F073A"/>
<path d="M595.511 901.961L584.164 934.631L564.211 992.176L378.729 1526.79H337.36L479.539 992.176L494.836 934.631L503.527 901.961H595.511Z" fill="#441242"/>
<path d="M584.164 934.63L564.211 992.175H479.538L494.836 934.63H584.164Z" fill="#2F073A"/>
<path d="M1396.09 959.503H410.735C404.199 959.503 397.931 956.881 393.31 952.213C388.688 947.544 386.092 941.213 386.092 934.611V901.975H1420.75V934.594C1420.75 937.866 1420.11 941.106 1418.87 944.129C1417.64 947.152 1415.82 949.899 1413.53 952.213C1411.24 954.526 1408.52 956.361 1405.53 957.612C1402.53 958.863 1399.33 959.506 1396.09 959.503V959.503Z" fill="#441242"/>
<path d="M284.425 917.326H1522.4C1534.88 917.326 1544.99 907.109 1544.99 894.505C1544.99 881.901 1534.88 871.684 1522.4 871.684H284.425C271.948 871.684 261.833 881.901 261.833 894.505C261.833 907.109 271.948 917.326 284.425 917.326Z" fill="#D8BA9F"/>
<path d="M261.832 894.506C261.837 900.557 264.218 906.359 268.454 910.638C272.69 914.917 278.434 917.322 284.425 917.327H1522.4C1528.39 917.327 1534.14 914.923 1538.37 910.643C1542.61 906.363 1544.99 900.558 1544.99 894.506C1545 891.811 1544.52 889.136 1543.59 886.61C1542 890.987 1539.11 894.763 1535.32 897.429C1531.52 900.095 1527.02 901.522 1522.4 901.518H284.425C281.458 901.522 278.519 900.933 275.778 899.785C273.038 898.637 270.549 896.952 268.455 894.828C266.137 892.513 264.357 889.705 263.244 886.61C262.31 889.135 261.832 891.81 261.832 894.506V894.506Z" fill="#C89F87"/>
<path d="M1383.26 946.261C1387.88 946.261 1391.62 942.483 1391.62 937.822C1391.62 933.162 1387.88 929.383 1383.26 929.383C1378.65 929.383 1374.91 933.162 1374.91 937.822C1374.91 942.483 1378.65 946.261 1383.26 946.261Z" fill="#D8BA9F"/>
<path d="M1381.45 948.67C1387.07 948.67 1391.63 944.063 1391.63 938.381C1391.63 932.698 1387.07 928.091 1381.45 928.091C1375.82 928.091 1371.26 932.698 1371.26 938.381C1371.26 944.063 1375.82 948.67 1381.45 948.67Z" fill="#2F073A"/>
<path d="M1383.26 946.261C1387.88 946.261 1391.62 942.483 1391.62 937.822C1391.62 933.162 1387.88 929.383 1383.26 929.383C1378.65 929.383 1374.91 933.162 1374.91 937.822C1374.91 942.483 1378.65 946.261 1383.26 946.261Z" fill="#D8BA9F"/>
<path d="M1374.91 937.824C1374.91 940.076 1375.79 942.235 1377.37 943.827C1378.95 945.42 1381.08 946.314 1383.31 946.314H1384.19C1382.2 946.013 1380.38 945 1379.06 943.459C1377.75 941.918 1377.02 939.952 1377.02 937.918C1377.02 935.883 1377.75 933.917 1379.06 932.376C1380.38 930.835 1382.2 929.822 1384.19 929.521C1383.9 929.504 1383.6 929.504 1383.31 929.521C1381.12 929.52 1379 930.389 1377.43 931.941C1375.86 933.493 1374.96 935.605 1374.91 937.824Z" fill="#C89F87"/>
<path d="M1383.26 942.391C1383.69 942.528 1384.13 942.597 1384.57 942.595C1385.84 942.595 1387.05 942.087 1387.95 941.183C1388.84 940.278 1389.35 939.052 1389.35 937.773C1389.35 936.494 1388.84 935.267 1387.95 934.363C1387.05 933.458 1385.84 932.95 1384.57 932.95C1384.13 932.949 1383.69 933.017 1383.26 933.154C1384.26 933.431 1385.15 934.033 1385.78 934.868C1386.41 935.702 1386.75 936.723 1386.75 937.773C1386.75 938.822 1386.41 939.843 1385.78 940.678C1385.15 941.512 1384.26 942.114 1383.26 942.391V942.391Z" fill="#F5EAE4"/>
<path d="M1336.53 946.261C1341.14 946.261 1344.88 942.483 1344.88 937.822C1344.88 933.162 1341.14 929.383 1336.53 929.383C1331.91 929.383 1328.17 933.162 1328.17 937.822C1328.17 942.483 1331.91 946.261 1336.53 946.261Z" fill="#D8BA9F"/>
<path d="M1334.71 948.67C1340.34 948.67 1344.9 944.063 1344.9 938.381C1344.9 932.698 1340.34 928.091 1334.71 928.091C1329.09 928.091 1324.53 932.698 1324.53 938.381C1324.53 944.063 1329.09 948.67 1334.71 948.67Z" fill="#2F073A"/>
<path d="M1336.53 946.261C1341.14 946.261 1344.88 942.483 1344.88 937.822C1344.88 933.162 1341.14 929.383 1336.53 929.383C1331.91 929.383 1328.17 933.162 1328.17 937.822C1328.17 942.483 1331.91 946.261 1336.53 946.261Z" fill="#D8BA9F"/>
<path d="M1328.19 937.825C1328.19 940.076 1329.08 942.236 1330.65 943.828C1332.23 945.42 1334.37 946.315 1336.6 946.315H1337.47C1335.48 946.014 1333.66 945.001 1332.35 943.46C1331.03 941.919 1330.31 939.952 1330.31 937.918C1330.31 935.884 1331.03 933.917 1332.35 932.376C1333.66 930.835 1335.48 929.822 1337.47 929.521C1337.18 929.504 1336.89 929.504 1336.6 929.521C1334.4 929.521 1332.29 930.39 1330.72 931.942C1329.15 933.494 1328.24 935.605 1328.19 937.825Z" fill="#C89F87"/>
<path d="M1336.53 942.391C1336.95 942.528 1337.4 942.597 1337.84 942.595C1339.11 942.595 1340.32 942.087 1341.22 941.183C1342.11 940.278 1342.61 939.052 1342.61 937.773C1342.61 936.494 1342.11 935.267 1341.22 934.363C1340.32 933.458 1339.11 932.95 1337.84 932.95C1337.4 932.949 1336.95 933.017 1336.53 933.154C1337.53 933.431 1338.42 934.033 1339.05 934.868C1339.68 935.702 1340.02 936.723 1340.02 937.773C1340.02 938.822 1339.68 939.843 1339.05 940.678C1338.42 941.512 1337.53 942.114 1336.53 942.391V942.391Z" fill="#F5EAE4"/>
<path d="M428.066 946.261C432.681 946.261 436.421 942.483 436.421 937.822C436.421 933.162 432.681 929.383 428.066 929.383C423.452 929.383 419.712 933.162 419.712 937.822C419.712 942.483 423.452 946.261 428.066 946.261Z" fill="#D8BA9F"/>
<path d="M429.882 948.67C435.508 948.67 440.069 944.063 440.069 938.381C440.069 932.698 435.508 928.091 429.882 928.091C424.256 928.091 419.695 932.698 419.695 938.381C419.695 944.063 424.256 948.67 429.882 948.67Z" fill="#2F073A"/>
<path d="M428.066 946.261C432.681 946.261 436.421 942.483 436.421 937.822C436.421 933.162 432.681 929.383 428.066 929.383C423.452 929.383 419.712 933.162 419.712 937.822C419.712 942.483 423.452 946.261 428.066 946.261Z" fill="#D8BA9F"/>
<path d="M436.421 937.824C436.421 940.076 435.535 942.235 433.959 943.827C432.383 945.42 430.245 946.314 428.015 946.314H427.141C429.133 946.013 430.951 945 432.266 943.459C433.58 941.918 434.303 939.952 434.303 937.918C434.303 935.883 433.58 933.917 432.266 932.376C430.951 930.835 429.133 929.822 427.141 929.521C427.432 929.504 427.724 929.504 428.015 929.521C430.213 929.52 432.323 930.389 433.894 931.941C435.465 933.493 436.372 935.605 436.421 937.824V937.824Z" fill="#C89F87"/>
<path d="M428.066 942.391C427.642 942.528 427.2 942.597 426.755 942.595C425.489 942.595 424.274 942.087 423.379 941.183C422.484 940.278 421.981 939.052 421.981 937.773C421.981 936.494 422.484 935.267 423.379 934.363C424.274 933.458 425.489 932.95 426.755 932.95C427.2 932.949 427.642 933.017 428.066 933.154C427.073 933.442 426.201 934.048 425.579 934.882C424.958 935.715 424.622 936.73 424.622 937.773C424.622 938.816 424.958 939.83 425.579 940.664C426.201 941.497 427.073 942.103 428.066 942.391V942.391Z" fill="#F5EAE4"/>
<path d="M474.799 946.261C479.413 946.261 483.154 942.483 483.154 937.822C483.154 933.162 479.413 929.383 474.799 929.383C470.185 929.383 466.445 933.162 466.445 937.822C466.445 942.483 470.185 946.261 474.799 946.261Z" fill="#D8BA9F"/>
<path d="M476.615 948.67C482.241 948.67 486.801 944.063 486.801 938.381C486.801 932.698 482.241 928.091 476.615 928.091C470.989 928.091 466.428 932.698 466.428 938.381C466.428 944.063 470.989 948.67 476.615 948.67Z" fill="#2F073A"/>
<path d="M474.799 946.261C479.413 946.261 483.154 942.483 483.154 937.822C483.154 933.162 479.413 929.383 474.799 929.383C470.185 929.383 466.445 933.162 466.445 937.822C466.445 942.483 470.185 946.261 474.799 946.261Z" fill="#D8BA9F"/>
<path d="M483.137 937.824C483.137 940.076 482.251 942.235 480.675 943.827C479.099 945.42 476.961 946.314 474.732 946.314H473.858C475.849 946.013 477.668 945 478.982 943.459C480.296 941.918 481.019 939.952 481.019 937.918C481.019 935.883 480.296 933.917 478.982 932.376C477.668 930.835 475.849 929.822 473.858 929.521C474.149 929.504 474.441 929.504 474.732 929.521C476.929 929.52 479.04 930.389 480.611 931.941C482.182 933.493 483.088 935.605 483.137 937.824V937.824Z" fill="#C89F87"/>
<path d="M474.799 942.391C474.375 942.528 473.932 942.597 473.487 942.595C472.221 942.595 471.007 942.087 470.112 941.183C469.216 940.278 468.713 939.052 468.713 937.773C468.713 936.494 469.216 935.267 470.112 934.363C471.007 933.458 472.221 932.95 473.487 932.95C473.932 932.949 474.375 933.017 474.799 933.154C473.796 933.431 472.912 934.033 472.281 934.868C471.651 935.702 471.309 936.723 471.309 937.773C471.309 938.822 471.651 939.843 472.281 940.678C472.912 941.512 473.796 942.114 474.799 942.391V942.391Z" fill="#F5EAE4"/>
<path d="M983.04 817.189C991.777 816.381 998.211 808.572 997.411 799.746C996.611 790.921 988.881 784.422 980.144 785.23L930.878 789.785C922.141 790.593 915.707 798.402 916.507 807.227C917.307 816.052 925.037 822.551 933.774 821.744L983.04 817.189Z" fill="#EA8681"/>
<path d="M986.361 846.369C1003.65 846.369 1017.66 832.213 1017.66 814.752C1017.66 797.291 1003.65 783.135 986.361 783.135C969.074 783.135 955.06 797.291 955.06 814.752C955.06 832.213 969.074 846.369 986.361 846.369Z" fill="#EA8681"/>
<path d="M959.149 827.336L959.149 827.353C958.906 852.081 978.554 872.327 1003.03 872.573L1193.67 874.489C1218.15 874.735 1238.19 854.888 1238.43 830.16L1238.43 830.143C1238.68 805.415 1219.03 785.17 1194.55 784.924L1003.92 783.008C979.436 782.762 959.393 802.609 959.149 827.336Z" fill="#EF948C"/>
<path d="M1024.13 862.942C1043.2 847.796 1046.51 819.905 1031.51 800.646C1016.52 781.388 988.91 778.055 969.841 793.202L939.647 817.185C920.578 832.332 917.273 860.223 932.265 879.481C947.257 898.739 974.87 902.072 993.939 886.926L1024.13 862.942Z" fill="#EF948C"/>
<path d="M982.809 823.712C989.705 818.234 990.899 808.147 985.476 801.18C980.053 794.214 970.066 793.008 963.17 798.486L893.255 854.019C886.359 859.497 885.164 869.585 890.587 876.551C896.01 883.518 905.997 884.724 912.894 879.246L982.809 823.712Z" fill="#EF948C"/>
<path d="M983.04 817.191C991.777 816.383 998.211 808.574 997.411 799.749C996.612 790.924 988.881 784.424 980.144 785.232L930.878 789.787C922.142 790.595 915.707 798.404 916.507 807.229C917.307 816.055 925.038 822.554 933.774 821.746L983.04 817.191Z" fill="#EF948C"/>
<path d="M986.361 846.369C1003.65 846.369 1017.66 832.213 1017.66 814.752C1017.66 797.291 1003.65 783.135 986.361 783.135C969.074 783.135 955.06 797.291 955.06 814.752C955.06 832.213 969.074 846.369 986.361 846.369Z" fill="#EF948C"/>
<path d="M959.149 827.336L959.149 827.353C958.906 852.081 978.554 872.327 1003.03 872.573L1193.67 874.489C1218.15 874.735 1238.19 854.888 1238.43 830.16L1238.43 830.143C1238.68 805.415 1219.03 785.17 1194.55 784.924L1003.92 783.008C979.436 782.762 959.393 802.609 959.149 827.336Z" fill="#EF948C"/>
<path d="M1024.13 862.942C1043.2 847.796 1046.51 819.905 1031.51 800.646C1016.52 781.388 988.91 778.055 969.841 793.202L939.647 817.185C920.578 832.332 917.273 860.223 932.265 879.481C947.257 898.739 974.87 902.072 993.939 886.926L1024.13 862.942Z" fill="#EF948C"/>
<path d="M927.996 868.255C935.196 877.504 945.739 883.486 957.306 884.884C968.872 886.282 980.514 882.982 989.672 875.709L994.715 871.685L1007.62 861.497L1025.81 861.667L1189.17 863.365C1200.93 863.482 1212.25 858.878 1220.65 850.564C1229.05 842.25 1233.84 830.907 1233.96 819.03V818.436C1233.96 814.806 1233.52 811.191 1232.64 807.67C1236.4 814.37 1238.37 821.942 1238.36 829.643V830.101C1238.31 835.981 1237.11 841.793 1234.83 847.205C1232.55 852.618 1229.24 857.524 1225.09 861.644C1220.94 865.764 1216.02 869.017 1210.62 871.218C1205.22 873.418 1199.45 874.523 1193.63 874.47L1012.08 872.67L994.093 886.95C988.321 891.529 981.505 894.575 974.268 895.809C967.03 897.043 959.602 896.426 952.662 894.015C945.721 891.604 939.489 887.475 934.535 882.005C929.58 876.536 926.06 869.899 924.298 862.703C925.391 864.644 926.627 866.5 927.996 868.255V868.255Z" fill="#F3A6A0"/>
<path d="M982.811 823.712C989.707 818.234 990.902 808.147 985.479 801.18C980.056 794.214 970.069 793.008 963.172 798.486L893.258 854.019C886.361 859.497 885.167 869.585 890.59 876.552C896.013 883.518 906 884.724 912.896 879.246L982.811 823.712Z" fill="#EF948C"/>
<path d="M1001.9 849.312C1007.92 844.53 1008.96 835.723 1004.23 829.641C999.493 823.559 990.775 822.506 984.754 827.289L964.457 843.41C958.437 848.193 957.394 856.999 962.128 863.081C966.863 869.163 975.581 870.216 981.602 865.434L1001.9 849.312Z" fill="#F3A6A0"/>
<path d="M878.004 504.783C903.618 504.783 924.383 483.809 924.383 457.935C924.383 432.062 903.618 411.087 878.004 411.087C852.39 411.087 831.625 432.062 831.625 457.935C831.625 483.809 852.39 504.783 878.004 504.783Z" stroke="white" stroke-width="2.85" stroke-miterlimit="10"/>
<path d="M987.437 504.783C1013.05 504.783 1033.82 483.809 1033.82 457.935C1033.82 432.062 1013.05 411.087 987.437 411.087C961.823 411.087 941.058 432.062 941.058 457.935C941.058 483.809 961.823 504.783 987.437 504.783Z" stroke="white" stroke-width="2.85" stroke-miterlimit="10"/>
<path d="M924.349 459.771H941.092" stroke="white" stroke-width="2.85" stroke-miterlimit="10"/>
<path d="M495.408 1375.51L623.853 1427.52L638.36 1389.54L512.789 1314.01L495.458 1359.3L495.408 1375.51Z" fill="#141334"/>
<path d="M682.974 857.543H656.683V852.449C656.683 850.135 657.594 847.915 659.214 846.278C660.835 844.641 663.032 843.722 665.324 843.722H674.351C676.642 843.722 678.84 844.641 680.461 846.278C682.081 847.915 682.991 850.135 682.991 852.449V857.543H682.974Z" fill="#ABB2D8"/>
<path d="M709.264 857.544H682.973V852.45C682.987 850.147 683.901 847.943 685.516 846.318C687.131 844.692 689.317 843.778 691.597 843.773H700.624C702.915 843.773 705.113 844.693 706.734 846.33C708.354 847.966 709.264 850.186 709.264 852.501V857.595V857.544Z" fill="#ABB2D8"/>
<path d="M735.572 857.543H709.281V852.449C709.281 850.135 710.192 847.915 711.812 846.278C713.432 844.641 715.63 843.722 717.922 843.722H726.949C729.24 843.722 731.438 844.641 733.058 846.278C734.679 847.915 735.589 850.135 735.589 852.449V857.543H735.572Z" fill="#ABB2D8"/>
<path d="M761.863 857.543H735.572V852.449C735.572 850.135 736.482 847.915 738.103 846.278C739.723 844.641 741.921 843.722 744.213 843.722H753.24C755.531 843.722 757.729 844.641 759.349 846.278C760.97 847.915 761.88 850.135 761.88 852.449V857.543H761.863Z" fill="#ABB2D8"/>
<path d="M788.155 857.543H761.864V852.449C761.864 850.135 762.775 847.915 764.395 846.278C766.015 844.641 768.213 843.722 770.505 843.722H779.532C781.823 843.722 784.021 844.641 785.641 846.278C787.262 847.915 788.172 850.135 788.172 852.449V857.543H788.155Z" fill="#ABB2D8"/>
<path d="M814.461 857.543H788.171V852.449C788.171 850.135 789.081 847.915 790.701 846.278C792.322 844.641 794.519 843.722 796.811 843.722H805.821C808.113 843.722 810.31 844.641 811.931 846.278C813.551 847.915 814.461 850.135 814.461 852.449V857.543Z" fill="#ABB2D8"/>
<path d="M840.736 857.544H814.445V852.45C814.458 850.141 815.377 847.932 816.999 846.306C818.622 844.679 820.816 843.769 823.102 843.773H832.129C834.42 843.773 836.618 844.693 838.239 846.33C839.859 847.966 840.769 850.186 840.769 852.501V857.595L840.736 857.544Z" fill="#ABB2D8"/>
<path d="M586.282 871.684H864.991C870.905 871.684 875.699 866.841 875.699 860.868V860.851C875.699 854.877 870.905 850.035 864.991 850.035H586.282C580.368 850.035 575.574 854.877 575.574 860.851V860.868C575.574 866.841 580.368 871.684 586.282 871.684Z" fill="#5D6295"/>
<path d="M658.246 871.686H407.777C402.675 871.686 397.72 869.966 393.697 866.797C389.674 863.629 386.814 859.194 385.571 854.197L336.822 658.315C335.973 654.902 335.906 651.338 336.626 647.895C337.346 644.452 338.834 641.219 340.977 638.444C343.12 635.669 345.861 633.424 348.991 631.88C352.122 630.336 355.56 629.534 359.045 629.534H580.062C585.164 629.534 590.119 631.254 594.142 634.423C598.165 637.591 601.025 642.026 602.268 647.024L658.246 871.686Z" fill="#666DA2"/>
<path d="M336.805 658.313L385.554 854.195C386.803 859.194 389.666 863.629 393.691 866.8C397.716 869.971 402.673 871.695 407.777 871.701H658.246L652.85 850.051H454.996C449.891 850.049 444.933 848.325 440.908 845.154C436.882 841.983 434.02 837.546 432.773 832.545L383.974 636.749C383.394 634.414 383.172 632.003 383.318 629.6H359.028C355.551 629.603 352.12 630.404 348.996 631.944C345.871 633.484 343.134 635.723 340.993 638.489C338.852 641.256 337.362 644.479 336.636 647.914C335.911 651.348 335.968 654.905 336.805 658.313V658.313Z" fill="#5D6295"/>
<path d="M481.842 769.754C488.767 769.754 494.382 764.083 494.382 757.087C494.382 750.091 488.767 744.42 481.842 744.42C474.916 744.42 469.301 750.091 469.301 757.087C469.301 764.083 474.916 769.754 481.842 769.754Z" fill="#ABB2D8"/>
<path d="M465.066 775.986C467.045 779.111 469.693 781.748 472.814 783.703C475.936 785.658 479.452 786.881 483.103 787.281C486.755 787.682 490.449 787.25 493.913 786.017C497.377 784.785 500.524 782.783 503.121 780.16C505.718 777.537 507.7 774.358 508.92 770.859C510.14 767.359 510.567 763.628 510.171 759.94C509.774 756.252 508.564 752.7 506.628 749.547C504.693 746.393 502.082 743.719 498.988 741.72C501.985 746.485 503.284 752.139 502.672 757.75C502.061 763.361 499.574 768.594 495.622 772.585C491.67 776.577 486.49 779.089 480.935 779.707C475.38 780.325 469.783 779.013 465.066 775.986V775.986Z" fill="#ABB2D8"/>
<path d="M971.836 1435.93H1115.93L1130.62 1398.52L945.612 1369.18L971.836 1435.93Z" fill="#332D52"/>
<path d="M1103.96 1429.43C1108.93 1429.43 1112.96 1425.36 1112.96 1420.34C1112.96 1415.32 1108.93 1411.26 1103.96 1411.26C1099 1411.26 1094.97 1415.32 1094.97 1420.34C1094.97 1425.36 1099 1429.43 1103.96 1429.43Z" fill="#141334"/>
<path d="M1104.48 1429.43C1108.11 1429.43 1111.04 1426.46 1111.04 1422.81C1111.04 1419.15 1108.11 1416.18 1104.48 1416.18C1100.86 1416.18 1097.93 1419.15 1097.93 1422.81C1097.93 1426.46 1100.86 1429.43 1104.48 1429.43Z" fill="#666DA2"/>
<path d="M1104.42 1427.14C1104.71 1427.16 1105 1427.16 1105.29 1427.14C1106.41 1427.07 1107.45 1426.57 1108.22 1425.75C1108.98 1424.93 1109.41 1423.84 1109.41 1422.71C1109.41 1421.58 1108.98 1420.5 1108.22 1419.68C1107.45 1418.85 1106.41 1418.36 1105.29 1418.29C1105 1418.29 1104.7 1418.32 1104.42 1418.39C1105.4 1418.61 1106.27 1419.15 1106.9 1419.94C1107.53 1420.73 1107.87 1421.71 1107.87 1422.72C1107.87 1423.73 1107.53 1424.71 1106.9 1425.5C1106.27 1426.29 1105.4 1426.83 1104.42 1427.05V1427.14Z" fill="#332D52"/>
<path d="M1105.49 1417.27C1105.12 1417.19 1104.75 1417.15 1104.37 1417.15C1102.94 1417.23 1101.59 1417.86 1100.61 1418.91C1099.62 1419.96 1099.08 1421.35 1099.08 1422.8C1099.08 1424.24 1099.62 1425.63 1100.61 1426.68C1101.59 1427.73 1102.94 1428.36 1104.37 1428.44C1104.75 1428.45 1105.12 1428.41 1105.49 1428.32C1104.24 1428.05 1103.12 1427.35 1102.32 1426.35C1101.51 1425.34 1101.08 1424.09 1101.08 1422.8C1101.08 1421.51 1101.51 1420.25 1102.32 1419.25C1103.12 1418.24 1104.24 1417.54 1105.49 1417.27V1417.27Z" fill="#9DA5D1"/>
<path d="M484.65 1384.36L618.39 1438.51L645.807 1409.32L484.885 1312.55L484.65 1384.36Z" fill="#262344"/>
<path d="M613.733 1423.16C618.7 1423.16 622.726 1419.1 622.726 1414.08C622.726 1409.06 618.7 1404.99 613.733 1404.99C608.766 1404.99 604.74 1409.06 604.74 1414.08C604.74 1419.1 608.766 1423.16 613.733 1423.16Z" fill="#141334"/>
<path d="M614.254 1423.16C617.875 1423.16 620.81 1420.2 620.81 1416.54C620.81 1412.88 617.875 1409.92 614.254 1409.92C610.633 1409.92 607.698 1412.88 607.698 1416.54C607.698 1420.2 610.633 1423.16 614.254 1423.16Z" fill="#666DA2"/>
<path d="M614.255 1420.85C614.541 1420.92 614.834 1420.95 615.129 1420.95C616.243 1420.88 617.289 1420.39 618.054 1419.56C618.819 1418.74 619.245 1417.66 619.245 1416.53C619.245 1415.4 618.819 1414.32 618.054 1413.49C617.289 1412.67 616.243 1412.18 615.129 1412.11C614.838 1412.08 614.545 1412.08 614.255 1412.11C615.233 1412.32 616.108 1412.87 616.736 1413.66C617.364 1414.44 617.707 1415.42 617.707 1416.44C617.707 1417.45 617.364 1418.43 616.736 1419.22C616.108 1420 615.233 1420.55 614.255 1420.77V1420.85Z" fill="#332D52"/>
<path d="M615.246 1411.04C614.876 1410.96 614.498 1410.92 614.119 1410.92C612.69 1411 611.345 1411.63 610.361 1412.68C609.376 1413.73 608.828 1415.12 608.828 1416.57C608.828 1418.01 609.376 1419.4 610.361 1420.45C611.345 1421.5 612.69 1422.13 614.119 1422.21C614.498 1422.22 614.876 1422.18 615.246 1422.09C613.995 1421.82 612.874 1421.12 612.071 1420.12C611.267 1419.11 610.829 1417.86 610.829 1416.57C610.829 1415.27 611.267 1414.02 612.071 1413.01C612.874 1412.01 613.995 1411.31 615.246 1411.04V1411.04Z" fill="#9DA5D1"/>
</svg>
