<svg width="805" height="805" viewBox="0 0 805 805" fill="none" xmlns="http://www.w3.org/2000/svg">
<path d="M761.168 470.49C768.071 490.187 769.273 511.432 764.638 531.782C760.003 552.132 749.717 570.76 734.965 585.525C732.722 587.768 730.382 589.915 727.946 591.965C708.905 608.021 684.995 617.167 660.1 617.918C658.957 617.918 657.814 617.966 656.663 617.966H583.907C581.152 617.958 578.42 618.475 575.857 619.488C571.737 621.1 568.2 623.918 565.708 627.573C563.217 631.229 561.886 635.551 561.89 639.975V691.068C561.89 699.275 558.63 707.146 552.827 712.949C547.024 718.752 539.153 722.012 530.946 722.012H194.231V639.975C194.235 634.145 191.924 628.552 187.806 624.425C183.688 620.298 178.1 617.975 172.27 617.966H129.042C115.044 617.971 101.182 615.218 88.2484 609.864C75.3149 604.51 63.5632 596.659 53.6651 586.761C43.767 576.863 35.9165 565.111 30.5621 552.178C25.2077 539.244 22.4545 525.382 22.4598 511.384V503.004C22.3694 491.998 23.9213 481.039 27.0644 470.49C29.5107 462.422 33.0681 454.732 37.634 447.644C41.8363 441.147 46.8308 435.198 52.5024 429.934C54.8101 427.788 57.1902 425.756 59.6427 423.841C63.4097 420.909 67.3596 418.22 71.4682 415.791C72.8528 414.964 74.2401 414.159 75.63 413.376C75.7749 413.287 75.944 413.198 76.0969 413.118C84.7716 408.465 93.8891 404.689 103.314 401.848L103.845 401.695C108.002 400.452 111.891 398.449 115.317 395.786C118.993 392.926 122.069 389.37 124.369 385.32C126.669 381.27 128.147 376.806 128.72 372.184C128.902 370.731 128.99 369.268 128.985 367.804V333.189C128.985 332.296 128.985 331.41 129.058 330.533C129.486 322.382 131.875 314.456 136.022 307.426C140.169 300.396 145.951 294.471 152.878 290.154C154.433 289.175 156.046 288.291 157.708 287.506C159.905 286.43 162.182 285.526 164.518 284.801C168.695 283.488 173.024 282.722 177.398 282.523H177.616C178.324 282.523 179.04 282.474 179.749 282.474C180.497 282.474 181.246 282.474 181.979 282.41C182.711 282.346 183.242 282.33 183.854 282.257C190.476 281.555 196.81 279.174 202.256 275.341C207.702 271.508 212.079 266.35 214.976 260.353C215.434 259.435 215.837 258.502 216.199 257.552C217.96 253.033 218.861 248.225 218.856 243.376C218.86 234.381 215.762 225.66 210.086 218.683C204.41 211.706 196.501 206.9 187.694 205.074C186.422 204.816 185.142 204.615 183.846 204.478C183.226 204.414 182.598 204.357 181.971 204.333C181.343 204.309 180.489 204.261 179.741 204.261H125.001C117.607 204.266 110.263 203.05 103.266 200.662C99.9284 199.512 96.6897 198.093 93.5815 196.42C92.1057 195.636 90.6674 194.805 89.2667 193.924L89.1621 193.86C83.5165 190.305 78.4275 185.935 74.0603 180.892C72.6676 179.282 71.3394 177.575 70.0916 175.82C67.5889 172.301 65.4322 168.548 63.6516 164.614C62.6372 162.378 61.7529 160.086 61.0032 157.748C59.8134 154.085 58.9488 150.325 58.4191 146.51C58.0936 144.231 57.8868 141.936 57.7993 139.635C57.7993 138.742 57.7429 137.84 57.7429 136.93C57.7447 134.091 57.9221 131.255 58.2742 128.438C58.5648 126.124 58.976 123.826 59.5059 121.555C59.8118 120.203 60.1821 118.874 60.5765 117.53C61.6149 114.081 62.923 110.719 64.4888 107.475C65.5902 105.207 66.8239 103.006 68.1838 100.883C69.5903 98.645 71.1307 96.4944 72.7964 94.4426C73.215 93.9274 73.6014 93.4202 74.0683 92.9131C74.5352 92.4059 74.9458 91.9068 75.4046 91.4238C81.6448 84.5868 89.2326 79.1154 97.6906 75.354C106.148 71.5926 115.293 69.6226 124.55 69.5681H580.663C601.568 69.5702 621.616 77.8757 636.399 92.6579C651.181 107.44 659.486 127.488 659.489 148.394C659.489 179.145 684.379 204.228 715.13 204.172C723.969 204.163 732.723 205.895 740.892 209.269C749.062 212.643 756.486 217.594 762.743 223.837C768.999 230.081 773.964 237.496 777.355 245.658C780.746 253.821 782.496 262.571 782.505 271.41C782.514 280.248 780.782 289.002 777.407 297.172C774.033 305.341 769.083 312.766 762.839 319.022C756.596 325.279 749.181 330.244 741.019 333.635C732.856 337.025 724.106 338.775 715.267 338.784H571.277C563.644 338.786 556.324 341.819 550.926 347.215C545.529 352.612 542.494 359.93 542.49 367.563C542.49 368.086 542.49 368.609 542.538 369.125C542.928 376.481 546.127 383.406 551.474 388.472C556.822 393.538 563.91 396.358 571.277 396.35H656.607C682.136 396.311 706.889 405.131 726.642 421.305C733.164 426.633 739.062 432.682 744.223 439.337C746.276 442.001 748.248 444.754 750.051 447.604C754.629 454.778 758.359 462.458 761.168 470.49V470.49Z" fill="#F0F3F9"/>
<path d="M737.235 721.184H58.3145C54.4021 721.184 51.2305 724.355 51.2305 728.268V728.276C51.2305 732.188 54.4021 735.36 58.3145 735.36H737.235C741.148 735.36 744.319 732.188 744.319 728.276V728.268C744.319 724.355 741.148 721.184 737.235 721.184Z" fill="#34629B"/>
<path d="M449.803 69.6405V423.205C449.804 424.087 449.631 424.961 449.294 425.776C448.957 426.592 448.463 427.333 447.839 427.957C447.216 428.581 446.475 429.077 445.66 429.415C444.845 429.753 443.971 429.926 443.089 429.926H52.4707C54.7784 427.78 57.1585 425.748 59.6111 423.833C63.3781 420.901 67.3279 418.212 71.4365 415.783C72.8211 414.956 74.2084 414.151 75.5984 413.368C75.7433 413.279 75.9123 413.19 76.0653 413.11C84.7399 408.457 93.8575 404.681 103.282 401.84L103.846 401.695C108.002 400.452 111.892 398.449 115.317 395.786C118.993 392.927 122.069 389.37 124.369 385.32C126.669 381.27 128.148 376.806 128.72 372.184C128.902 370.731 128.991 369.268 128.986 367.805V333.19C128.986 332.296 128.986 331.41 129.058 330.533C129.487 322.383 131.876 314.456 136.023 307.426C140.17 300.396 145.952 294.471 152.878 290.154C154.434 289.175 156.047 288.291 157.708 287.506C159.906 286.43 162.182 285.526 164.519 284.801C168.695 283.488 173.025 282.722 177.399 282.523H177.616C178.324 282.523 179.041 282.475 179.749 282.475C180.498 282.475 181.247 282.475 181.979 282.41C182.712 282.346 183.243 282.33 183.855 282.257C190.477 281.555 196.81 279.174 202.256 275.341C207.702 271.509 212.08 266.35 214.976 260.353C215.435 259.435 215.837 258.502 216.2 257.552C217.961 253.033 218.862 248.225 218.856 243.376C218.86 234.381 215.763 225.66 210.086 218.683C204.41 211.706 196.502 206.9 187.695 205.074C186.423 204.816 185.143 204.615 183.847 204.478C183.227 204.414 182.599 204.357 181.971 204.333C181.343 204.309 180.49 204.261 179.741 204.261H125.001C117.608 204.266 110.264 203.05 103.266 200.662C99.9289 199.512 96.6902 198.093 93.5821 196.42C92.1062 195.636 90.668 194.805 89.2673 193.924L89.1626 193.86C83.517 190.305 78.428 185.935 74.0608 180.892C72.6682 179.282 71.3399 177.575 70.0922 175.82C67.5894 172.301 65.4327 168.548 63.6522 164.614C62.6377 162.379 61.7534 160.086 61.0037 157.748C59.814 154.085 58.9493 150.325 58.4197 146.51C58.0942 144.231 57.8873 141.936 57.7998 139.635C57.7998 138.742 57.7435 137.84 57.7435 136.93C57.7452 134.091 57.9227 131.255 58.2748 128.438C58.5654 126.124 58.9765 123.826 59.5064 121.555C59.8123 120.203 60.1826 118.874 60.5771 117.53C61.6154 114.081 62.9235 110.719 64.4894 107.476C65.5907 105.207 66.8244 103.006 68.1843 100.883C69.5908 98.645 71.1312 96.4944 72.797 94.4426C73.2156 93.9274 73.602 93.4202 74.0689 92.9131C74.5358 92.4059 74.9463 91.9068 75.4052 91.4238C81.6453 84.5868 89.2331 79.1154 97.6911 75.354C106.149 71.5926 115.294 69.6226 124.55 69.5681H449.77L449.803 69.6405Z" fill="#6E8EC8"/>
<path d="M436.737 69.6405V406.67V407.354C436.716 407.579 436.678 407.803 436.624 408.022C436.624 408.191 436.552 408.352 436.512 408.513C436.472 408.674 436.407 408.827 436.367 408.98C436.313 409.123 436.252 409.263 436.182 409.399C436.118 409.561 436.045 409.719 435.964 409.874C435.861 410.066 435.746 410.252 435.618 410.429C435.502 410.608 435.376 410.78 435.24 410.944C435.103 411.112 434.955 411.271 434.797 411.419C434.651 411.574 434.495 411.72 434.33 411.854C434.153 411.991 433.984 412.12 433.807 412.24C433.632 412.364 433.449 412.477 433.26 412.579C433.069 412.684 432.873 412.778 432.672 412.86C432.471 412.941 432.261 413.021 432.052 413.086C431.843 413.15 431.625 413.206 431.4 413.255C430.958 413.345 430.507 413.391 430.056 413.392H75.5981C75.743 413.303 75.912 413.214 76.065 413.134C84.7396 408.481 93.8572 404.705 103.282 401.864L103.846 401.695C108.002 400.452 111.892 398.449 115.317 395.786C118.993 392.926 122.069 389.37 124.369 385.32C126.669 381.27 128.147 376.806 128.72 372.184C128.902 370.731 128.991 369.268 128.986 367.804V333.189C128.986 332.296 128.986 331.41 129.058 330.533C129.486 322.382 131.875 314.456 136.022 307.426C140.169 300.396 145.952 294.471 152.878 290.154C154.433 289.175 156.046 288.291 157.708 287.506C159.905 286.43 162.182 285.526 164.518 284.801C168.695 283.488 173.025 282.722 177.398 282.523H177.616C178.324 282.523 179.041 282.474 179.749 282.474C180.498 282.474 181.246 282.474 181.979 282.41C182.711 282.346 183.243 282.33 183.854 282.257C190.477 281.555 196.81 279.174 202.256 275.341C207.702 271.508 212.08 266.35 214.976 260.353C215.435 259.435 215.837 258.502 216.199 257.552C217.96 253.033 218.861 248.225 218.856 243.376C218.86 234.381 215.763 225.66 210.086 218.683C204.41 211.706 196.501 206.9 187.694 205.074C186.422 204.816 185.142 204.615 183.846 204.478C183.227 204.414 182.599 204.357 181.971 204.333C181.343 204.309 180.49 204.261 179.741 204.261H125.001C117.607 204.266 110.263 203.05 103.266 200.662C99.9286 199.512 96.6899 198.093 93.5818 196.42C92.1059 195.636 90.6677 194.805 89.267 193.924L89.1623 193.86C83.5167 190.305 78.4277 185.935 74.0605 180.891C72.6679 179.281 71.3396 177.575 70.0919 175.82C67.5892 172.301 65.4325 168.548 63.6519 164.614C62.6374 162.378 61.7531 160.086 61.0034 157.748C59.8137 154.085 58.949 150.325 58.4194 146.51C58.0939 144.231 57.887 141.936 57.7995 139.635C57.7995 138.742 57.7432 137.84 57.7432 136.93C57.7449 134.091 57.9224 131.255 58.2745 128.438C58.5651 126.124 58.9762 123.826 59.5061 121.555C59.812 120.203 60.1823 118.874 60.5768 117.53C61.6151 114.081 62.9232 110.719 64.4891 107.475C65.5904 105.207 66.8241 103.006 68.184 100.883C69.5906 98.645 71.1309 96.4944 72.7967 94.4426C73.2153 93.9274 73.6017 93.4202 74.0686 92.9131C74.5355 92.4059 74.946 91.9068 75.4049 91.4238C81.645 84.5868 89.2328 79.1154 97.6908 75.354C106.149 71.5926 115.294 69.6226 124.55 69.5681H436.737V69.6405Z" fill="#E9F1FF"/>
<path d="M436.737 94.3459V406.686C436.735 408.467 436.027 410.174 434.769 411.434C433.51 412.694 431.804 413.403 430.023 413.408H220.377V132.728L220.884 132.382L228.934 126.94L256.795 108.055H301.432L310.553 103.169L314.723 100.939L317.017 99.7072L326.677 94.523L349.217 82.448L372.321 87.6563V115.461H384.307V69.576H404.497L410.8 75.8792V94.3459H436.737Z" fill="#B3C9EB"/>
<path d="M386.4 148.386V413.384H430.007C430.89 413.385 431.763 413.212 432.579 412.875C433.394 412.538 434.135 412.044 434.76 411.42C435.384 410.797 435.879 410.056 436.217 409.241C436.555 408.426 436.729 407.553 436.729 406.67V129.984H420.09L386.4 148.386Z" fill="#819FCC"/>
<path d="M256.787 108.055H275.978V413.392H256.787V108.055Z" fill="#819FCC"/>
<path d="M103.282 93.1708V200.646C99.9397 199.502 96.6956 198.089 93.5818 196.42C92.1059 195.637 90.6677 194.805 89.267 193.925L89.1623 193.86C83.5167 190.305 78.4277 185.935 74.0605 180.892C72.6679 179.282 71.3396 177.575 70.0919 175.82C67.5892 172.301 65.4325 168.549 63.6519 164.615C62.6374 162.379 61.7531 160.086 61.0034 157.748C59.8137 154.085 58.949 150.325 58.4194 146.51C58.0939 144.231 57.887 141.936 57.7995 139.635C57.7995 138.742 57.7432 137.84 57.7432 136.931C57.7449 134.091 57.9224 131.255 58.2745 128.438C58.5651 126.124 58.9762 123.826 59.5061 121.555C59.812 120.203 60.1823 118.874 60.5768 117.53C61.6151 114.081 62.9232 110.719 64.4891 107.476L82.3118 100.883L99.6273 94.4427L103.282 93.1708Z" fill="#B3C9EB"/>
<path d="M76.0646 413.134C84.7392 408.481 93.8568 404.706 103.282 401.864V413.352H75.5977C75.7426 413.303 75.9116 413.215 76.0646 413.134V413.134Z" fill="#B3C9EB"/>
<path d="M128.744 145.254V204.245H125.041C117.647 204.25 110.303 203.034 103.306 200.647V129.984L128.744 145.254Z" fill="#88A5D2"/>
<path d="M128.744 372.216V413.392H103.282V401.905L103.846 401.695C108.002 400.453 111.892 398.449 115.317 395.787C118.994 392.933 122.073 389.382 124.377 385.338C126.681 381.293 128.165 376.835 128.744 372.216V372.216Z" fill="#88A5D2"/>
<path d="M181.987 120.589V204.309C181.254 204.261 180.505 204.237 179.757 204.237H157.716V110.406L177.39 118.665L181.987 120.589Z" fill="#B3C9EB"/>
<path d="M179.757 282.483C180.505 282.483 181.254 282.483 181.987 282.418V413.392H157.716V287.522C159.913 286.447 162.19 285.542 164.526 284.817C168.703 283.504 173.032 282.738 177.406 282.539H177.623C178.332 282.539 179.048 282.491 179.757 282.491V282.483Z" fill="#B3C9EB"/>
<path d="M157.707 110.406V204.245H139.699V116.669L154.06 111.678L157.707 110.406Z" fill="#819FCC"/>
<path d="M152.902 290.17C154.457 289.191 156.07 288.307 157.732 287.522V413.392H139.708V302.06C143.374 297.354 147.841 293.329 152.902 290.17V290.17Z" fill="#819FCC"/>
<path d="M366.018 126.964H302.656V120.186H366.018V126.964Z" fill="#D1DEF5"/>
<path d="M225.554 159.044L252.602 158.166V123.575L225.554 141.76V159.044Z" fill="#D1DEF5"/>
<path d="M366.018 149.15H302.656V142.372H366.018V149.15Z" fill="#D1DEF5"/>
<path d="M366.018 171.328H302.656V164.55H366.018V171.328Z" fill="#D1DEF5"/>
<path d="M366.018 193.513H302.656V186.735H366.018V193.513Z" fill="#D1DEF5"/>
<path d="M366.018 215.707H302.656V208.929H366.018V215.707Z" fill="#D1DEF5"/>
<path d="M366.018 237.893H302.656V231.115H366.018V237.893Z" fill="#D1DEF5"/>
<path d="M366.018 260.079H302.656V253.301H366.018V260.079Z" fill="#D1DEF5"/>
<path d="M366.018 282.257H302.656V275.479H366.018V282.257Z" fill="#D1DEF5"/>
<path d="M366.018 304.443H302.656V297.665H366.018V304.443Z" fill="#D1DEF5"/>
<path d="M366.018 326.629H302.656V319.851H366.018V326.629Z" fill="#D1DEF5"/>
<path d="M366.018 348.814H302.656V342.036H366.018V348.814Z" fill="#D1DEF5"/>
<path d="M366.018 371H302.656V364.222H366.018V371Z" fill="#D1DEF5"/>
<path d="M366.018 393.186H302.656V386.408H366.018V393.186Z" fill="#D1DEF5"/>
<path d="M252.608 223.919H225.56V169.074H252.608V223.919Z" fill="#D1DEF5"/>
<path d="M252.608 291.385H225.56V236.541H252.608V291.385Z" fill="#D1DEF5"/>
<path d="M252.608 358.853H225.56V304.008H252.608V358.853Z" fill="#D1DEF5"/>
<path d="M252.608 401.019H225.56V367.611H252.608V401.019Z" fill="#D1DEF5"/>
<path d="M93.5723 128.445H80.8935V121.571H93.5723V128.445Z" fill="#D1DEF5"/>
<path d="M178.847 137.123H161.209V117.015L178.847 125.29V137.123Z" fill="#D1DEF5"/>
<path d="M70.0999 121.555V128.43H58.2744C58.5653 126.118 58.9764 123.824 59.5061 121.555H70.0999Z" fill="#D1DEF5"/>
<path d="M93.5723 146.526H80.8935V139.651H93.5723V146.526Z" fill="#D1DEF5"/>
<path d="M70.0992 139.651V146.51H58.4187C58.0932 144.23 57.8863 141.936 57.7988 139.635L70.0992 139.651Z" fill="#D1DEF5"/>
<path d="M93.5723 164.606H80.8935V157.731H93.5723V164.606Z" fill="#D1DEF5"/>
<path d="M70.1002 157.731V164.598H63.6602C62.6457 162.362 61.7614 160.07 61.0117 157.731H70.1002Z" fill="#D1DEF5"/>
<path d="M93.5723 182.679H80.8935V175.804H93.5723V182.679Z" fill="#D1DEF5"/>
<path d="M93.5806 193.884V196.42C92.1047 195.637 90.6665 194.805 89.2658 193.925L89.1611 193.86L93.5806 193.884Z" fill="#D1DEF5"/>
<path d="M178.839 152.974H161.201V143.08H178.839V152.974Z" fill="#D1DEF5"/>
<path d="M178.848 169.895H172.367V160.001H178.848V169.895Z" fill="#D1DEF5"/>
<path d="M167.681 169.895H161.2V160.001H167.681V169.895Z" fill="#D1DEF5"/>
<path d="M178.839 189.433H161.201V179.539H178.839V189.433Z" fill="#D1DEF5"/>
<path d="M172.358 196.46H178.839V204.244H172.358V196.46Z" fill="#D1DEF5"/>
<path d="M161.209 196.46H167.689V204.244H161.209V196.46Z" fill="#D1DEF5"/>
<path d="M178.839 298.228H161.201V288.334H178.839V298.228Z" fill="#D1DEF5"/>
<path d="M178.848 315.15H172.367V305.256H178.848V315.15Z" fill="#D1DEF5"/>
<path d="M167.681 315.15H161.2V305.256H167.681V315.15Z" fill="#D1DEF5"/>
<path d="M178.839 334.396H161.201V324.503H178.839V334.396Z" fill="#D1DEF5"/>
<path d="M178.848 351.318H172.367V341.425H178.848V351.318Z" fill="#D1DEF5"/>
<path d="M167.681 351.318H161.2V341.425H167.681V351.318Z" fill="#D1DEF5"/>
<path d="M178.839 370.566H161.201V360.672H178.839V370.566Z" fill="#D1DEF5"/>
<path d="M178.848 387.487H172.367V377.593H178.848V387.487Z" fill="#D1DEF5"/>
<path d="M167.681 387.487H161.2V377.593H167.681V387.487Z" fill="#D1DEF5"/>
<path opacity="0.51" d="M436.737 332.843V406.67C436.735 408.45 436.027 410.158 434.769 411.418C433.511 412.677 431.804 413.387 430.023 413.392L386.401 351.27L366.018 322.233L364.336 319.818L353.524 304.411L348.767 297.633L337.94 282.225L333.19 275.447L322.379 260.047L317.605 253.261L317.01 252.408L310.57 243.207L306.826 237.861L302.681 231.977L275.971 194.005L256.796 166.635L250.879 158.207L234.9 135.481L228.91 126.94L210.661 100.939L206.145 94.4989L188.685 69.6405H251.966L269.434 94.523L273.934 100.963L278.933 108.079L303.027 142.396L307.776 149.174L310.562 153.143L317.002 162.352L318.571 164.582L323.337 171.36L334.164 186.76L338.906 193.522L349.717 208.93L354.482 215.708L365.31 231.115L366.026 232.122L386.401 261.158L436.737 332.843Z" fill="white"/>
<path opacity="0.51" d="M418.174 413.392H387.89L386.401 411.282L358.129 371L353.364 364.222L342.544 348.814L337.795 342.036L326.976 326.629L322.21 319.851L317.018 312.453L311.391 304.443L310.562 303.251L306.641 297.665L275.971 253.993L256.796 226.664L252.61 220.707L225.554 182.179L220.37 174.798L183.863 122.787L177.399 113.577L168.519 100.939L164.02 94.523L146.543 69.6405H176.827L177.399 70.4455L183.863 79.6466L194.304 94.523L198.812 100.939L220.877 132.382L226.858 140.891L239.287 158.601L246.637 169.074L252.61 177.567L256.796 183.532L275.971 210.854L305.764 253.293L310.53 260.079L310.562 260.112L317.018 269.321L321.349 275.479L326.106 282.257L336.925 297.665L341.675 304.443L352.494 319.851L357.26 326.629L386.401 368.151L418.174 413.392Z" fill="white"/>
<path opacity="0.51" d="M365.881 413.392H347.165L332.989 393.186L328.231 386.4L317.412 371L317.018 370.453L312.654 364.222L310.553 361.244L275.938 311.986L256.795 284.664L252.609 278.699L225.561 240.18L220.377 232.79L183.862 180.787L181.987 178.122L177.39 171.578L176.215 169.895L172.359 164.413L164.309 152.982L161.178 148.522L157.684 143.539L139.676 117.892L127.77 100.939L123.27 94.4989L107.428 71.9589C113.001 70.4551 118.745 69.6759 124.518 69.6405L141.986 94.515L146.486 100.955L154.029 111.694L157.684 116.902L161.178 121.877L171.884 137.172L176.07 143.137L177.358 144.972L178.815 147.033L181.955 151.517L183.83 154.174L220.345 206.185L225.529 213.574L232.823 223.967L241.678 236.597L252.561 252.102L256.747 258.059L275.922 285.388L302.68 323.336L304.983 326.629L310.578 334.598L315.81 342.036L317.042 343.799L320.568 348.814L331.387 364.222L336.136 371L346.955 386.4L351.713 393.178L365.881 413.392Z" fill="white"/>
<path d="M441.245 94.5231V100.963H68.1836C69.5901 98.7255 71.1305 96.575 72.7962 94.5231H441.245Z" fill="#6E8EC8"/>
<path d="M181.987 282.418C182.615 282.418 183.251 282.338 183.863 282.265V413.392H177.423V282.555H177.64C178.349 282.555 179.065 282.507 179.773 282.507C180.506 282.483 181.255 282.459 181.987 282.418V282.418Z" fill="#6E8EC8"/>
<path d="M183.862 69.7609V204.47C183.242 204.405 182.614 204.349 181.986 204.325C181.358 204.301 180.505 204.252 179.756 204.252H177.39V69.6643L183.862 69.7609Z" fill="#6E8EC8"/>
<path d="M310.553 69.6405H317.017V413.392H310.553V69.6405Z" fill="#6E8EC8"/>
<path d="M722.705 720.91H275.994C275.994 654.763 332.988 598.043 413.979 574.239C421.525 572.012 429.272 570.08 437.22 568.443C457.662 564.286 478.472 562.207 499.333 562.236C622.7 562.236 722.705 633.277 722.705 720.91V720.91Z" fill="#6E8EC8"/>
<path d="M678.188 472.463H689.161V556.947H678.188V472.463Z" fill="#92B0E7"/>
<path d="M678.189 550.016H689.162V556.947H678.189V550.016Z" fill="#6E8EC8"/>
<path d="M689.154 472.463V488.498C686.228 491.753 682.418 494.086 678.189 495.212V472.463H689.154Z" fill="#6E8EC8"/>
<path d="M734.869 709.092H632.57C629.615 709.092 627.393 705.51 627.957 701.662L647.221 570.648C647.985 565.416 651.447 561.64 655.464 561.64H712.007C716.032 561.64 719.477 565.416 720.25 570.648L739.489 701.662C740.045 705.51 737.823 709.092 734.869 709.092V709.092Z" fill="#6E8EC8"/>
<path d="M734.869 709.092H706.477L684.822 561.64H711.991C716.016 561.64 719.461 565.416 720.226 570.648L739.474 701.662C740.037 705.51 737.823 709.092 734.869 709.092V709.092Z" fill="#547DBA"/>
<path d="M731.576 709.092L731.134 712.562L729.902 721.964H713.15L711.926 712.562L711.476 709.092H731.576Z" fill="#547DBA"/>
<path d="M662.426 709.092L661.968 712.562L660.744 721.964H644L642.768 712.562L642.317 709.092H662.426Z" fill="#6E8EC8"/>
<path d="M676.03 323.456C676.452 317.25 671.765 311.878 665.562 311.456C659.359 311.034 653.988 315.723 653.566 321.928L640.664 511.672C640.242 517.877 644.929 523.249 651.132 523.671C657.335 524.093 662.706 519.404 663.128 513.199L676.03 323.456Z" fill="#E9F1FF"/>
<path d="M694.924 366.339V468.767C694.924 474.745 692.549 480.479 688.322 484.706C684.095 488.933 678.362 491.307 672.384 491.307H658.353L672.416 343.823C678.394 343.823 684.127 346.198 688.354 350.425C692.581 354.652 694.956 360.385 694.956 366.363L694.924 366.339Z" fill="#92B0E7"/>
<path d="M681.521 345.747L671.635 491.283H658.353L672.416 343.823C675.552 343.818 678.655 344.473 681.521 345.747Z" fill="#6E8EC8"/>
<path d="M681.513 314.623C681.935 308.417 677.249 303.045 671.045 302.623C664.842 302.201 659.471 306.89 659.049 313.095L644.946 520.499C644.524 526.705 649.211 532.077 655.414 532.499C661.618 532.921 666.988 528.232 667.41 522.027L681.513 314.623Z" fill="#92B0E7"/>
<path d="M662.426 709.092L661.968 712.562H642.768L642.317 709.092H662.426Z" fill="#547DBA"/>
<path d="M731.576 709.092L731.134 712.562H711.926L711.476 709.092H731.576Z" fill="#416FA5"/>
<path d="M246.129 529.424C262.006 529.424 274.876 516.554 274.876 500.678C274.876 484.802 262.006 471.931 246.129 471.931C230.253 471.931 217.383 484.802 217.383 500.678C217.383 516.554 230.253 529.424 246.129 529.424Z" fill="#6FEAF7"/>
<path d="M277.904 565.311C286.182 573.589 299.601 573.59 307.877 565.314C316.152 557.038 316.151 543.619 307.874 535.342L262.205 489.673C253.928 481.396 240.509 481.394 232.233 489.67C223.957 497.946 223.958 511.365 232.236 519.643L277.904 565.311Z" fill="#8C285C"/>
<path d="M226.327 508.116C227.428 504.648 229.404 501.521 232.064 499.038C234.723 496.554 237.977 494.797 241.513 493.935C245.048 493.073 248.746 493.135 252.25 494.116C255.754 495.097 258.947 496.963 261.521 499.535L307.197 545.21C310.334 548.319 312.415 552.334 313.146 556.69C314.312 552.989 314.438 549.039 313.511 545.271C312.584 541.503 310.639 538.062 307.889 535.325L262.214 489.649C259.036 486.471 254.93 484.386 250.489 483.694C246.048 483.003 241.503 483.741 237.509 485.801C233.515 487.862 230.279 491.139 228.269 495.158C226.259 499.178 225.579 503.733 226.327 508.164V508.116Z" fill="#72194C"/>
<path d="M380.766 549.179C393.34 543.954 398.886 528.522 393.147 514.709C388.816 504.163 379.156 497.61 369.206 497.409C366.06 497.341 362.934 497.93 360.029 499.14L290.606 527.943C278.032 533.167 272.485 548.607 278.225 562.421C283.956 576.243 298.809 583.206 311.383 577.982L380.766 549.179Z" fill="#EA7D7D"/>
<path d="M356.566 551.127C339.267 539.004 335.998 520.658 342.261 506.506L379.67 491.912C382.582 490.775 385.755 490.482 388.826 491.066C391.897 491.649 394.742 493.086 397.034 495.212C400.834 498.734 403.782 503.076 405.655 507.907C415.154 532.234 395.005 560.828 362.7 553.792C360.499 553.319 358.414 552.413 356.566 551.127V551.127Z" fill="#EA7D7D"/>
<path d="M252.431 427.994C260.216 427.994 266.527 421.684 266.527 413.899C266.527 406.114 260.216 399.803 252.431 399.803C244.647 399.803 238.336 406.114 238.336 413.899C238.336 421.684 244.647 427.994 252.431 427.994Z" fill="#54285B"/>
<path d="M422.231 690.175C422.24 700.465 421.454 710.74 419.881 720.91H69.5929C68.0198 710.74 67.2339 700.465 67.2423 690.175C67.2423 618.61 104.433 556.32 159.318 524.111C185.191 508.831 214.688 500.769 244.737 500.767C301.827 500.767 352.607 529.537 385.105 574.223C408.377 606.262 422.231 646.496 422.231 690.175Z" fill="#6E8EC8"/>
<path d="M502.755 720.91H275.994C275.994 654.763 321.074 598.043 385.096 574.239C391.118 571.992 397.252 570.058 403.474 568.443C457.023 605.481 493.835 659.488 502.755 720.91V720.91Z" fill="#5A7DAF"/>
<path d="M643.434 658.616L636.229 714.316L351.019 677.426C343.9 676.505 337.439 672.794 333.056 667.11C328.674 661.425 326.729 654.232 327.65 647.114L331.383 618.253L643.434 658.616Z" fill="#2B234C"/>
<path d="M637.842 701.859L636.231 714.314L324.18 673.951L325.791 661.497L637.842 701.859Z" fill="#1D183A"/>
<path d="M662.957 666.093L657.516 707.527L637.21 704.86L642.651 663.427L662.957 666.093Z" fill="#F0A284"/>
<path d="M649.066 666.571L643.698 708.078L637.143 707.23L642.512 665.724L649.066 666.571Z" fill="#EA7D7D"/>
<path d="M644.612 708.803L652.75 688.017C650.073 683.601 648.896 678.438 649.394 673.298C649.892 668.158 652.039 663.317 655.514 659.497C658.989 655.677 663.606 653.083 668.676 652.102C673.746 651.121 678.997 651.806 683.646 654.054L662.789 697.13L652.388 718.632L647.558 716.289C646.217 715.638 645.17 714.507 644.625 713.12C644.079 711.734 644.074 710.193 644.612 708.803V708.803Z" fill="#2B234C"/>
<path d="M650.714 667.45C653.829 662.414 658.699 658.711 664.384 657.056C670.07 655.402 676.166 655.913 681.497 658.49L683.646 654.039C680.816 652.669 677.743 651.87 674.604 651.687C671.465 651.505 668.321 651.943 665.351 652.976C662.381 654.009 659.643 655.617 657.295 657.708C654.946 659.8 653.033 662.333 651.664 665.164C651.306 665.908 650.989 666.671 650.714 667.45V667.45Z" fill="#3D325D"/>
<path d="M653.596 724.21C654.404 724.603 655.327 724.687 656.193 724.447C657.059 724.207 657.807 723.659 658.297 722.906C658.394 722.775 658.478 722.635 658.547 722.487L689.644 658.224C689.736 658.05 689.816 657.869 689.885 657.685C690.35 656.379 690.317 654.948 689.793 653.664C689.268 652.381 688.29 651.336 687.043 650.73C685.792 650.121 684.359 649.997 683.021 650.382C681.683 650.767 680.535 651.633 679.798 652.814C679.642 653.071 679.507 653.34 679.396 653.619L678.325 656.155L675.299 663.4L673.89 666.773L670.863 674.018L669.446 677.383L666.419 684.628L665.011 687.993L661.976 695.238L660.567 698.611L657.532 705.856L656.123 709.221L653.089 716.466L651.793 719.573C651.752 719.661 651.72 719.753 651.696 719.847C651.407 720.697 651.44 721.624 651.789 722.452C652.137 723.28 652.777 723.951 653.588 724.339L653.596 724.21Z" fill="#3D325D"/>
<path d="M678.333 656.139L688.315 660.969L689.925 657.693L679.83 652.806C679.673 653.063 679.539 653.332 679.428 653.611L678.333 656.139Z" fill="#2B234C"/>
<path d="M673.897 666.741L683.316 671.297L684.902 668.013L675.306 663.368L673.897 666.741Z" fill="#2B234C"/>
<path d="M669.455 677.327L678.318 681.617L679.912 678.333L670.872 673.962L669.455 677.327Z" fill="#2B234C"/>
<path d="M665.018 687.92L673.325 691.945L674.911 688.669L666.426 684.556L665.018 687.92Z" fill="#2B234C"/>
<path d="M660.574 698.522L668.326 702.274L669.912 698.989L661.983 695.149L660.574 698.522Z" fill="#2B234C"/>
<path d="M656.131 709.108L663.328 712.594L664.922 709.309L657.54 705.743L656.131 709.108Z" fill="#2B234C"/>
<path d="M651.945 719.831L658.329 722.89L659.939 719.606L653.112 716.305L651.816 719.413L651.945 719.831Z" fill="#2B234C"/>
<path d="M366.1 582.955L375.772 591.881C384.12 599.583 389.065 610.286 389.521 621.635C389.977 632.984 385.906 644.05 378.203 652.397L359.751 672.393C357.318 675.029 353.939 676.591 350.355 676.735C346.771 676.879 343.276 675.593 340.64 673.161L309.433 644.364L366.1 582.955Z" fill="#3D325D"/>
<path d="M309.461 644.34L266.061 604.291L322.705 542.906L366.105 582.955L309.461 644.34Z" fill="#3CC3DA"/>
<path d="M307.499 516.07L336.926 567.038L308.991 583.167C297.213 589.967 283.217 591.809 270.08 588.289C256.944 584.769 245.743 576.175 238.943 564.397L202.111 500.601C201.539 499.611 201.168 498.517 201.018 497.383C200.869 496.249 200.944 495.097 201.241 493.992C201.537 492.887 202.047 491.851 202.744 490.944C203.44 490.036 204.308 489.275 205.299 488.703C222.494 478.775 242.929 476.085 262.108 481.224C281.287 486.363 297.639 498.91 307.566 516.105L307.499 516.07Z" fill="#3CC3DA"/>
<path d="M239.52 452.354V483C239.517 483.824 239.46 484.647 239.351 485.463C238.745 489.94 236.458 494.019 232.955 496.872C229.451 499.725 224.994 501.138 220.487 500.824C215.98 500.511 211.761 498.494 208.686 495.184C205.612 491.874 203.911 487.518 203.931 483V452.354C203.931 447.635 205.805 443.11 209.142 439.774C212.478 436.438 217.003 434.563 221.721 434.563C226.44 434.563 230.965 436.438 234.301 439.774C237.637 443.11 239.512 447.635 239.512 452.354H239.52Z" fill="#F0A284"/>
<path d="M239.52 452.354V483C239.517 483.824 239.46 484.647 239.351 485.463C232.492 485.552 225.708 484.02 219.553 480.991C213.398 477.963 208.046 473.523 203.931 468.035V452.354C203.931 447.635 205.805 443.11 209.141 439.774C212.478 436.438 217.003 434.563 221.721 434.563C226.439 434.563 230.965 436.438 234.301 439.774C237.637 443.11 239.512 447.635 239.512 452.354H239.52Z" fill="#EA7D7D"/>
<path d="M266.067 604.289L235.679 558.734L277.394 526.961L341.351 591.723L266.067 604.289Z" fill="#3CC3DA"/>
<path d="M239.519 481.39V483C239.519 483.805 239.334 484.658 239.35 485.463C239.519 495.212 230.383 502.843 221.117 502.537C211.457 502.215 203.938 492.257 203.938 482.597V481.39H239.519Z" fill="#3CC3DA"/>
<path d="M442.859 587.614C453.828 576.645 453.829 558.863 442.862 547.897C431.895 536.93 414.113 536.931 403.145 547.899L322.327 628.717C311.358 639.686 311.357 657.468 322.324 668.435C333.291 679.402 351.073 679.4 362.041 668.432L442.859 587.614Z" fill="#3D325D"/>
<path d="M361.292 720.91H69.5923C68.1506 711.607 67.3704 702.213 67.2578 692.799C67.2578 691.93 67.2578 691.052 67.2578 690.175C67.2578 643.026 83.3578 599.91 110.1 566.768C120.963 553.238 133.703 541.33 147.935 531.405C151.638 528.818 155.432 526.387 159.318 524.111C266.077 547.795 347.414 625.397 361.292 720.91V720.91Z" fill="#92B0E7"/>
<path d="M266.527 720.91H68.8356C67.8696 711.754 67.3329 702.384 67.2256 692.799C67.2256 691.93 67.2256 691.052 67.2256 690.175C67.2256 643.026 83.3256 599.91 110.068 566.768C212.995 599.838 260.152 656.172 266.527 720.91Z" fill="#6E8EC8"/>
<path d="M347.671 481.052L294.186 521.738C292.873 522.736 292.618 524.61 293.617 525.923C294.615 527.236 296.489 527.49 297.802 526.492L351.287 485.806C352.6 484.807 352.855 482.933 351.856 481.621C350.857 480.308 348.984 480.053 347.671 481.052Z" fill="#3D325D"/>
<path d="M343.803 481.971L339.453 485.28C338.66 485.883 338.506 487.015 339.109 487.807L339.704 488.589C340.307 489.382 341.438 489.535 342.231 488.932L346.581 485.623C347.374 485.02 347.527 483.889 346.924 483.096L346.33 482.315C345.727 481.522 344.596 481.368 343.803 481.971Z" fill="#3D325D"/>
<path d="M335.768 488.089L331.418 491.399C330.625 492.002 330.471 493.133 331.074 493.926L331.669 494.707C332.272 495.5 333.403 495.654 334.196 495.051L338.546 491.741C339.339 491.138 339.492 490.007 338.889 489.215L338.295 488.433C337.692 487.64 336.561 487.487 335.768 488.089Z" fill="#3D325D"/>
<path d="M327.735 494.194L323.384 497.503C322.592 498.106 322.438 499.238 323.041 500.03L323.636 500.812C324.238 501.605 325.37 501.758 326.162 501.155L330.513 497.846C331.305 497.243 331.459 496.112 330.856 495.319L330.262 494.538C329.659 493.745 328.527 493.591 327.735 494.194Z" fill="#3D325D"/>
<path d="M319.695 500.306L315.344 503.615C314.552 504.218 314.398 505.35 315.001 506.142L315.596 506.924C316.198 507.717 317.33 507.87 318.122 507.267L322.473 503.958C323.265 503.355 323.419 502.224 322.816 501.431L322.222 500.65C321.619 499.857 320.487 499.703 319.695 500.306Z" fill="#3D325D"/>
<path d="M311.27 506.727L300.763 514.719C299.754 515.487 299.558 516.926 300.326 517.934C301.093 518.943 302.532 519.139 303.541 518.371L314.048 510.379C315.056 509.611 315.252 508.172 314.485 507.163C313.718 506.155 312.278 505.959 311.27 506.727Z" fill="#3D325D"/>
<path d="M203.938 544.969C219.814 544.969 232.685 532.099 232.685 516.223C232.685 500.346 219.814 487.476 203.938 487.476C188.062 487.476 175.191 500.346 175.191 516.223C175.191 532.099 188.062 544.969 203.938 544.969Z" fill="#6FEAF7"/>
<path d="M216.025 587.199C221.603 597.49 234.467 601.312 244.756 595.734C255.046 590.157 258.864 577.293 253.286 567.001L222.508 510.221C216.93 499.93 204.066 496.109 193.777 501.686C183.488 507.263 179.669 520.128 185.247 530.419L216.025 587.199Z" fill="#3CC3DA"/>
<path d="M182.839 517.72C184.879 514.705 187.662 512.268 190.918 510.641C194.174 509.015 197.795 508.255 201.43 508.435C205.065 508.614 208.593 509.727 211.673 511.667C214.754 513.606 217.282 516.306 219.016 519.507L249.799 576.292C251.916 580.162 252.761 584.601 252.214 588.978C254.392 585.767 255.645 582.018 255.836 578.142C256.028 574.267 255.151 570.413 253.301 567.002L222.501 510.217C220.363 506.266 217.024 503.098 212.967 501.169C208.91 499.239 204.344 498.65 199.93 499.485C195.516 500.32 191.482 502.536 188.41 505.814C185.337 509.092 183.387 513.261 182.839 517.72V517.72Z" fill="#6FEAF7"/>
<path d="M318.233 564.305C329.72 556.988 332.521 540.823 324.487 528.209C318.361 518.549 307.711 513.807 297.922 515.329C294.809 515.802 291.828 516.921 289.172 518.613L225.811 558.96C214.323 566.277 211.53 582.434 219.564 595.056C227.614 607.678 243.424 611.961 254.911 604.66L318.233 564.305Z" fill="#F0A284"/>
<path d="M243.497 591.016L243.502 591.023C245.417 594.151 249.505 595.134 252.634 593.219L281.426 575.589C284.554 573.673 285.537 569.585 283.622 566.457L283.618 566.45C281.702 563.322 277.614 562.339 274.486 564.254L245.693 581.885C242.565 583.8 241.582 587.888 243.497 591.016Z" fill="#FCB798"/>
<path d="M294.719 570.359C275.576 561.407 269.2 543.898 272.895 528.885L307.228 508.052C309.901 506.432 312.976 505.597 316.1 505.642C319.225 505.688 322.274 506.612 324.898 508.309C329.247 511.124 332.9 514.889 335.581 519.322C349.137 541.652 334.22 573.257 301.191 571.945C298.949 571.853 296.749 571.314 294.719 570.359V570.359Z" fill="#F0A284"/>
<path d="M317.791 509.355C319.799 505.639 318.415 501 314.701 498.994C310.987 496.988 306.349 498.373 304.342 502.089L292.346 524.293C290.339 528.009 291.722 532.648 295.436 534.654C299.15 536.661 303.788 535.275 305.796 531.559L317.791 509.355Z" fill="#F0A284"/>
<path d="M345.466 511.251C349.124 509.139 350.378 504.463 348.267 500.808C346.156 497.152 341.48 495.9 337.822 498.012L315.967 510.63C312.309 512.742 311.055 517.418 313.166 521.073C315.276 524.729 319.952 525.981 323.61 523.869L345.466 511.251Z" fill="#F0A284"/>
<path d="M346.509 527.267C350.167 525.155 351.421 520.48 349.31 516.824C347.199 513.168 342.523 511.916 338.865 514.028L317.01 526.647C313.352 528.758 312.098 533.434 314.208 537.09C316.319 540.746 320.995 541.997 324.653 539.885L346.509 527.267Z" fill="#F0A284"/>
<path d="M343.82 541.268C347.478 539.156 348.732 534.481 346.622 530.825C344.511 527.169 339.835 525.918 336.177 528.029L314.321 540.648C310.663 542.759 309.409 547.435 311.52 551.091C313.631 554.747 318.307 555.998 321.965 553.887L343.82 541.268Z" fill="#F0A284"/>
<path d="M315.205 554.878C320.149 554.878 324.157 550.132 324.157 544.276C324.157 538.421 320.149 533.674 315.205 533.674C310.262 533.674 306.254 538.421 306.254 544.276C306.254 550.132 310.262 554.878 315.205 554.878Z" fill="#FCB798"/>
<path d="M234.022 477.824C228.303 478.161 222.574 477.369 217.161 475.492C211.749 473.615 206.759 470.69 202.477 466.884C198.195 463.079 194.705 458.467 192.206 453.312C189.707 448.157 188.247 442.56 187.912 436.841L186.761 417.795C186.517 413.704 187.34 409.619 189.147 405.941C190.954 402.262 193.685 399.116 197.073 396.808C200.628 394.379 204.777 392.963 209.075 392.711L221.955 391.954L228.548 391.568L230.424 391.455L233.265 391.286C236.131 391.112 239.002 391.505 241.715 392.443C244.429 393.38 246.93 394.844 249.076 396.75C251.223 398.657 252.972 400.968 254.223 403.551C255.474 406.135 256.204 408.94 256.369 411.806L256.651 416.797L256.731 418.06V418.463L256.924 421.611L257.005 423.035L258.615 450.091C259.024 457.028 256.665 463.845 252.054 469.044C247.443 474.243 240.958 477.401 234.022 477.824V477.824Z" fill="#F0A284"/>
<path d="M256.69 416.797L256.77 418.061C249.437 420.733 214.605 419.856 203.544 413.899C201.998 413.094 196.299 404.038 197.104 396.809C197.402 394.313 197.764 392.438 198.142 391.882L211.69 391.536L221.399 391.286C224.49 391.206 227.525 391.286 230.471 391.456C234.948 391.725 239.398 392.328 243.786 393.259C247.365 394.919 250.428 397.517 252.652 400.776C254.875 404.036 256.176 407.835 256.416 411.774L256.69 416.797Z" fill="#EA7D7D"/>
<path d="M188.885 408.135H197.627V429.87C197.632 431.512 197.312 433.14 196.687 434.658C196.062 436.177 195.144 437.558 193.986 438.722C192.827 439.886 191.45 440.811 189.934 441.442C188.418 442.074 186.792 442.401 185.15 442.404H184.208V412.852C184.206 411.607 184.697 410.412 185.573 409.529C186.45 408.645 187.64 408.144 188.885 408.135V408.135Z" fill="#64356A"/>
<path d="M192.628 418.165C201.506 418.165 208.703 410.968 208.703 402.089C208.703 393.211 201.506 386.013 192.628 386.013C183.749 386.013 176.552 393.211 176.552 402.089C176.552 410.968 183.749 418.165 192.628 418.165Z" fill="#64356A"/>
<path d="M181.544 403.555C181.534 406.704 182.459 409.785 184.2 412.41C185.489 414.358 187.183 416.006 189.167 417.24V441.744C187.872 442.189 186.512 442.417 185.142 442.42H184.208V415.766C180.815 413.552 178.381 410.14 177.393 406.211C176.404 402.281 176.934 398.124 178.875 394.568C180.817 391.011 184.028 388.318 187.868 387.025C191.708 385.732 195.894 385.934 199.592 387.591C198.948 387.514 198.3 387.476 197.652 387.479C193.384 387.477 189.291 389.169 186.271 392.183C183.25 395.197 181.55 399.287 181.544 403.555V403.555Z" fill="#54285B"/>
<path d="M217.994 433.742C219.581 433.742 220.868 432.455 220.868 430.868C220.868 429.281 219.581 427.994 217.994 427.994C216.407 427.994 215.12 429.281 215.12 430.868C215.12 432.455 216.407 433.742 217.994 433.742Z" fill="#151D3A"/>
<path d="M244.35 433.742C245.938 433.742 247.224 432.455 247.224 430.868C247.224 429.281 245.938 427.994 244.35 427.994C242.763 427.994 241.477 429.281 241.477 430.868C241.477 432.455 242.763 433.742 244.35 433.742Z" fill="#151D3A"/>
<path d="M573.525 678.844L545.245 709.696L530.125 695.836L558.405 664.984L573.525 678.844Z" fill="#F0A284"/>
<path d="M563.278 669.444L534.998 700.295L530.126 695.83L558.406 664.978L563.278 669.444Z" fill="#EA7D7D"/>
<path d="M535.325 701.517L553.945 689.201C554.294 684.048 556.301 679.146 559.666 675.228C563.031 671.309 567.573 668.585 572.614 667.461C577.656 666.337 582.925 666.874 587.636 668.992C592.346 671.109 596.246 674.694 598.751 679.211L556.891 702.459L536.009 714.035L533.401 709.342C532.68 708.035 532.477 706.504 532.834 705.054C533.19 703.604 534.08 702.341 535.325 701.517V701.517Z" fill="#2B234C"/>
<path d="M564.096 671.209C569.542 668.888 575.655 668.666 581.255 670.587C586.855 672.507 591.545 676.434 594.42 681.609L598.743 679.194C597.112 676.272 594.887 673.724 592.212 671.713C589.536 669.703 586.47 668.275 583.209 667.521C579.948 666.767 576.566 666.704 573.28 667.337C569.993 667.969 566.876 669.283 564.128 671.193L564.096 671.209Z" fill="#3D325D"/>
<path d="M533.796 719.291C534.236 720.072 534.945 720.665 535.791 720.961C536.637 721.257 537.561 721.236 538.392 720.901C538.541 720.844 538.687 720.777 538.827 720.7L601.246 686.037C601.422 685.944 601.589 685.836 601.746 685.715C602.837 684.899 603.596 683.715 603.882 682.383C604.167 681.05 603.96 679.659 603.299 678.468C602.638 677.276 601.567 676.365 600.286 675.902C599.004 675.439 597.598 675.456 596.328 675.95C596.047 676.064 595.777 676.204 595.523 676.369L593.196 677.826L586.555 681.996L583.464 683.936L576.831 688.106L573.74 690.046L567.098 694.216L564.007 696.156L557.374 700.35L554.283 702.29L547.65 706.46L544.558 708.4L537.917 712.57L535.067 714.357C534.986 714.409 534.908 714.465 534.834 714.526C534.112 715.059 533.608 715.836 533.417 716.713C533.226 717.59 533.36 718.507 533.796 719.291V719.291Z" fill="#3D325D"/>
<path d="M593.205 677.858L598.582 687.518L601.802 685.747L596.361 675.95C596.079 676.063 595.81 676.204 595.556 676.369L593.205 677.858Z" fill="#2B234C"/>
<path d="M583.472 683.968L588.551 693.121L591.739 691.35L586.563 682.028L583.472 683.968Z" fill="#2B234C"/>
<path d="M573.747 690.078L578.521 698.684L581.717 696.913L576.838 688.138L573.747 690.078Z" fill="#2B234C"/>
<path d="M564.015 696.188L568.498 704.254L571.678 702.483L567.106 694.24L564.015 696.188Z" fill="#2B234C"/>
<path d="M554.283 702.29L558.469 709.825L561.657 708.054L557.374 700.35L554.283 702.29Z" fill="#2B234C"/>
<path d="M544.558 708.4L548.438 715.395L551.625 713.624L547.649 706.46L544.558 708.4Z" fill="#2B234C"/>
<path d="M534.963 714.759L538.408 720.966L541.628 719.195L537.949 712.57L535.1 714.357L534.963 714.759Z" fill="#2B234C"/>
<path d="M564.465 665.249L525.351 705.555L403.959 587.754C398.617 582.567 395.554 575.473 395.441 568.029C395.328 560.585 398.175 553.401 403.357 548.055C408.545 542.709 415.643 539.643 423.091 539.532C430.54 539.42 437.727 542.271 443.073 547.459L564.459 665.255L564.465 665.249Z" fill="#3D325D"/>
<path d="M217.6 372.715H266.528V383.985C266.528 391.917 263.377 399.523 257.769 405.132C252.16 410.74 244.554 413.891 236.622 413.891H187.694V402.621C187.694 394.689 190.845 387.083 196.454 381.474C202.062 375.866 209.669 372.715 217.6 372.715V372.715Z" fill="#64356A"/>
<path d="M266.519 372.715V383.985C266.519 391.914 263.369 399.519 257.762 405.126C252.156 410.733 244.551 413.883 236.622 413.883H228.861C236.791 413.883 244.395 410.733 250.002 405.126C255.609 399.519 258.759 391.914 258.759 383.985V372.715H266.519Z" fill="#7D5384"/>
<path d="M215.209 382.48H231.237C232.518 382.48 233.746 382.989 234.652 383.895C235.558 384.8 236.067 386.029 236.067 387.31C236.067 390.688 234.725 393.927 232.337 396.315C229.948 398.703 226.709 400.045 223.332 400.045H207.288C206.007 400.045 204.778 399.536 203.873 398.63C202.967 397.725 202.458 396.496 202.458 395.215C202.458 391.838 203.8 388.598 206.188 386.21C208.576 383.822 211.816 382.48 215.193 382.48H215.209Z" fill="#7D5384"/>
<path d="M191.082 451.532C197.209 451.532 202.175 446.566 202.175 440.44C202.175 434.313 197.209 429.347 191.082 429.347C184.956 429.347 179.989 434.313 179.989 440.44C179.989 446.566 184.956 451.532 191.082 451.532Z" fill="#F0A284"/>
<path d="M187.726 439.779C187.845 440.712 188.233 441.59 188.844 442.305C189.454 443.019 190.26 443.541 191.163 443.804C191.38 443.859 191.608 443.86 191.825 443.806C192.043 443.753 192.244 443.646 192.411 443.497C192.577 443.347 192.705 443.159 192.782 442.949C192.86 442.739 192.884 442.513 192.853 442.291L192.113 436.108C192.084 435.876 191.997 435.654 191.859 435.464C191.722 435.274 191.539 435.122 191.327 435.021C191.115 434.921 190.881 434.876 190.647 434.89C190.413 434.904 190.186 434.977 189.988 435.102C189.204 435.585 188.575 436.282 188.174 437.111C187.773 437.939 187.618 438.865 187.726 439.779V439.779Z" fill="#EA7D7D"/>
<path d="M238.602 442.581C238.636 443.515 238.484 444.447 238.157 445.323C237.83 446.199 237.332 447.002 236.694 447.685C236.533 447.846 236.372 448.007 236.203 448.16C234.966 449.254 233.386 449.884 231.735 449.939H231.445C229.661 449.997 227.919 449.384 226.566 448.219C225.212 447.055 224.345 445.425 224.136 443.652C224.136 443.458 224.096 443.257 224.088 443.064C224.075 442.698 224.208 442.342 224.458 442.074C224.581 441.94 224.731 441.833 224.897 441.758C225.063 441.683 225.242 441.643 225.424 441.639L237.177 441.245C237.359 441.237 237.54 441.266 237.711 441.329C237.881 441.393 238.037 441.489 238.17 441.614C238.303 441.738 238.409 441.888 238.483 442.054C238.557 442.22 238.598 442.399 238.602 442.581V442.581Z" fill="#962F4A"/>
<path d="M231.551 448.844C231.568 449.213 231.543 449.583 231.478 449.947H231.438C229.654 450.007 227.912 449.394 226.56 448.229C225.207 447.064 224.342 445.433 224.137 443.66C224.645 443.495 225.173 443.4 225.706 443.378C226.45 443.35 227.191 443.47 227.888 443.73C228.585 443.99 229.224 444.385 229.767 444.893C230.311 445.402 230.748 446.012 231.054 446.69C231.36 447.368 231.529 448.1 231.551 448.844Z" fill="#E1617F"/>
<path d="M236.919 441.261C236.919 442.654 234.794 443.845 232.146 443.933C229.497 444.022 227.316 442.976 227.211 441.583L236.919 441.261Z" fill="white"/>
</svg>
