<svg width="1182" height="1182" viewBox="0 0 1182 1182" fill="none" xmlns="http://www.w3.org/2000/svg">
<path d="M1176.68 757.662V773.714C1176.7 797.668 1167.82 820.774 1151.77 838.555C1135.72 856.336 1113.63 867.524 1089.8 869.952C1086.79 870.248 1083.73 870.413 1080.63 870.425H1080.1C1072.76 870.426 1065.5 871.873 1058.72 874.682C1051.94 877.492 1045.78 881.609 1040.59 886.798C1035.41 891.987 1031.29 898.148 1028.49 904.927C1025.68 911.707 1024.24 918.972 1024.24 926.31V1010.03C1024.24 1025.48 1019.53 1040.56 1010.72 1053.26C1001.92 1065.96 989.453 1075.66 974.984 1081.08C971.989 1082.22 968.921 1083.15 965.8 1083.87C960.088 1085.22 954.236 1085.9 948.366 1085.89H109.926C52.1376 1085.89 5.29492 1048.16 5.29492 973.058C5.29723 968.748 5.55773 964.441 6.07504 960.162C9.21408 934.829 21.5023 911.515 40.6279 894.608C59.7535 877.7 84.3982 868.364 109.926 868.356H137.596C144.935 868.361 152.204 866.919 158.985 864.113C165.767 861.307 171.929 857.192 177.119 852.003C182.309 846.813 186.426 840.652 189.233 833.871C192.041 827.09 193.484 819.822 193.481 812.483V791.81C193.48 765.475 201.432 739.754 216.294 718.014C231.157 696.273 252.238 679.528 276.777 669.969C279.779 668.787 282.84 667.712 285.961 666.79C296.465 663.569 307.336 661.694 318.312 661.211C320.262 661.128 322.236 661.081 324.222 661.081C339.041 661.081 353.252 655.194 363.73 644.716C374.209 634.238 380.095 620.026 380.095 605.208C380.095 590.389 374.209 576.178 363.73 565.699C353.252 555.221 339.041 549.335 324.222 549.335H181.058C177.725 549.335 174.416 549.193 171.153 548.921C167.891 548.649 164.995 548.294 161.969 547.739C134.441 543.203 109.419 529.036 91.3659 507.765C73.3129 486.493 63.4026 459.501 63.4026 431.601C63.4026 403.702 73.3129 376.71 91.3659 355.438C109.419 334.167 134.441 320 161.969 315.464C164.995 314.968 168.045 314.589 171.153 314.353C174.262 314.117 177.713 313.927 181.058 313.927H360.344C367.683 313.931 374.951 312.487 381.732 309.68C388.513 306.872 394.674 302.756 399.864 297.565C405.053 292.375 409.168 286.213 411.974 279.432C414.78 272.65 416.222 265.382 416.217 258.043C416.223 242.133 422.162 226.798 432.873 215.033C443.583 203.269 458.296 195.922 474.135 194.427C476.135 194.231 478.143 194.137 480.152 194.144H496.794C500.039 194.147 503.279 193.866 506.475 193.304C509.595 192.756 512.663 191.946 515.647 190.881C518.271 189.955 520.816 188.82 523.259 187.489C534.336 181.501 543.078 171.964 548.081 160.409C550.755 154.236 552.281 147.627 552.585 140.906C552.585 140.032 552.656 139.145 552.656 138.259V130.221C552.662 115.405 558.55 101.197 569.027 90.7197C579.504 80.2428 593.712 74.3542 608.529 74.348H932.196C944.307 74.3299 956.093 78.2641 965.765 85.5533C969.141 88.097 972.222 91.0111 974.949 94.241L975.02 94.3356C983.456 104.386 988.062 117.099 988.022 130.221V138.294V140.942C987.329 155.281 981.145 168.804 970.752 178.707C960.358 188.61 946.552 194.133 932.196 194.132H907.516C900.177 194.126 892.909 195.566 886.128 198.371C879.346 201.176 873.184 205.29 867.994 210.478C862.803 215.666 858.686 221.826 855.879 228.607C853.071 235.387 851.628 242.654 851.631 249.993V258.031C851.608 265.808 853.219 273.503 856.359 280.619C857.431 283.039 858.671 285.381 860.07 287.628C865.083 295.679 872.066 302.319 880.36 306.919C888.654 311.519 897.984 313.927 907.468 313.916H1059C1066.24 313.909 1073.47 314.57 1080.6 315.89C1083.69 316.457 1086.77 317.154 1089.77 317.982C1114.71 324.755 1136.74 339.55 1152.44 360.083C1168.14 380.616 1176.65 405.747 1176.65 431.596C1176.65 457.444 1168.14 482.575 1152.44 503.108C1136.74 523.641 1114.71 538.436 1089.77 545.209C1086.77 546.025 1083.69 546.722 1080.6 547.29C1073.47 548.612 1066.24 549.277 1059 549.275H985.788C982.153 549.27 978.526 549.623 974.961 550.327C971.828 550.932 968.755 551.81 965.776 552.951C963.783 553.732 961.834 554.62 959.937 555.611C956.53 557.383 953.318 559.507 950.351 561.947C943.944 567.182 938.783 573.778 935.244 581.257C931.705 588.736 929.876 596.91 929.891 605.184V606.366C930.188 620.989 936.21 634.912 946.662 645.143C957.114 655.374 971.162 661.096 985.788 661.081H1080.61C1083.7 661.081 1086.78 661.27 1089.78 661.577C1095.65 662.157 1101.45 663.276 1107.11 664.922C1107.94 665.159 1108.75 665.407 1109.55 665.667C1129.04 671.919 1146.04 684.196 1158.11 700.728C1170.17 717.261 1176.67 737.196 1176.68 757.662V757.662Z" fill="#F3F4FE"/>
<path d="M171.153 314.412V548.921C168.044 548.661 164.995 548.294 161.969 547.739V315.511C164.995 315.015 168.044 314.637 171.153 314.412V314.412Z" fill="#EDEEFE"/>
<path d="M171.153 857.198V1077.64H161.934V862.789C165.179 861.225 168.266 859.353 171.153 857.198Z" fill="#EDEEFE"/>
<path d="M276.801 313.974H285.985V549.334H276.801V313.974Z" fill="#EDEEFE"/>
<path d="M286.044 666.789V1077.64H276.86V669.969C279.804 668.787 282.865 667.711 286.044 666.789Z" fill="#EDEEFE"/>
<path d="M400.817 296.682V1077.64H391.633V304.377C394.961 302.149 398.041 299.569 400.817 296.682V296.682Z" fill="#EDEEFE"/>
<path d="M515.635 190.928V1077.64H506.463V193.351C509.583 192.803 512.651 191.993 515.635 190.928V190.928Z" fill="#EDEEFE"/>
<path d="M621.294 74.3948H630.478V1077.63H621.294V74.3948Z" fill="#EDEEFE"/>
<path d="M736.102 74.3948H745.297V1077.63H736.102V74.3948Z" fill="#EDEEFE"/>
<path d="M851.631 250.052V258.089C851.626 260.524 851.784 262.957 852.104 265.371C853.141 273.299 855.874 280.91 860.118 287.687V1077.64H850.934V74.3948H860.118V220.455C854.562 229.326 851.62 239.584 851.631 250.052V250.052Z" fill="#EDEEFE"/>
<path d="M974.95 94.288V174.286C972.226 177.519 969.145 180.433 965.766 182.974V85.6003C969.142 88.144 972.223 91.0581 974.95 94.288V94.288Z" fill="#EDEEFE"/>
<path d="M974.95 313.974V550.374C971.817 550.977 968.744 551.855 965.766 552.998V313.974H974.95Z" fill="#EDEEFE"/>
<path d="M965.766 657.405C968.746 658.542 971.819 659.42 974.95 660.029V1072.82C971.955 1073.96 968.887 1074.89 965.766 1075.62V657.405Z" fill="#EDEEFE"/>
<path d="M1089.8 318.04V545.268C1086.8 546.084 1083.73 546.781 1080.63 547.348V315.948C1083.69 316.515 1086.76 317.213 1089.8 318.04V318.04Z" fill="#EDEEFE"/>
<path d="M1080.6 661.08C1083.69 661.08 1086.77 661.269 1089.77 661.577V869.952C1086.75 870.247 1083.69 870.413 1080.6 870.424V661.08Z" fill="#EDEEFE"/>
<path d="M539.664 425.757V445.544L524.807 454.68V425.757H539.664Z" fill="#D2D6FA"/>
<path d="M371.596 425.757V454.68L356.738 445.544V425.757H371.596Z" fill="#D2D6FA"/>
<path d="M327.011 425.745H560.881L567.962 408.464H319.919L327.011 425.745Z" fill="#D2D6FA"/>
<path d="M356.738 425.756H371.608V434.385H356.738V425.756Z" fill="#BEC4ED"/>
<path d="M524.808 425.756H539.665V434.385H524.808V425.756Z" fill="#BEC4ED"/>
<path d="M365.404 294.318H372.862C375.48 294.318 377.99 295.358 379.841 297.209C381.692 299.06 382.732 301.57 382.732 304.188V408.464H355.546V304.188C355.546 301.572 356.584 299.063 358.433 297.213C360.281 295.362 362.788 294.321 365.404 294.318V294.318Z" fill="#ADB6E0"/>
<path d="M369.138 354.21C373.199 354.21 376.49 350.919 376.49 346.858C376.49 342.798 373.199 339.506 369.138 339.506C365.078 339.506 361.786 342.798 361.786 346.858C361.786 350.919 365.078 354.21 369.138 354.21Z" fill="#D2D6FA"/>
<path d="M397.789 317.804H407.399C409.731 317.804 411.968 318.73 413.617 320.38C415.266 322.029 416.193 324.266 416.193 326.598V408.452H389.007V326.61C389.005 325.455 389.231 324.311 389.672 323.244C390.112 322.176 390.759 321.206 391.574 320.388C392.39 319.57 393.358 318.921 394.425 318.478C395.491 318.035 396.634 317.806 397.789 317.804V317.804Z" fill="#ADB6E0"/>
<path d="M402.601 372.602C406.661 372.602 409.953 369.31 409.953 365.249C409.953 361.189 406.661 357.897 402.601 357.897C398.541 357.897 395.249 361.189 395.249 365.249C395.249 369.31 398.541 372.602 402.601 372.602Z" fill="#D2D6FA"/>
<path d="M428.711 349.163H434.976C436.503 349.163 437.967 349.77 439.046 350.849C440.126 351.929 440.732 353.393 440.732 354.919V408.464H422.955V354.919C422.955 353.393 423.562 351.929 424.641 350.849C425.721 349.77 427.185 349.163 428.711 349.163V349.163Z" fill="#ADB6E0"/>
<path d="M431.855 385.013C434.512 385.013 436.665 382.859 436.665 380.202C436.665 377.545 434.512 375.391 431.855 375.391C429.198 375.391 427.044 377.545 427.044 380.202C427.044 382.859 429.198 385.013 431.855 385.013Z" fill="#D2D6FA"/>
<path d="M506.085 287.794H542.881C543.856 287.794 544.791 288.181 545.48 288.87C546.169 289.56 546.557 290.495 546.557 291.47V408.216H506.085V287.794V287.794Z" fill="#93A0CE"/>
<path d="M503.45 287.794H540.245V408.228H499.762V291.481C499.76 290.997 499.854 290.516 500.039 290.068C500.224 289.62 500.496 289.213 500.838 288.87C501.181 288.528 501.588 288.256 502.036 288.071C502.485 287.886 502.965 287.792 503.45 287.794V287.794Z" fill="#ADB6E0"/>
<path d="M519.454 317.391C524.826 317.391 529.181 313.036 529.181 307.663C529.181 302.291 524.826 297.935 519.454 297.935C514.081 297.935 509.726 302.291 509.726 307.663C509.726 313.036 514.081 317.391 519.454 317.391Z" fill="#93A0CE"/>
<path d="M519.453 312.072C521.888 312.072 523.862 310.098 523.862 307.663C523.862 305.228 521.888 303.254 519.453 303.254C517.018 303.254 515.044 305.228 515.044 307.663C515.044 310.098 517.018 312.072 519.453 312.072Z" fill="#D2D6FA"/>
<path d="M519.454 354.482C524.826 354.482 529.181 350.126 529.181 344.754C529.181 339.381 524.826 335.026 519.454 335.026C514.081 335.026 509.726 339.381 509.726 344.754C509.726 350.126 514.081 354.482 519.454 354.482Z" fill="#93A0CE"/>
<path d="M519.453 349.163C521.888 349.163 523.862 347.189 523.862 344.754C523.862 342.319 521.888 340.345 519.453 340.345C517.018 340.345 515.044 342.319 515.044 344.754C515.044 347.189 517.018 349.163 519.453 349.163Z" fill="#D2D6FA"/>
<path d="M519.455 405.71C528.183 405.71 535.258 398.634 535.258 389.906C535.258 381.178 528.183 374.103 519.455 374.103C510.727 374.103 503.651 381.178 503.651 389.906C503.651 398.634 510.727 405.71 519.455 405.71Z" fill="#93A0CE"/>
<path d="M519.452 397.081C523.415 397.081 526.627 393.869 526.627 389.907C526.627 385.944 523.415 382.732 519.452 382.732C515.49 382.732 512.277 385.944 512.277 389.907C512.277 393.869 515.49 397.081 519.452 397.081Z" fill="#D2D6FA"/>
<path d="M1154.51 1084.93H1081.84C1075.58 1084.93 1070.5 1090.01 1070.5 1096.27C1070.5 1102.53 1075.58 1107.61 1081.84 1107.61H1154.51C1160.77 1107.61 1165.84 1102.53 1165.84 1096.27C1165.84 1090.01 1160.77 1084.93 1154.51 1084.93Z" fill="#D2D6FA"/>
<path d="M1049.93 1084.93H29.9516C23.6912 1084.93 18.6162 1090.01 18.6162 1096.27C18.6162 1102.53 23.6912 1107.61 29.9516 1107.61H1049.93C1056.2 1107.61 1061.27 1102.53 1061.27 1096.27C1061.27 1090.01 1056.2 1084.93 1049.93 1084.93Z" fill="#D2D6FA"/>
<path d="M906.275 684.945H1028.02C1031.25 684.945 1034.35 686.228 1036.63 688.511C1038.91 690.795 1040.2 693.891 1040.2 697.12V1083.34H906.275V685.005V684.945Z" fill="#6675AD"/>
<path d="M897.553 684.946H1019.3V1083.28H885.319V697.12C885.319 695.516 885.636 693.928 886.252 692.447C886.867 690.966 887.769 689.622 888.906 688.49C890.043 687.359 891.392 686.464 892.876 685.855C894.36 685.247 895.949 684.938 897.553 684.946V684.946Z" fill="#7986BF"/>
<path d="M950.492 782.815C968.262 782.815 982.667 768.41 982.667 750.641C982.667 732.872 968.262 718.467 950.492 718.467C932.723 718.467 918.318 732.872 918.318 750.641C918.318 768.41 932.723 782.815 950.492 782.815Z" fill="#6675AD"/>
<path d="M950.493 765.239C958.555 765.239 965.091 758.703 965.091 750.641C965.091 742.579 958.555 736.044 950.493 736.044C942.431 736.044 935.896 742.579 935.896 750.641C935.896 758.703 942.431 765.239 950.493 765.239Z" fill="#F3F4FE"/>
<path d="M950.492 905.53C968.262 905.53 982.667 891.126 982.667 873.356C982.667 855.587 968.262 841.182 950.492 841.182C932.723 841.182 918.318 855.587 918.318 873.356C918.318 891.126 932.723 905.53 950.492 905.53Z" fill="#6675AD"/>
<path d="M950.493 887.954C958.555 887.954 965.091 881.418 965.091 873.356C965.091 865.294 958.555 858.758 950.493 858.758C942.431 858.758 935.896 865.294 935.896 873.356C935.896 881.418 942.431 887.954 950.493 887.954Z" fill="#F3F4FE"/>
<path d="M950.494 1074.99C979.367 1074.99 1002.77 1051.59 1002.77 1022.71C1002.77 993.84 979.367 970.434 950.494 970.434C921.62 970.434 898.214 993.84 898.214 1022.71C898.214 1051.59 921.62 1074.99 950.494 1074.99Z" fill="#6675AD"/>
<path d="M950.493 1046.44C963.595 1046.44 974.216 1035.82 974.216 1022.71C974.216 1009.61 963.595 998.991 950.493 998.991C937.392 998.991 926.771 1009.61 926.771 1022.71C926.771 1035.82 937.392 1046.44 950.493 1046.44Z" fill="#F3F4FE"/>
<path d="M438.9 536.404L465.614 633.327L467.422 639.935L464.573 640.786L381.337 665.324C378.396 666.189 375.387 666.802 372.342 667.156C371.834 667.215 371.302 667.286 370.805 667.322C370.309 667.357 369.623 667.416 369.032 667.44C368.441 667.464 367.85 667.44 367.318 667.499C366.787 667.558 366.278 667.499 365.735 667.499C364.434 667.499 363.099 667.44 361.81 667.345L360.262 667.18C359.494 667.109 358.725 667.003 357.898 666.873C357.401 666.79 356.905 666.719 356.409 666.612C355.475 666.459 354.553 666.27 353.631 666.045C341.447 663.112 330.662 656.033 323.123 646.022C322.71 645.455 322.308 644.84 321.941 644.308C319.511 640.783 317.507 636.982 315.972 632.985C315.464 631.625 314.991 630.242 314.578 628.812C314.164 627.382 313.892 626.283 313.632 625.03C310.811 611.808 313.087 598.01 320.003 586.394C326.92 574.779 337.968 566.203 350.936 562.384L438.9 536.404Z" fill="#E07373"/>
<path d="M386.443 637.098C383.819 642.864 379.921 647.96 375.042 652.002C370.163 656.044 364.43 658.925 358.276 660.431C357.732 660.586 357.18 660.712 356.622 660.809C355.44 661.045 354.352 661.211 353.217 661.365C352.934 661.365 352.638 661.435 352.331 661.459C352.024 661.483 351.539 661.542 351.149 661.565C349.967 661.648 348.868 661.672 347.733 661.648C347.307 661.648 346.894 661.648 346.468 661.648C345.437 661.622 344.407 661.543 343.383 661.412L341.929 661.211C340.559 661.022 339.201 660.75 337.863 660.395C337.296 660.265 336.681 660.1 336.185 659.934C335.688 659.769 335.003 659.591 334.518 659.391C334.034 659.19 333.431 659 332.875 658.788C332.32 658.575 331.788 658.35 331.256 658.114L329.637 657.358C326.938 656.017 324.39 654.393 322.036 652.511L308.077 641.353L222.051 572.596C220.676 571.499 219.373 570.314 218.15 569.05C217.607 568.506 217.087 567.939 216.59 567.384C216.094 566.828 215.408 566.012 214.912 565.315C214.522 564.807 214.155 564.299 213.789 563.767C213.364 563.16 212.969 562.533 212.607 561.887C212.323 561.45 212.063 561.001 211.803 560.552C211.752 560.479 211.712 560.399 211.685 560.315C211.436 559.917 211.215 559.502 211.023 559.074C210.609 558.318 210.243 557.561 209.9 556.769C209.782 556.497 209.652 556.214 209.545 555.93C209.439 555.646 209.238 555.162 209.096 554.748C209.096 554.748 209.096 554.689 209.096 554.653C208.907 554.145 208.718 553.625 208.552 553.093C208.065 551.698 207.67 550.273 207.37 548.826C207.252 548.439 207.161 548.044 207.099 547.644C206.921 546.699 206.779 545.753 206.661 544.796C206.606 544.323 206.559 543.862 206.519 543.413C206.508 543.212 206.508 543.011 206.519 542.81C206.519 542.325 206.519 541.841 206.449 541.368C206.378 540.895 206.449 540.268 206.449 539.701C206.431 539.655 206.431 539.605 206.449 539.559C206.449 539.027 206.449 538.472 206.449 537.94C206.449 537.408 206.449 536.758 206.543 536.214C206.638 535.032 206.779 533.933 206.98 532.786C207.04 532.42 207.122 532.006 207.205 531.604C208.626 524.547 211.835 517.972 216.527 512.511C221.218 507.05 227.233 502.885 233.996 500.416C240.758 497.947 248.042 497.257 255.148 498.411C262.254 499.565 268.945 502.525 274.579 507.007L374.553 586.91C381.841 592.757 386.968 600.869 389.122 609.961C391.276 619.052 390.334 628.603 386.443 637.098V637.098Z" fill="#EDBA70"/>
<path d="M386.443 637.098C383.819 642.864 379.921 647.96 375.042 652.002C370.163 656.043 364.431 658.925 358.276 660.431C357.732 660.586 357.18 660.712 356.622 660.809C355.511 661.057 354.364 661.223 353.217 661.364C352.934 661.364 352.638 661.435 352.331 661.459C352.024 661.483 351.539 661.542 351.149 661.565C349.967 661.648 348.868 661.672 347.733 661.648C347.307 661.648 346.894 661.648 346.468 661.648C345.437 661.622 344.407 661.543 343.383 661.412L341.929 661.211C340.559 661.022 339.201 660.75 337.863 660.395C337.296 660.265 336.681 660.1 336.185 659.934C335.688 659.769 335.003 659.591 334.518 659.39C334.034 659.19 333.431 659 332.875 658.788C332.32 658.575 331.788 658.35 331.256 658.114L329.637 657.357C329.306 657.204 328.975 657.026 328.655 656.861L328.277 656.696C327.556 656.376 326.835 656.045 326.126 655.691C325.417 655.336 324.944 655.076 324.247 654.733L323.774 654.462C323.159 654.119 322.533 653.764 321.93 653.398L320.972 652.795C320.322 652.369 319.684 651.968 319.058 651.53L318.171 650.892C317.568 650.443 316.989 649.994 316.351 649.509C315.476 648.835 314.637 648.114 313.786 647.358C312.71 646.388 311.67 645.372 310.642 644.296C309.613 643.221 308.892 642.358 308.077 641.353L222.051 572.596C220.676 571.499 219.373 570.314 218.15 569.05C217.607 568.506 217.087 567.939 216.59 567.384C216.094 566.828 215.408 566.012 214.912 565.315C214.522 564.807 214.155 564.299 213.789 563.767C213.364 563.16 212.969 562.533 212.607 561.887C212.323 561.45 212.063 561.001 211.803 560.552C211.752 560.479 211.712 560.399 211.685 560.315C211.436 559.917 211.215 559.502 211.023 559.074C210.609 558.318 210.243 557.561 209.9 556.769C209.782 556.497 209.652 556.214 209.545 555.93C209.439 555.646 209.238 555.162 209.096 554.748C209.096 554.748 209.096 554.689 209.096 554.653C208.907 554.145 208.718 553.625 208.552 553.093C208.065 551.698 207.67 550.273 207.37 548.826C207.252 548.439 207.161 548.044 207.099 547.644C206.921 546.699 206.756 545.741 206.661 544.796C206.606 544.323 206.559 543.862 206.519 543.413C206.508 543.212 206.508 543.011 206.519 542.81C206.519 542.325 206.519 541.841 206.449 541.368C206.378 540.895 206.449 540.268 206.449 539.701C206.431 539.655 206.431 539.605 206.449 539.559C206.449 539.027 206.449 538.472 206.449 537.94C206.425 537.499 206.425 537.057 206.449 536.616C206.449 536.486 206.449 536.368 206.449 536.214C206.543 535.032 206.685 533.933 206.886 532.786C206.945 532.396 207.016 531.994 207.099 531.604C207.371 537.563 208.915 543.394 211.627 548.706C214.338 554.019 218.154 558.691 222.819 562.407L298.254 622.689L308.892 631.176L322.828 642.322C324.908 643.989 327.145 645.449 329.507 646.684C334.9 648.983 340.634 650.38 346.48 650.821C350.803 651.139 355.147 650.94 359.423 650.23C369.501 648.53 378.88 643.972 386.443 637.098V637.098Z" fill="#38CEA1"/>
<path d="M442.563 631.779C410.543 604.805 407.34 568.01 422.198 541.19L498.602 518.98C504.548 517.25 510.861 517.23 516.817 518.924C522.773 520.617 528.131 523.955 532.277 528.555C539.158 536.176 544.214 545.262 547.064 555.126C561.52 604.829 516.71 657.7 454.194 638.138C449.934 636.81 445.981 634.648 442.563 631.779V631.779Z" fill="#E07373"/>
<path d="M375.072 742.296L228.752 800.214L143.412 542.538C137.868 525.789 145.776 507.29 161.142 501.168L176.697 495.009C233.586 472.481 296.421 504.666 317.024 566.887L375.072 742.296Z" fill="#F8C97B"/>
<path d="M238.138 490.731C222.145 507.279 194.203 506.038 172.241 496.819L174.073 470.992L177.076 428.44H234.273L236.849 469.81L238.138 490.731Z" fill="#F5A491"/>
<path d="M236.85 469.833C219.746 482.421 187.856 471.488 174.83 460.306L177.076 428.463H234.273L236.85 469.833Z" fill="#EF927F"/>
<path d="M767.246 1077.32L646.552 1079.98C643.932 1080.03 641.327 1079.56 638.892 1078.59C636.456 1077.62 634.238 1076.18 632.368 1074.34C629.37 1071.38 627.399 1067.53 626.742 1063.36L623.468 1042.09L620.808 1024.9L617.38 1002.71L615.536 990.8L615.253 989.039L614.473 984.004L678.064 973.933L678.478 976.486L678.868 978.98L681.031 992.656L684.152 1012.34L686.61 1027.95C686.731 1028.72 686.934 1029.48 687.213 1030.21C687.994 1032.33 689.361 1034.2 691.156 1035.58C692.95 1036.96 695.099 1037.81 697.355 1038.02C697.813 1038.07 698.275 1038.1 698.738 1038.09L725.663 1037.5C734.907 1037.3 743.944 1040.25 751.289 1045.87C758.635 1051.48 763.854 1059.43 766.088 1068.4C766.626 1070.56 766.978 1072.76 767.14 1074.98C767.199 1075.77 767.223 1076.55 767.246 1077.32V1077.32Z" fill="#F5A491"/>
<path d="M612.854 1084.46L768.169 1084.53C769.247 1084.53 770.315 1084.31 771.309 1083.9C772.303 1083.48 773.204 1082.87 773.958 1082.1C774.713 1081.33 775.307 1080.41 775.705 1079.41C776.103 1078.41 776.298 1077.34 776.278 1076.26C776.253 1075.18 776.014 1074.11 775.574 1073.13C775.133 1072.14 774.5 1071.25 773.712 1070.52C772.924 1069.78 771.996 1069.2 770.984 1068.83C769.971 1068.45 768.894 1068.28 767.814 1068.33L612.653 1075.23C611.444 1075.28 610.304 1075.81 609.477 1076.69C608.651 1077.58 608.204 1078.75 608.233 1079.96C608.267 1081.16 608.768 1082.31 609.631 1083.15C610.494 1083.99 611.65 1084.46 612.854 1084.46V1084.46Z" fill="#65617B"/>
<path d="M768.679 1074.96L677.157 1076.97C677.025 1070.96 678.078 1064.98 680.255 1059.38C682.433 1053.78 685.693 1048.66 689.849 1044.32C694.005 1039.97 698.976 1036.49 704.477 1034.07C709.979 1031.65 715.903 1030.33 721.913 1030.2C727.922 1030.07 733.899 1031.12 739.501 1033.3C745.104 1035.48 750.222 1038.74 754.565 1042.89C758.908 1047.05 762.389 1052.02 764.811 1057.52C767.232 1063.02 768.547 1068.95 768.679 1074.96V1074.96Z" fill="#65617B"/>
<path d="M687.18 1030.21L623.434 1042.03L620.775 1024.84L617.347 1002.65L615.503 990.74L678.835 978.92L680.998 992.596L684.118 1012.28L686.577 1027.89C686.694 1028.68 686.896 1029.46 687.18 1030.21V1030.21Z" fill="#EF927F"/>
<path d="M876.466 842.766L777.757 912.185C775.61 913.695 773.181 914.76 770.615 915.316C768.049 915.873 765.397 915.909 762.817 915.424C758.674 914.632 754.892 912.536 752.025 909.443L737.416 893.592L725.596 880.803L710.383 864.255L702.204 855.378L701.022 854.078L697.57 850.331L744.756 806.526L746.517 808.417L748.231 810.261L757.687 820.415L771.244 835.024L781.977 846.608C782.515 847.177 783.105 847.695 783.738 848.156C785.574 849.483 787.747 850.264 790.008 850.41C792.268 850.557 794.524 850.062 796.516 848.983C796.93 848.783 797.326 848.546 797.698 848.274L819.718 832.837C827.287 827.511 836.442 824.919 845.679 825.486C854.915 826.053 863.685 829.746 870.544 835.958C872.195 837.456 873.713 839.093 875.083 840.851C875.556 841.454 876.017 842.081 876.466 842.766V842.766Z" fill="#F5A491"/>
<path d="M752.249 934.69L881.241 848.18C882.137 847.578 882.904 846.804 883.497 845.902C884.09 845 884.497 843.989 884.695 842.928C884.892 841.866 884.875 840.776 884.645 839.722C884.415 838.667 883.977 837.669 883.357 836.785C882.736 835.902 881.945 835.151 881.029 834.577C880.114 834.004 879.093 833.619 878.027 833.446C876.961 833.273 875.871 833.316 874.821 833.57C873.771 833.825 872.783 834.287 871.915 834.93L746.93 927.126C745.959 927.844 745.307 928.914 745.115 930.107C744.922 931.3 745.205 932.521 745.902 933.508C746.597 934.495 747.649 935.171 748.835 935.392C750.021 935.612 751.246 935.361 752.249 934.69V934.69Z" fill="#65617B"/>
<path d="M876.336 839.941L801.467 892.634C797.929 887.722 795.4 882.157 794.027 876.26C792.654 870.364 792.464 864.254 793.468 858.284C794.472 852.314 796.651 846.603 799.877 841.48C803.103 836.357 807.314 831.926 812.264 828.441C817.215 824.957 822.808 822.489 828.719 821.181C834.63 819.872 840.741 819.749 846.7 820.819C852.659 821.888 858.346 824.129 863.433 827.411C868.52 830.693 872.906 834.952 876.336 839.941V839.941Z" fill="#65617B"/>
<path d="M783.665 848.227L737.414 893.592L725.594 880.803L710.382 864.255L702.202 855.378L748.206 810.332L757.661 820.485L771.219 835.095L781.952 846.679C782.475 847.246 783.048 847.764 783.665 848.227V848.227Z" fill="#EF927F"/>
<path d="M609.428 650.68L778.383 827.684L718.656 887.186L542.397 717.403C537.861 713.037 534.244 707.809 531.756 702.025C529.269 696.242 527.961 690.02 527.911 683.724C527.86 677.429 529.067 671.187 531.461 665.364C533.856 659.541 537.388 654.256 541.853 649.817C546.313 645.375 551.615 641.868 557.448 639.502C563.281 637.136 569.528 635.959 575.822 636.039C582.116 636.12 588.331 637.456 594.101 639.97C599.872 642.484 605.083 646.125 609.428 650.68V650.68Z" fill="#65617B"/>
<path d="M669.296 770.664L692.262 1014.29L608.458 1023.95L575.362 781.503C574.509 775.267 574.91 768.923 576.54 762.844C578.171 756.764 581 751.072 584.859 746.1C588.719 741.128 593.533 736.977 599.018 733.89C604.504 730.803 610.55 728.843 616.803 728.124C623.054 727.402 629.387 727.936 635.429 729.694C641.472 731.451 647.102 734.398 651.991 738.36C656.88 742.322 660.929 747.22 663.901 752.767C666.872 758.314 668.706 764.399 669.296 770.664Z" fill="#56526A"/>
<path d="M264.839 727.828H621.235C634.045 727.828 646.329 732.917 655.386 741.974C664.444 751.031 669.532 763.316 669.532 776.125C669.532 788.934 664.444 801.218 655.386 810.275C646.329 819.333 634.045 824.421 621.235 824.421H264.839V727.828V727.828Z" fill="#56526A"/>
<path d="M652.37 1019.17L633.458 817.377C632.234 804.436 626.119 792.45 616.359 783.863C606.6 775.277 593.933 770.738 580.942 771.172L249.001 782.567L248.918 780.049L580.859 768.655C594.486 768.205 607.772 772.967 618.01 781.971C628.248 790.975 634.669 803.544 635.964 817.117L654.876 1018.91L652.37 1019.17Z" fill="#EDEEFE"/>
<path d="M225.974 778.308L554.835 640.945C566.654 636.008 579.951 635.968 591.799 640.835C603.648 645.702 613.078 655.076 618.015 666.895C622.952 678.715 622.991 692.011 618.124 703.86C613.258 715.708 603.884 725.138 592.064 730.075L263.203 867.438L225.974 778.308V778.308Z" fill="#65617B"/>
<path d="M628.988 728.112C627.806 727.994 626.624 727.911 625.336 727.888L611.979 713.526C602.419 703.253 589.896 696.213 576.151 693.383C562.406 690.553 548.12 692.074 535.279 697.735L245.689 825.592L244.685 823.299L534.263 695.406C547.581 689.535 562.397 687.958 576.653 690.894C590.909 693.83 603.897 701.133 613.811 711.789L628.988 728.112Z" fill="#F3F4FE"/>
<path d="M751.077 859.349L749.245 861.063L669.117 774.931L668.976 771.078L751.077 859.349Z" fill="#F3F4FE"/>
<path d="M770.865 813.108L707.454 878.84C704.054 882.364 704.155 887.976 707.679 891.375L707.688 891.384C711.211 894.783 716.823 894.682 720.223 891.158L783.634 825.425C787.033 821.902 786.932 816.29 783.408 812.89L783.4 812.882C779.876 809.483 774.264 809.584 770.865 813.108Z" fill="#65617B"/>
<path d="M251.687 388.401C260.988 387.398 266.897 371.449 264.885 352.776C262.873 334.103 253.702 319.778 244.401 320.78C235.1 321.782 229.192 337.732 231.204 356.405C233.216 375.078 242.387 389.403 251.687 388.401Z" fill="#7C5B5D"/>
<path d="M128.414 364.257L134.075 398.097C137.519 418.623 148.975 436.941 165.923 449.022C182.872 461.102 203.924 465.956 224.451 462.516C236.797 460.442 247.814 453.548 255.078 443.351C262.342 433.155 265.258 420.491 263.185 408.144L255.136 360.072L253.765 351.952L253.256 348.961L251.767 340.12C250.913 335.028 249.064 330.154 246.326 325.777C243.588 321.4 240.014 317.605 235.809 314.61C231.604 311.614 226.85 309.476 221.818 308.319C216.787 307.161 211.576 307.006 206.485 307.863L198.093 309.27L163.448 315.074C158.974 315.811 154.648 317.263 150.635 319.376C142.064 323.897 135.276 331.188 131.38 340.061C128.042 347.661 127.01 356.075 128.414 364.257V364.257Z" fill="#F5A491"/>
<path d="M139.191 364.812C150.101 386.017 188.386 388.05 224.697 369.363C235.184 364.036 244.811 357.162 253.254 348.973L251.765 340.12C250.911 335.028 249.062 330.154 246.324 325.777C243.586 321.4 240.012 317.605 235.807 314.61C231.602 311.614 226.848 309.476 221.816 308.319C216.784 307.161 211.574 307.006 206.483 307.863L198.09 309.27L163.446 315.074C158.972 315.811 154.645 317.263 150.633 319.376C137.56 334.919 132.56 351.928 139.191 364.812V364.812Z" fill="#EF927F"/>
<path d="M195.49 388.819C198.486 388.819 200.915 386.39 200.915 383.393C200.915 380.397 198.486 377.968 195.49 377.968C192.493 377.968 190.064 380.397 190.064 383.393C190.064 386.39 192.493 388.819 195.49 388.819Z" fill="#5E4041"/>
<path d="M233.67 387.578C236.666 387.578 239.095 385.149 239.095 382.153C239.095 379.156 236.666 376.727 233.67 376.727C230.673 376.727 228.244 379.156 228.244 382.153C228.244 385.149 230.673 387.578 233.67 387.578Z" fill="#5E4041"/>
<path d="M223.28 403.263C223.338 404.859 223.08 406.45 222.52 407.945C221.96 409.44 221.109 410.81 220.017 411.975C219.745 412.258 219.462 412.53 219.166 412.802C217.065 414.661 214.382 415.731 211.578 415.828H211.093C208.042 415.926 205.065 414.875 202.751 412.883C200.438 410.891 198.956 408.104 198.599 405.072C198.554 404.739 198.526 404.403 198.517 404.067C198.498 403.442 198.727 402.835 199.154 402.379C199.582 401.922 200.173 401.654 200.798 401.632L220.892 400.958C221.513 400.952 222.111 401.19 222.558 401.622C223.005 402.053 223.264 402.643 223.28 403.263V403.263Z" fill="#962F4A"/>
<path d="M211.222 413.972C211.248 414.601 211.208 415.231 211.104 415.852H211.033C207.982 415.952 205.005 414.902 202.693 412.909C200.381 410.916 198.902 408.127 198.551 405.095C199.419 404.815 200.322 404.656 201.234 404.623C203.798 404.54 206.29 405.478 208.162 407.231C210.035 408.984 211.135 411.408 211.222 413.972V413.972Z" fill="#E1617F"/>
<path d="M220.397 400.993C220.397 403.357 216.768 405.426 212.253 405.568C207.738 405.71 203.979 403.937 203.813 401.561L220.397 400.993Z" fill="white"/>
<path d="M131.858 419.969L129.003 420.277L121.973 355.042L154.879 351.496L158.67 386.682C159.529 394.651 157.187 402.636 152.158 408.878C147.13 415.121 139.828 419.111 131.858 419.969V419.969Z" fill="#7C5B5D"/>
<path d="M140.458 423.889C151.484 423.889 160.422 414.951 160.422 403.925C160.422 392.899 151.484 383.961 140.458 383.961C129.432 383.961 120.494 392.899 120.494 403.925C120.494 414.951 129.432 423.889 140.458 423.889Z" fill="#F5A491"/>
<path d="M134.215 402.318C134.175 404.014 134.635 405.685 135.54 407.121C136.444 408.556 137.751 409.694 139.298 410.391C139.67 410.544 140.074 410.603 140.474 410.563C140.875 410.523 141.259 410.386 141.594 410.163C141.929 409.94 142.204 409.639 142.395 409.285C142.586 408.931 142.688 408.535 142.69 408.133L142.974 396.928C142.988 396.501 142.894 396.078 142.699 395.698C142.504 395.318 142.215 394.995 141.86 394.758C141.504 394.521 141.095 394.379 140.669 394.345C140.243 394.311 139.816 394.386 139.428 394.564C137.908 395.222 136.609 396.302 135.685 397.677C134.761 399.051 134.251 400.662 134.215 402.318V402.318Z" fill="#EF927F"/>
<path d="M136.451 372.141C156.342 372.141 172.467 356.016 172.467 336.126C172.467 316.235 156.342 300.11 136.451 300.11C116.56 300.11 100.436 316.235 100.436 336.126C100.436 356.016 116.56 372.141 136.451 372.141Z" fill="#7C5B5D"/>
<path d="M100.636 339.991C101.188 345.157 102.855 350.143 105.523 354.602C108.19 359.061 111.794 362.888 116.085 365.817C109.471 359.596 105.453 351.105 104.834 342.046C104.216 332.986 107.044 324.028 112.751 316.965C118.458 309.903 126.622 305.257 135.61 303.959C144.597 302.662 153.742 304.808 161.214 309.968C155.863 304.898 149.084 301.592 141.795 300.496C134.505 299.401 127.054 300.568 120.449 303.842C113.844 307.115 108.403 312.337 104.86 318.801C101.316 325.266 99.8423 332.662 100.636 339.991Z" fill="#5E4041"/>
<path d="M171.732 359.86C198.419 359.86 220.052 338.226 220.052 311.54C220.052 284.853 198.419 263.219 171.732 263.219C145.046 263.219 123.412 284.853 123.412 311.54C123.412 338.226 145.046 359.86 171.732 359.86Z" fill="#7C5B5D"/>
<path d="M232.429 365.333C259.115 365.333 280.749 343.699 280.749 317.013C280.749 290.326 259.115 268.692 232.429 268.692C205.742 268.692 184.108 290.326 184.108 317.013C184.108 343.699 205.742 365.333 232.429 365.333Z" fill="#7C5B5D"/>
<path d="M171.732 359.86C198.419 359.86 220.052 338.226 220.052 311.54C220.052 284.853 198.419 263.219 171.732 263.219C145.046 263.219 123.412 284.853 123.412 311.54C123.412 338.226 145.046 359.86 171.732 359.86Z" fill="#7C5B5D"/>
<path d="M232.429 365.333C259.115 365.333 280.749 343.699 280.749 317.013C280.749 290.326 259.115 268.692 232.429 268.692C205.742 268.692 184.108 290.326 184.108 317.013C184.108 343.699 205.742 365.333 232.429 365.333Z" fill="#7C5B5D"/>
<path d="M123.556 307.746C125.919 300.54 129.947 293.993 135.312 288.635C140.678 283.276 147.23 279.257 154.438 276.903C161.647 274.549 169.309 273.926 176.803 275.085C184.296 276.244 191.412 279.152 197.572 283.574C199.568 284.992 201.442 286.573 203.175 288.302C205.729 286.553 208.454 285.068 211.307 283.869C209.572 281.401 207.618 279.095 205.468 276.978C198.892 270.57 190.626 266.168 181.639 264.287C172.652 262.406 163.314 263.124 154.72 266.357C146.126 269.59 138.631 275.204 133.112 282.543C127.592 289.881 124.278 298.639 123.556 307.793V307.746Z" fill="#5E4041"/>
<path d="M197.572 283.574C199.568 284.991 201.442 286.573 203.175 288.302C205.729 286.553 208.453 285.068 211.307 283.869C215.657 282.017 220.258 280.822 224.959 280.323C237.694 278.955 250.451 282.7 260.425 290.735C270.399 298.77 276.775 310.437 278.149 323.171C278.463 326.151 278.507 329.154 278.279 332.142C281.423 322.58 281.501 312.274 278.502 302.665C275.504 293.057 269.579 284.624 261.555 278.547C253.531 272.469 243.809 269.05 233.747 268.767C223.685 268.483 213.786 271.35 205.433 276.967C202.573 278.868 199.937 281.084 197.572 283.574V283.574Z" fill="#5E4041"/>
<path d="M164.961 339.482C176.463 339.482 185.787 330.158 185.787 318.656C185.787 307.153 176.463 297.829 164.961 297.829C153.458 297.829 144.134 307.153 144.134 318.656C144.134 330.158 153.458 339.482 164.961 339.482Z" fill="#5E4041"/>
<path d="M368.111 519.081L336.206 570.2C331.336 578.003 333.713 588.276 341.516 593.146C349.319 598.016 359.592 595.639 364.462 587.836L396.368 536.717C401.238 528.915 398.86 518.641 391.057 513.771C383.255 508.901 372.981 511.278 368.111 519.081Z" fill="#F0A284"/>
<path d="M503.367 512.61C507.812 512.61 511.416 509.006 511.416 504.561C511.416 500.115 507.812 496.511 503.367 496.511C498.921 496.511 495.317 500.115 495.317 504.561C495.317 509.006 498.921 512.61 503.367 512.61Z" fill="#2329AD"/>
<path d="M505.647 512.432C510.093 512.432 513.696 508.829 513.696 504.383C513.696 499.937 510.093 496.334 505.647 496.334C501.201 496.334 497.598 499.937 497.598 504.383C497.598 508.829 501.201 512.432 505.647 512.432Z" fill="#161762"/>
<path d="M395.828 649.213L499.348 640.715C503.186 640.4 506.79 638.743 509.527 636.034C512.264 633.325 513.958 629.739 514.312 625.904L530.257 452.706C530.475 450.327 530.171 447.929 529.364 445.68C528.558 443.432 527.269 441.386 525.589 439.688C523.909 437.99 521.878 436.68 519.638 435.849C517.398 435.019 515.003 434.689 512.622 434.881L409.102 443.38C405.265 443.694 401.66 445.352 398.924 448.06C396.187 450.769 394.492 454.356 394.138 458.19L378.24 631.401C378.021 633.775 378.323 636.169 379.126 638.415C379.929 640.66 381.214 642.703 382.889 644.4C384.565 646.097 386.591 647.407 388.826 648.238C391.061 649.07 393.451 649.403 395.828 649.213V649.213Z" fill="#7A59A4"/>
<path d="M407.978 648.221L511.486 639.722C515.325 639.41 518.93 637.753 521.667 635.044C524.405 632.335 526.099 628.747 526.45 624.912L542.407 451.725C542.625 449.35 542.321 446.956 541.516 444.71C540.712 442.465 539.427 440.422 537.75 438.725C536.074 437.029 534.047 435.719 531.811 434.887C529.575 434.056 527.185 433.723 524.807 433.912L421.3 442.399C417.459 442.714 413.852 444.372 411.113 447.083C408.373 449.794 406.678 453.384 406.324 457.221L390.331 630.396C390.113 632.776 390.418 635.175 391.225 637.425C392.032 639.675 393.322 641.72 395.003 643.419C396.685 645.117 398.718 646.427 400.959 647.257C403.201 648.086 405.596 648.415 407.978 648.221V648.221Z" fill="#593870"/>
<path d="M448.9 542.124C449.22 546.188 450.797 550.052 453.41 553.181C456.024 556.309 459.545 558.548 463.487 559.587C467.429 560.625 471.597 560.413 475.413 558.978C479.228 557.544 482.504 554.958 484.785 551.58C483.137 552.219 481.406 552.617 479.644 552.762C477.064 552.981 474.467 552.688 472 551.901C469.534 551.114 467.247 549.848 465.27 548.176C463.294 546.504 461.667 544.458 460.482 542.156C459.298 539.854 458.579 537.341 458.368 534.76C457.993 530.309 459.171 525.865 461.701 522.184C457.679 523.648 454.248 526.391 451.935 529.994C449.623 533.596 448.556 537.857 448.9 542.124Z" fill="#7A59A4"/>
<path d="M530.685 520.291L504.903 532.627C497.896 535.98 494.933 544.379 498.286 551.386C501.639 558.394 510.038 561.356 517.045 558.004L542.827 545.668C549.834 542.315 552.797 533.916 549.444 526.908C546.091 519.901 537.692 516.938 530.685 520.291Z" fill="#ED9281"/>
<path d="M542.106 544.17L516.325 556.506C509.317 559.858 506.355 568.257 509.708 575.265C513.061 582.272 521.459 585.235 528.467 581.882L554.248 569.546C561.256 566.193 564.218 557.794 560.866 550.787C557.513 543.779 549.114 540.817 542.106 544.17Z" fill="#ED9281"/>
<path d="M552.228 578.505L523.647 579.362C515.879 579.595 509.77 586.082 510.003 593.85C510.236 601.619 516.722 607.727 524.491 607.494L553.072 606.637C560.84 606.404 566.948 599.917 566.715 592.149C566.482 584.381 559.996 578.272 552.228 578.505Z" fill="#ED9281"/>
<path d="M196.308 695.048C207.834 715.175 233.493 722.148 253.617 710.623C273.741 699.097 280.71 673.438 269.184 653.311L205.577 542.249C194.051 522.122 168.392 515.149 148.268 526.674C128.144 538.199 121.175 563.858 132.701 583.985L196.308 695.048Z" fill="#EDBA70"/>
<path d="M127.337 558.98C131.242 552.917 136.643 547.962 143.018 544.591C149.393 541.221 156.529 539.548 163.738 539.735C170.947 539.921 177.987 541.96 184.18 545.656C190.372 549.351 195.509 554.579 199.096 560.835L262.7 671.943C267.056 679.519 268.924 688.272 268.042 696.966C272.217 690.509 274.535 683.028 274.743 675.342C274.952 667.656 273.042 660.06 269.224 653.386L205.609 542.278C201.184 534.557 194.42 528.442 186.295 524.814C178.169 521.186 169.101 520.233 160.398 522.092C151.696 523.952 143.809 528.527 137.875 535.159C131.941 541.791 128.268 550.137 127.384 558.991L127.337 558.98Z" fill="#E0AB65"/>
<path d="M393.689 657.192C415.403 641.164 418.712 608.837 401.112 584.984C387.685 566.805 365.972 558.803 346.74 563.129C340.648 564.516 334.914 567.165 329.909 570.906L210.184 659.32C188.471 675.348 185.149 707.676 202.761 731.528C220.373 755.381 252.251 761.717 273.953 745.712L393.689 657.192Z" fill="#F0A284"/>
<path d="M252.71 701.976C246.786 706.193 245.401 714.414 249.618 720.339C253.835 726.264 262.056 727.649 267.981 723.432L322.477 684.646C328.402 680.429 329.787 672.208 325.57 666.283C321.353 660.358 313.132 658.974 307.207 663.19L252.71 701.976Z" fill="#FCB798"/>
<path d="M348.029 672.487C309.023 657.405 293.964 623.658 299.283 593.47L364.293 547.597C369.353 544.026 375.316 541.952 381.5 541.613C387.684 541.275 393.838 542.685 399.257 545.682C408.241 550.652 415.98 557.595 421.892 565.989C451.726 608.281 426.62 672.853 361.102 674.733C356.639 674.854 352.196 674.091 348.029 672.487Z" fill="#F0A284"/>
<path d="M390.219 526.807L350.135 560.204C343.068 566.091 342.113 576.593 348 583.659C353.888 590.726 364.39 591.682 371.456 585.794L411.54 552.397C418.607 546.51 419.563 536.008 413.675 528.941C407.787 521.875 397.286 520.919 390.219 526.807Z" fill="#F0A284"/>
<path d="M427.344 581.476L381.12 605.672C372.971 609.938 369.823 620.002 374.089 628.151C378.355 636.3 388.419 639.448 396.568 635.183L442.791 610.987C450.94 606.721 454.088 596.657 449.823 588.508C445.557 580.359 435.493 577.211 427.344 581.476Z" fill="#F0A284"/>
<path d="M202.772 731.493C217.736 751.752 242.96 759.376 263.562 751.386C267.262 749.94 270.756 748.012 273.952 745.653L371.077 673.906C407.246 669.06 429.054 643.871 433.487 615.87L442.766 611.023C446.4 609.122 449.206 605.948 450.649 602.109C452.093 598.27 452.072 594.033 450.59 590.208C450.371 589.633 450.114 589.072 449.822 588.53C449.586 588.081 449.349 587.667 449.089 587.23C448.938 590.116 448.036 592.913 446.473 595.345C444.91 597.776 442.74 599.758 440.177 601.095L434.267 604.168L430.863 605.941C430.183 610.41 429.038 614.795 427.447 619.026C421.783 634.326 410.792 647.072 396.49 654.923C387.821 659.683 378.327 662.755 368.512 663.977L354.6 674.272L271.399 735.736C268.195 738.09 264.699 740.017 260.997 741.469C240.419 749.459 215.171 741.835 200.207 721.576C196.816 717.019 194.119 711.984 192.205 706.636C193.717 715.639 197.338 724.157 202.772 731.493V731.493Z" fill="#FCB798"/>
<path d="M425.622 543.872L357.223 587.463C349.467 592.407 347.186 602.702 352.13 610.459C357.073 618.215 367.368 620.496 375.125 615.553L443.524 571.961C451.28 567.017 453.561 556.722 448.618 548.965C443.674 541.209 433.379 538.928 425.622 543.872Z" fill="#F0A284"/>
<path d="M695.32 998.316L604.819 1010.62C599.968 1011.28 596.57 1015.74 597.229 1020.59L597.231 1020.61C597.89 1025.46 602.357 1028.86 607.209 1028.2L697.71 1015.9C702.561 1015.24 705.96 1010.77 705.3 1005.92L705.299 1005.91C704.639 1001.05 700.172 997.656 695.32 998.316Z" fill="#56526A"/>
<path d="M575.008 848.463C575.008 859.012 570.817 869.129 563.358 876.588C555.899 884.047 545.782 888.238 535.233 888.238H230.277C223.251 888.238 216.417 885.941 210.817 881.697C205.218 877.452 201.16 871.493 199.262 864.728L82.6456 448.805C81.389 444.258 81.9618 439.399 84.2414 435.268C86.521 431.138 90.3264 428.063 94.8438 426.702L103.744 424.031C108.487 422.609 113.464 422.135 118.39 422.636C123.316 423.138 128.094 424.605 132.453 426.954C136.812 429.303 140.665 432.488 143.793 436.326C146.921 440.165 149.261 444.582 150.681 449.326L210.396 648.634C215.095 664.318 224.726 678.068 237.86 687.844C250.994 697.62 266.929 702.9 283.302 702.9H417.601C435.906 702.903 453.461 710.177 466.404 723.122C479.347 736.067 486.618 753.623 486.618 771.929V808.677H535.233C545.783 808.68 555.9 812.874 563.359 820.335C570.818 827.796 575.008 837.914 575.008 848.463V848.463Z" fill="#6675AD"/>
<path d="M574.984 846.903C575.332 855.88 572.633 864.712 567.326 871.961C562.019 879.21 554.416 884.451 545.753 886.831C546.741 882.941 547.14 878.925 546.935 874.917C545.836 853.641 527.716 837.223 506.416 837.223H472.138C470.363 837.226 468.606 836.879 466.965 836.202C465.325 835.525 463.834 834.531 462.578 833.277C461.322 832.024 460.326 830.535 459.646 828.895C458.966 827.256 458.616 825.499 458.616 823.724V800.462C458.613 782.157 451.339 764.602 438.394 751.659C425.449 738.716 407.893 731.445 389.587 731.445H255.312C238.937 731.443 222.999 726.161 209.864 716.384C196.728 706.606 187.095 692.854 182.394 677.168L122.644 477.812C120.162 469.506 114.891 462.31 107.721 457.438C100.551 452.565 91.9202 450.314 83.2838 451.063L82.6455 448.794C81.3924 444.248 81.9669 439.392 84.2463 435.264C86.5256 431.136 90.329 428.063 94.8437 426.702L103.732 424.031C108.476 422.609 113.453 422.135 118.38 422.636C123.307 423.137 128.087 424.605 132.446 426.953C136.806 429.302 140.66 432.487 143.789 436.326C146.918 440.164 149.26 444.582 150.681 449.326L210.396 648.635C215.097 664.319 224.731 678.07 237.866 687.845C251.002 697.621 266.94 702.9 283.314 702.9H417.589C435.9 702.9 453.46 710.174 466.408 723.122C479.356 736.069 486.629 753.63 486.629 771.941V808.677H534.512C556.001 808.677 574.157 825.426 574.984 846.903V846.903Z" fill="#5B6DA5"/>
<path d="M275.797 888.25L268.161 916.192L221.968 1084.93H207.43L242.724 916.192L248.563 888.25H275.797Z" fill="#6675AD"/>
<path d="M563.944 1084.93H549.405L503.213 916.192L495.577 888.25H522.81L528.649 916.192L563.944 1084.93Z" fill="#6675AD"/>
<path d="M248.562 888.25H275.795L268.159 916.192H242.723L248.562 888.25Z" fill="#5B6DA5"/>
<path d="M528.65 916.192H503.213L495.577 888.25H522.81L528.65 916.192Z" fill="#5B6DA5"/>
<path d="M879.384 176.543H692.534C675.437 176.543 661.577 190.403 661.577 207.5V620.124C661.577 637.221 675.437 651.081 692.534 651.081H879.384C896.481 651.081 910.341 637.221 910.341 620.124V207.5C910.341 190.403 896.481 176.543 879.384 176.543Z" fill="#ADB6E0"/>
<path d="M877.895 193.529H694.023C684.851 193.529 677.416 200.964 677.416 210.136V617.489C677.416 626.661 684.851 634.096 694.023 634.096H877.895C887.067 634.096 894.502 626.661 894.502 617.489V210.136C894.502 200.964 887.067 193.529 877.895 193.529Z" fill="#F3F4FE"/>
<path d="M894.502 210.124V617.488C894.51 619.666 894.087 621.825 893.259 623.839C892.431 625.854 891.213 627.685 889.676 629.228C888.138 630.771 886.312 631.995 884.3 632.83C882.289 633.666 880.132 634.096 877.954 634.096H694.023C691.845 634.096 689.688 633.666 687.676 632.83C685.665 631.995 683.838 630.771 682.301 629.228C680.763 627.685 679.546 625.854 678.717 623.839C677.889 621.825 677.467 619.666 677.475 617.488V210.124C677.475 205.735 679.218 201.526 682.322 198.423C685.425 195.319 689.634 193.576 694.023 193.576H877.895C880.073 193.568 882.231 193.99 884.245 194.819C886.26 195.647 888.091 196.864 889.634 198.402C891.177 199.939 892.401 201.766 893.236 203.778C894.072 205.789 894.502 207.946 894.502 210.124V210.124Z" fill="#F3F4FE"/>
<path d="M894.501 308.431V617.489C894.509 619.667 894.086 621.825 893.258 623.84C892.43 625.854 891.212 627.685 889.675 629.228C888.138 630.771 886.311 631.995 884.299 632.831C882.288 633.666 880.131 634.096 877.953 634.096H810.579V277.333L894.501 308.431Z" fill="#EBECFD"/>
<path d="M769.258 634.096V361.739L810.51 336.988V634.096H769.258Z" fill="#D9DCFB"/>
<path d="M722.284 305.251V634.096H694.023C691.845 634.096 689.688 633.666 687.676 632.83C685.665 631.995 683.838 630.771 682.301 629.228C680.763 627.685 679.546 625.854 678.717 623.839C677.889 621.825 677.467 619.667 677.475 617.489V321.752L722.284 305.251Z" fill="#EBECFD"/>
<path d="M751.48 315.405V634.096H722.284V305.251L751.48 315.405Z" fill="#D9DCFB"/>
<path d="M826.242 323.36H846.785V334.494H826.242V323.36Z" fill="#F1F2FD"/>
<path d="M681.577 348.56H716.623V315.961L681.577 329.376V348.56Z" fill="#F1F2FD"/>
<path d="M864.279 323.36H884.823V334.494H864.279V323.36Z" fill="#F1F2FD"/>
<path d="M826.242 352.662H846.785V363.796H826.242V352.662Z" fill="#F1F2FD"/>
<path d="M864.279 352.662H884.823V363.796H864.279V352.662Z" fill="#F1F2FD"/>
<path d="M826.242 381.952H846.785V393.086H826.242V381.952Z" fill="#F1F2FD"/>
<path d="M864.279 381.952H884.823V393.086H864.279V381.952Z" fill="#F1F2FD"/>
<path d="M826.242 411.253H846.785V422.388H826.242V411.253Z" fill="#F1F2FD"/>
<path d="M864.279 411.253H884.823V422.388H864.279V411.253Z" fill="#F1F2FD"/>
<path d="M826.242 440.544H846.785V451.678H826.242V440.544Z" fill="#F1F2FD"/>
<path d="M864.279 440.544H884.823V451.678H864.279V440.544Z" fill="#F1F2FD"/>
<path d="M826.242 469.845H846.785V480.979H826.242V469.845Z" fill="#F1F2FD"/>
<path d="M864.279 469.845H884.823V480.979H864.279V469.845Z" fill="#F1F2FD"/>
<path d="M826.242 499.135H846.785V510.27H826.242V499.135Z" fill="#F1F2FD"/>
<path d="M864.279 499.135H884.823V510.27H864.279V499.135Z" fill="#F1F2FD"/>
<path d="M826.242 528.437H846.785V539.571H826.242V528.437Z" fill="#F1F2FD"/>
<path d="M864.279 528.437H884.823V539.571H864.279V528.437Z" fill="#F1F2FD"/>
<path d="M826.242 557.727H846.785V568.861H826.242V557.727Z" fill="#F1F2FD"/>
<path d="M864.279 557.727H884.823V568.861H864.279V557.727Z" fill="#F1F2FD"/>
<path d="M826.242 587.029H846.785V598.163H826.242V587.029Z" fill="#F1F2FD"/>
<path d="M864.279 587.029H884.823V598.163H864.279V587.029Z" fill="#F1F2FD"/>
<path d="M826.242 616.33H846.785V627.464H826.242V616.33Z" fill="#F1F2FD"/>
<path d="M864.279 616.33H884.823V627.464H864.279V616.33Z" fill="#F1F2FD"/>
<path d="M681.577 358.229H716.623V374.257H681.577V358.229Z" fill="#F1F2FD"/>
<path d="M681.577 385.639H694.449V401.667H681.577V385.639Z" fill="#F1F2FD"/>
<path d="M703.751 385.639H716.623V401.667H703.751V385.639Z" fill="#F1F2FD"/>
<path d="M681.577 417.317H716.623V433.345H681.577V417.317Z" fill="#F1F2FD"/>
<path d="M681.577 444.728H694.449V460.755H681.577V444.728Z" fill="#F1F2FD"/>
<path d="M703.751 444.728H716.623V460.755H703.751V444.728Z" fill="#F1F2FD"/>
<path d="M681.577 476.405H716.623V492.433H681.577V476.405Z" fill="#F1F2FD"/>
<path d="M681.577 503.828H694.449V519.855H681.577V503.828Z" fill="#F1F2FD"/>
<path d="M703.751 503.828H716.623V519.855H703.751V503.828Z" fill="#F1F2FD"/>
<path d="M681.577 535.021H716.623V551.049H681.577V535.021Z" fill="#F1F2FD"/>
<path d="M681.577 562.443H694.449V578.471H681.577V562.443Z" fill="#F1F2FD"/>
<path d="M703.751 562.443H716.623V578.471H703.751V562.443Z" fill="#F1F2FD"/>
<path d="M681.577 593.648H716.623V609.676H681.577V593.648Z" fill="#F1F2FD"/>
<path d="M633.15 222.003H934.69L946.546 204.994H621.295L633.15 222.003Z" fill="#ADB6E0"/>
<path d="M633.15 251.045H934.69L946.546 234.024H621.295L633.15 251.045Z" fill="#ADB6E0"/>
<path d="M633.15 280.087H934.69L946.546 263.066H621.295L633.15 280.087Z" fill="#ADB6E0"/>
<path d="M633.15 309.116H934.69L946.546 292.107H621.295L633.15 309.116Z" fill="#ADB6E0"/>
<path d="M688.516 309.116H694.591V383.854H688.516V309.116Z" fill="#ADB6E0"/>
<path d="M698.585 380.958C698.585 377.074 695.437 373.925 691.552 373.925C687.668 373.925 684.52 377.074 684.52 380.958V393.854C684.52 397.738 687.668 400.887 691.552 400.887C695.437 400.887 698.585 397.738 698.585 393.854V380.958Z" fill="#ADB6E0"/>
</svg>
