<svg width="1217" height="1217" viewBox="0 0 1217 1217" fill="none" xmlns="http://www.w3.org/2000/svg">
<path d="M1183.1 759.834V772.503C1183.12 793.028 1179.22 813.368 1171.61 832.428C1170.68 834.732 1169.71 837.008 1168.69 839.255C1167.06 842.801 1165.33 846.269 1163.49 849.661C1162.88 850.768 1162.27 851.863 1161.64 852.947C1153.35 867.314 1142.9 880.321 1130.66 891.513C1130.1 892.037 1129.52 892.548 1128.95 893.059L1128.78 893.205L1126.82 894.909C1117.72 902.728 1107.77 909.501 1097.16 915.099C1094.27 916.632 1091.31 918.08 1088.32 919.431C1082.38 922.126 1076.28 924.447 1070.06 926.38C1068.59 926.843 1067.1 927.281 1065.62 927.695C1062.04 928.705 1058.43 929.593 1054.75 930.348C1043.94 932.58 1032.93 933.701 1021.89 933.694H956.563C952.198 933.694 947.875 934.555 943.842 936.226C939.808 937.897 936.144 940.346 933.058 943.433C929.971 946.521 927.523 950.186 925.854 954.22C924.184 958.254 923.326 962.577 923.327 966.943V1090.91H367.535V966.882C367.546 960.683 365.818 954.606 362.548 949.34C359.278 944.074 354.597 939.83 349.037 937.09C348.169 936.64 347.28 936.234 346.372 935.873C342.497 934.342 338.367 933.561 334.202 933.573H224.294C222.554 933.573 220.838 933.573 219.11 933.5C209.614 933.213 200.161 932.118 190.851 930.226C187.192 929.48 183.578 928.62 180.008 927.646C170.028 924.908 160.327 921.241 151.031 916.693C149.814 916.121 148.706 915.549 147.55 914.94C136.7 909.345 126.497 902.574 117.125 894.75L116.492 894.227C116.03 893.838 115.568 893.448 115.117 893.01L113.182 891.452C110.675 889.25 108.241 886.949 105.88 884.589C96.347 875.057 87.9951 864.413 81.0048 852.886C78.3152 848.456 75.8203 843.892 73.5567 839.194C72.4614 836.955 71.4148 834.667 70.4412 832.367C66.0401 822.184 62.6764 811.583 60.401 800.725C56.3224 781.182 55.7373 761.071 58.6728 741.323C59.0014 739.023 59.403 736.747 59.8898 734.484C60.0602 733.547 60.2549 732.61 60.4496 731.685C60.7295 730.285 61.046 728.898 61.3746 727.51C62.2427 723.859 63.2284 720.249 64.3319 716.679C64.9566 714.683 65.6138 712.7 66.3034 710.728C70.5533 698.603 76.1974 687.012 83.1223 676.19C90.8231 664.115 100.033 653.073 110.529 643.331C113.073 640.97 115.689 638.682 118.379 636.503C119.596 635.505 120.813 634.544 122.03 633.607C125.616 630.824 129.332 628.187 133.178 625.696C147.626 616.283 163.449 609.172 180.081 604.618C184.876 603.303 189.744 602.204 194.685 601.32C198.36 600.646 202.076 600.107 205.832 599.701C210.068 599.239 214.351 598.922 218.696 598.788C220.57 598.788 222.457 598.691 224.343 598.691H353.357C360.959 598.701 368.431 596.714 375.024 592.929C381.617 589.145 387.101 583.695 390.926 577.126C391.413 576.323 391.863 575.495 392.277 574.692C392.972 573.31 393.593 571.892 394.139 570.444C395.783 566.038 396.7 561.393 396.853 556.692C396.853 556.571 396.853 556.449 396.853 556.327C396.853 555.962 396.853 555.585 396.853 555.208C396.853 555.037 396.853 554.867 396.853 554.709C396.853 554.55 396.853 554.441 396.853 554.307C396.799 551.324 396.432 548.354 395.758 545.447C395.238 543.111 394.509 540.826 393.579 538.62C392.823 536.77 391.936 534.977 390.926 533.253C387.704 527.74 383.308 523.003 378.049 519.379C372.791 515.755 366.8 513.333 360.501 512.284C360.136 512.223 359.783 512.162 359.418 512.126C357.403 511.834 355.369 511.691 353.333 511.7H135.66H133.105C107.009 511.091 82.1564 500.426 63.7355 481.932C62.6037 480.8 61.4963 479.644 60.4253 478.464C52.1766 469.404 45.6261 458.933 41.0872 447.552C40.2028 445.312 39.3915 443.037 38.6532 440.724C34.2246 426.707 32.8811 411.898 34.715 397.313C36.5489 382.728 41.5168 368.712 49.2776 356.228C50.6812 353.964 52.1781 351.766 53.7683 349.632C55.4964 347.271 57.3301 344.995 59.2691 342.805C59.6464 342.366 60.0359 341.928 60.4861 341.502C61.5571 340.285 62.6646 339.166 63.7964 338.034C82.2173 319.54 107.07 308.875 133.165 308.266C133.977 308.266 134.829 308.266 135.721 308.266C151.389 308.287 166.751 303.924 180.069 295.67C185.34 292.393 190.237 288.549 194.673 284.206C203.975 275.118 211.055 264.007 215.362 251.737C216.14 249.509 216.834 247.221 217.418 244.909C217.917 242.974 218.355 241.027 218.708 239.043C219.61 234.059 220.062 229.005 220.059 223.94V138.02C220.043 133.65 220.889 129.32 222.548 125.278C224.208 121.235 226.648 117.56 229.729 114.461C232.811 111.363 236.473 108.903 240.506 107.221C244.54 105.54 248.865 104.67 253.235 104.662H1027.96C1044.08 104.649 1059.96 108.471 1074.31 115.812C1088.65 123.153 1101.04 133.802 1110.45 146.88C1111.45 148.219 1112.39 149.594 1113.29 150.981C1113.87 151.882 1114.51 152.782 1115 153.707C1123.22 167.28 1128.15 182.584 1129.4 198.399C1130.65 214.214 1128.2 230.103 1122.22 244.8C1121.28 247.112 1120.25 249.388 1119.14 251.627C1108.52 272.972 1090.77 289.928 1068.95 299.552C1065.32 301.157 1061.6 302.543 1057.81 303.702C1048.14 306.665 1038.08 308.166 1027.96 308.157H945.209C939.647 308.15 934.112 308.928 928.767 310.469C926.99 310.992 925.238 311.589 923.534 312.258C921.248 313.155 919.02 314.196 916.865 315.373C915.331 316.213 913.835 317.126 912.386 318.1C903.779 323.861 896.824 331.768 892.208 341.04C891.929 341.6 891.661 342.16 891.405 342.732C890.378 344.946 889.5 347.227 888.776 349.559C886.972 355.296 886.057 361.276 886.063 367.291C886.058 377.024 888.459 386.608 893.051 395.19C897.644 403.772 904.286 411.086 912.386 416.482C915.88 418.826 919.618 420.785 923.534 422.323C930.436 425.045 937.79 426.436 945.209 426.425C946.292 426.425 947.363 426.425 948.434 426.498C961.392 427.011 974.002 430.832 985.066 437.597C986.38 438.388 987.658 439.215 988.911 440.092L989.678 440.639C991.951 442.249 994.129 443.988 996.201 445.848C996.797 446.371 997.418 446.919 997.966 447.467C1005.53 454.625 1011.56 463.253 1015.67 472.823C1019.79 482.393 1021.9 492.703 1021.89 503.12V555.451C1021.87 566.575 1025.32 577.43 1031.75 586.503C1038.19 595.576 1047.3 602.414 1057.81 606.066C1058.52 606.322 1059.25 606.553 1059.98 606.772C1062.88 607.636 1065.87 608.585 1068.95 609.656C1075.15 611.762 1081.66 614.281 1088.32 617.262C1100.2 622.504 1111.51 628.947 1122.08 636.491C1124.92 638.548 1127.75 640.714 1130.51 643.002L1130.89 643.318C1134.54 646.373 1138.19 649.659 1141.66 653.152C1148.62 660.134 1154.83 667.832 1160.18 676.116C1167.08 686.856 1172.45 698.506 1176.13 710.728C1176.73 712.675 1177.29 714.659 1177.81 716.679C1178.73 720.184 1179.54 723.799 1180.25 727.51C1180.68 729.798 1181.06 732.123 1181.38 734.484C1181.7 736.723 1181.98 739.011 1182.18 741.323C1182.8 747.474 1183.11 753.652 1183.1 759.834V759.834Z" fill="#F0F3F9"/>
<path opacity="0.11" d="M1115 153.719H219.996V146.892H1110.45C1111.45 148.23 1112.39 149.605 1113.29 150.993C1113.87 151.893 1114.44 152.794 1115 153.719Z" fill="#34629B"/>
<path opacity="0.11" d="M1122.22 244.812C1121.28 247.124 1120.25 249.4 1119.14 251.639H215.298C216.077 249.412 216.77 247.124 217.355 244.812H1122.22Z" fill="#34629B"/>
<path opacity="0.11" d="M891.452 342.743C890.425 344.958 889.546 347.239 888.823 349.571H53.7539C55.482 347.21 57.3157 344.934 59.2547 342.743H891.452Z" fill="#34629B"/>
<path opacity="0.11" d="M998.025 447.491H41.0736C40.1893 445.252 39.378 442.976 38.6396 440.664H989.737C992.01 442.273 994.188 444.012 996.26 445.872C996.857 446.396 997.441 446.943 998.025 447.491V447.491Z" fill="#34629B"/>
<path opacity="0.11" d="M1021.95 538.595V545.422H395.757C395.237 543.086 394.508 540.801 393.578 538.595H1021.95Z" fill="#34629B"/>
<path opacity="0.11" d="M1130.86 643.343H110.492C113.036 640.982 115.652 638.694 118.342 636.515H1122.07C1124.92 638.572 1127.75 640.738 1130.51 643.026L1130.86 643.343Z" fill="#34629B"/>
<path opacity="0.11" d="M1182.17 741.274H58.6836C59.0122 738.974 59.4138 736.698 59.9006 734.435H1181.37C1181.71 736.674 1181.96 738.962 1182.17 741.274Z" fill="#34629B"/>
<path opacity="0.11" d="M1171.61 832.428C1170.68 834.732 1169.71 837.008 1168.68 839.256H73.5677C72.4724 837.016 71.4257 834.728 70.4521 832.428H1171.61Z" fill="#34629B"/>
<path opacity="0.11" d="M1054.77 930.287C1043.96 932.519 1032.95 933.64 1021.92 933.634H956.562C951.432 933.621 946.369 934.804 941.776 937.09H349.097C348.23 936.64 347.34 936.233 346.432 935.873C342.558 934.342 338.428 933.561 334.262 933.573H224.294C222.553 933.573 220.837 933.573 219.109 933.5C209.614 933.213 200.16 932.118 190.851 930.226L1054.77 930.287Z" fill="#34629B"/>
<path opacity="0.11" d="M367.497 1028.22H923.374V1035.05H367.497V1028.22Z" fill="#34629B"/>
<path d="M100.574 1112.33H169.286C175.2 1112.33 179.995 1107.53 179.995 1101.62V1101.6C179.995 1095.69 175.2 1090.89 169.286 1090.89H100.574C94.659 1090.89 89.8641 1095.69 89.8641 1101.6V1101.62C89.8641 1107.53 94.659 1112.33 100.574 1112.33Z" fill="#6E8EC8"/>
<path d="M199.43 1112.33H1163.71C1169.62 1112.33 1174.42 1107.53 1174.42 1101.62V1101.6C1174.42 1095.69 1169.62 1090.89 1163.71 1090.89H199.43C193.515 1090.89 188.72 1095.69 188.72 1101.6V1101.62C188.72 1107.53 193.515 1112.33 199.43 1112.33Z" fill="#6E8EC8"/>
<path d="M534.263 774.925H875.509V1092.7H534.263V774.925Z" fill="#547DBA"/>
<path d="M534.263 857.328H899.058V993.924H534.263V857.328Z" fill="#34629B"/>
<path d="M823.665 477.064H833.17C909.924 477.064 983.535 507.555 1037.81 561.828C1092.08 616.102 1122.57 689.712 1122.57 766.467V774.986H534.263V766.467C534.263 689.712 564.753 616.102 619.027 561.828C673.3 507.555 746.911 477.064 823.665 477.064V477.064Z" fill="#547DBA"/>
<path d="M1122.57 766.43V774.949H979.831V766.43C979.831 629.53 884.759 514.791 757.047 484.743C778.881 479.612 801.237 477.035 823.665 477.064H833.17C993.072 477.064 1122.57 606.602 1122.57 766.43V766.43Z" fill="#34629B"/>
<path d="M534.263 774.925V1092.7H445.604C441.408 1092.7 437.384 1091.03 434.417 1088.06C431.45 1085.09 429.783 1081.07 429.783 1076.87V879.368C429.783 865.649 432.486 852.064 437.737 839.391C442.988 826.717 450.684 815.201 460.387 805.502C470.089 795.803 481.607 788.111 494.283 782.864C506.959 777.618 520.544 774.92 534.263 774.925V774.925Z" fill="#BBD7FF"/>
<path d="M464.273 160.34V652.008C464.273 657.288 462.175 662.353 458.441 666.086C454.707 669.82 449.643 671.918 444.362 671.918H238.531C235.916 671.92 233.326 671.406 230.91 670.406C228.494 669.406 226.298 667.939 224.449 666.09C222.6 664.241 221.133 662.045 220.133 659.629C219.133 657.213 218.619 654.623 218.621 652.008V598.764C220.495 598.764 222.382 598.667 224.268 598.667H353.355C360.957 598.677 368.429 596.69 375.022 592.905C381.615 589.121 387.098 583.671 390.924 577.102C391.411 576.298 391.861 575.471 392.275 574.668C392.97 573.286 393.591 571.868 394.137 570.42C395.781 566.014 396.698 561.369 396.851 556.668V554.234C396.646 544.085 392.897 534.327 386.253 526.652C379.609 518.977 370.49 513.868 360.475 512.211C360.11 512.15 359.757 512.089 359.391 512.053C357.376 511.761 355.343 511.619 353.306 511.627H218.645V160.34C218.644 157.727 219.157 155.139 220.155 152.725C221.154 150.31 222.618 148.115 224.465 146.267C226.311 144.418 228.504 142.951 230.918 141.949C233.331 140.948 235.918 140.432 238.531 140.43H444.362C449.643 140.43 454.707 142.528 458.441 146.262C462.175 149.995 464.273 155.06 464.273 160.34V160.34Z" fill="#6E8EC8"/>
<path d="M440.115 188.526V623.847C440.118 626.464 439.606 629.056 438.607 631.475C437.608 633.894 436.142 636.093 434.293 637.945C432.444 639.798 430.248 641.268 427.831 642.271C425.413 643.274 422.822 643.792 420.205 643.793H262.713C257.432 643.793 252.368 641.696 248.634 637.962C244.9 634.228 242.803 629.164 242.803 623.883V598.764H353.355C360.957 598.774 368.428 596.787 375.022 593.003C381.615 589.218 387.098 583.768 390.924 577.199C391.411 576.396 391.861 575.568 392.275 574.765C392.97 573.383 393.591 571.965 394.137 570.518C395.781 566.111 396.698 561.466 396.851 556.766V554.332C396.646 544.182 392.897 534.425 386.253 526.75C379.609 519.075 370.49 513.966 360.474 512.309C360.109 512.248 359.756 512.187 359.391 512.15C357.376 511.858 355.342 511.716 353.306 511.724H242.803V188.526C242.803 185.911 243.318 183.322 244.318 180.907C245.319 178.491 246.785 176.296 248.634 174.447C250.483 172.598 252.678 171.132 255.094 170.131C257.509 169.131 260.098 168.616 262.713 168.616H420.205C422.819 168.616 425.408 169.131 427.824 170.131C430.24 171.132 432.435 172.598 434.283 174.447C436.132 176.296 437.599 178.491 438.599 180.907C439.6 183.322 440.115 185.911 440.115 188.526V188.526Z" fill="#E9F1FF"/>
<path d="M440.114 238.605V623.847C440.118 626.464 439.605 629.056 438.606 631.475C437.607 633.894 436.141 636.093 434.292 637.945C432.443 639.798 430.247 641.268 427.83 642.271C425.413 643.274 422.822 643.792 420.204 643.793H302.228V598.764H353.342C360.944 598.774 368.416 596.787 375.009 593.003C381.602 589.218 387.086 583.768 390.911 577.199C391.398 576.396 391.848 575.568 392.262 574.765C392.957 573.383 393.578 571.965 394.124 570.518C395.768 566.111 396.685 561.466 396.838 556.766V554.332C396.633 544.182 392.884 534.425 386.24 526.75C379.597 519.075 370.477 513.966 360.462 512.309C360.097 512.248 359.744 512.187 359.379 512.15C357.364 511.858 355.33 511.716 353.294 511.724H302.18V449.755C302.18 447.818 302.949 445.961 304.318 444.592C305.688 443.222 307.545 442.453 309.482 442.453H347.452C349.389 442.453 351.246 441.684 352.615 440.314C353.985 438.945 354.754 437.087 354.754 435.151V245.907C354.754 243.971 355.523 242.113 356.893 240.744C358.262 239.375 360.119 238.605 362.056 238.605H440.114Z" fill="#CDDCF5"/>
<path d="M319.133 468.509H328.285V477.661H319.133V468.509Z" fill="#E9F1FF"/>
<path d="M319.133 509.448H328.285V511.675H319.133V509.448Z" fill="#E9F1FF"/>
<path d="M319.133 598.703H328.285V600.479H319.133V598.703Z" fill="#E9F1FF"/>
<path d="M319.133 632.268H328.285V641.419H319.133V632.268Z" fill="#E9F1FF"/>
<path d="M359.391 508.559V512.101C357.376 511.809 355.342 511.666 353.306 511.675H350.19V508.559H359.391Z" fill="#E9F1FF"/>
<path d="M371.171 253.075H380.323V262.227H371.171V253.075Z" fill="#E9F1FF"/>
<path d="M371.171 310.347H380.323V319.499H371.171V310.347Z" fill="#E9F1FF"/>
<path d="M371.171 367.631H380.323V376.783H371.171V367.631Z" fill="#E9F1FF"/>
<path d="M371.171 424.904H380.323V434.056H371.171V424.904Z" fill="#E9F1FF"/>
<path d="M371.171 482.187H380.323V491.339H371.171V482.187Z" fill="#E9F1FF"/>
<path d="M371.171 596.732H380.323V605.884H371.171V596.732Z" fill="#E9F1FF"/>
<path d="M392.274 284.036H401.426V293.188H392.274V284.036Z" fill="#E9F1FF"/>
<path d="M392.274 341.307H401.426V350.459H392.274V341.307Z" fill="#E9F1FF"/>
<path d="M392.274 398.58H401.426V407.731H392.274V398.58Z" fill="#E9F1FF"/>
<path d="M392.274 455.864H401.426V465.016H392.274V455.864Z" fill="#E9F1FF"/>
<path d="M392.274 513.136H401.426V522.288H392.274V513.136Z" fill="#E9F1FF"/>
<path d="M401.426 570.42V579.572H392.274V574.704C392.969 573.322 393.591 571.904 394.136 570.456L401.426 570.42Z" fill="#E9F1FF"/>
<path d="M392.274 627.692H401.426V636.844H392.274V627.692Z" fill="#E9F1FF"/>
<path d="M418.21 252.54H427.362V261.691H418.21V252.54Z" fill="#E9F1FF"/>
<path d="M418.21 309.824H427.362V318.976H418.21V309.824Z" fill="#E9F1FF"/>
<path d="M418.21 367.096H427.362V376.248H418.21V367.096Z" fill="#E9F1FF"/>
<path d="M418.21 424.38H427.362V433.531H418.21V424.38Z" fill="#E9F1FF"/>
<path d="M418.21 481.652H427.362V490.804H418.21V481.652Z" fill="#E9F1FF"/>
<path d="M418.21 538.924H427.362V548.076H418.21V538.924Z" fill="#E9F1FF"/>
<path d="M418.21 596.209H427.362V605.36H418.21V596.209Z" fill="#E9F1FF"/>
<path d="M396.851 556.668V654.344H390.924V577.138C391.411 576.335 391.861 575.507 392.275 574.704C392.97 573.322 393.591 571.904 394.137 570.457C395.785 566.039 396.702 561.381 396.851 556.668V556.668Z" fill="#6E8EC8"/>
<path d="M396.851 158.027V554.283C396.717 546.872 394.676 539.621 390.924 533.228V158.027H396.851Z" fill="#6E8EC8"/>
<path d="M281.161 158.027H287.088V511.675H281.161V158.027Z" fill="#6E8EC8"/>
<path d="M281.161 598.703H287.088V654.344H281.161V598.703Z" fill="#6E8EC8"/>
<path d="M460.426 198.043V203.97H219.654V198.043H460.426Z" fill="#6E8EC8"/>
<path d="M460.426 403.217V409.143H219.654V403.217H460.426Z" fill="#6E8EC8"/>
<path d="M227.82 334.796H455.083V361.644H227.82V334.796Z" fill="#6E8EC8"/>
<path d="M928.812 310.481C927.035 311.004 925.283 311.6 923.579 312.27C921.293 313.167 919.065 314.208 916.91 315.385C915.376 316.225 913.88 317.138 912.431 318.111C906.807 321.844 901.867 326.516 897.827 331.924H616.907C614.064 331.924 611.337 330.795 609.326 328.784C607.315 326.773 606.186 324.046 606.186 321.203C606.186 318.359 607.315 315.632 609.326 313.621C611.337 311.61 614.064 310.481 616.907 310.481H928.812Z" fill="#6285B7"/>
<path d="M561.33 1037.04L573.5 816.266C574.141 805.123 570.331 794.181 562.907 785.847C555.484 777.512 545.054 772.467 533.911 771.821L532.791 771.76C521.649 771.119 510.709 774.929 502.377 782.353C494.044 789.777 489.002 800.207 488.359 811.349L476.189 1032.14C476.139 1032.98 476.258 1033.83 476.538 1034.62C476.818 1035.42 477.254 1036.16 477.82 1036.79C478.386 1037.41 479.071 1037.92 479.836 1038.29C480.6 1038.65 481.429 1038.85 482.274 1038.89L554.624 1043.08C556.312 1043.16 557.962 1042.57 559.218 1041.44C560.473 1040.31 561.232 1038.73 561.33 1037.04V1037.04Z" fill="#015D76"/>
<path d="M548.983 1034.69L548.019 1065.22L485.751 1063.26L486.716 1032.73L548.983 1034.69Z" fill="#015D76"/>
<path d="M538.306 772.272L693.34 779.8C697.824 780.018 702.039 782.006 705.06 785.328C708.081 788.65 709.66 793.034 709.452 797.519L708.756 811.863C708 827.421 701.095 842.042 689.559 852.51C678.024 862.977 662.802 868.433 647.244 867.677L533.953 862.176C522.024 861.597 510.815 856.303 502.79 847.459C494.765 838.615 490.582 826.945 491.161 815.016C491.74 803.088 497.034 791.878 505.878 783.853C514.722 775.828 526.392 771.645 538.321 772.224L538.306 772.272Z" fill="#015D76"/>
<path d="M521.362 1070.63L460.098 1073.98C459.82 1069.92 460.35 1065.85 461.658 1062C462.966 1058.15 465.026 1054.6 467.719 1051.56C470.411 1048.51 473.681 1046.03 477.341 1044.26C481 1042.49 484.974 1041.46 489.033 1041.24C493.093 1041.02 497.155 1041.61 500.985 1042.97C504.816 1044.33 508.337 1046.44 511.345 1049.17C514.353 1051.91 516.788 1055.21 518.507 1058.9C520.227 1062.58 521.197 1066.57 521.362 1070.63V1070.63Z" fill="#015D76"/>
<path d="M453.941 1081.46L453.831 1072.06C453.813 1070.09 454.541 1068.2 455.868 1066.76C457.194 1065.31 459.02 1064.43 460.975 1064.28L541.492 1058.36C542.803 1058.27 544.12 1058.44 545.361 1058.87C546.603 1059.3 547.743 1059.99 548.711 1060.88C549.679 1061.76 550.455 1062.84 550.99 1064.04C551.526 1065.24 551.809 1066.54 551.824 1067.86L552.019 1085.27L453.941 1081.46Z" fill="#015D76"/>
<path d="M551.922 1080.09L551.982 1085.73C551.999 1087.46 551.33 1089.12 550.124 1090.36C548.917 1091.59 547.27 1092.3 545.544 1092.32L458.419 1093.28C455.597 1093.31 452.879 1092.22 450.862 1090.24C448.844 1088.27 447.693 1085.57 447.661 1082.75C447.643 1081.35 447.902 1079.96 448.422 1078.67C448.941 1077.37 449.712 1076.18 450.69 1075.18C451.668 1074.18 452.834 1073.38 454.12 1072.84C455.407 1072.29 456.789 1072 458.188 1071.98L482.589 1071.71C485.011 1071.69 487.344 1072.62 489.076 1074.32C490.808 1076.01 491.797 1078.32 491.826 1080.74L551.922 1080.09Z" fill="#015D76"/>
<path d="M565.953 647.201C549.198 644.413 533.356 655.734 530.567 672.488C527.778 689.243 539.1 705.085 555.854 707.874L662.625 725.646C679.379 728.434 695.222 717.113 698.01 700.359C700.799 683.604 689.478 667.762 672.724 664.973L565.953 647.201Z" fill="#F9A0B4"/>
<path d="M550.494 708.245C572.138 707.527 589.213 692.743 588.632 675.223C588.051 657.704 570.033 644.083 548.389 644.801C526.745 645.519 509.67 660.304 510.252 677.823C510.833 695.343 528.85 708.963 550.494 708.245Z" fill="#F9A0B4"/>
<path d="M573.283 647.894C575.349 648.995 576.893 650.87 577.578 653.108C578.262 655.347 578.031 657.765 576.934 659.833C575.833 661.899 573.958 663.444 571.72 664.128C569.481 664.813 567.063 664.581 564.995 663.484L540.752 650.535C539.729 649.993 538.822 649.254 538.084 648.36C537.347 647.467 536.792 646.437 536.453 645.329C536.114 644.221 535.997 643.058 536.108 641.904C536.219 640.751 536.557 639.631 537.101 638.609C537.644 637.585 538.383 636.678 539.276 635.941C540.17 635.203 541.2 634.649 542.307 634.31C543.415 633.97 544.579 633.853 545.732 633.964C546.885 634.076 548.005 634.413 549.028 634.958" fill="#F9A0B4"/>
<path d="M663.862 479.133C678.824 479.133 690.952 467.004 690.952 452.042C690.952 437.081 678.824 424.952 663.862 424.952C648.9 424.952 636.771 437.081 636.771 452.042C636.771 467.004 648.9 479.133 663.862 479.133Z" fill="#4F182E"/>
<path d="M661.511 479.023C660.89 479.023 660.294 478.889 659.625 478.792C652.524 477.662 646.163 473.758 641.94 467.938C637.718 462.118 635.981 454.859 637.11 447.758C638.24 440.657 642.144 434.296 647.964 430.074C653.784 425.852 661.043 424.114 668.144 425.244C668.777 425.341 669.361 425.463 669.994 425.609C663.171 425.031 656.383 427.057 650.995 431.281C645.606 435.505 642.016 441.612 640.948 448.375C639.879 455.137 641.411 462.054 645.235 467.733C649.059 473.412 654.892 477.433 661.56 478.986L661.511 479.023Z" fill="#622F2B"/>
<path d="M694.359 456.862C693.237 463.957 689.342 470.317 683.532 474.541C677.721 478.766 670.471 480.509 663.375 479.388C662.742 479.291 662.121 479.169 661.512 479.023C654.844 477.47 649.012 473.449 645.188 467.77C641.364 462.091 639.832 455.174 640.9 448.411C641.969 441.649 645.559 435.541 650.947 431.318C656.336 427.094 663.124 425.067 669.946 425.646C670.579 425.646 671.163 425.779 671.833 425.877C678.928 426.999 685.288 430.894 689.512 436.704C693.737 442.515 695.48 449.766 694.359 456.862V456.862Z" fill="#512522"/>
<path d="M751.303 575.763L680.254 588.298L671.54 538.936L666.952 512.893L738.001 500.358L741.42 519.744L751.303 575.763Z" fill="#FFB2BF"/>
<path d="M741.684 532.685L678.088 551.173C674.796 552.13 672.904 555.574 673.861 558.866L681.824 586.258C682.781 589.55 686.225 591.443 689.517 590.486L753.113 571.997C756.404 571.04 758.297 567.596 757.34 564.305L749.377 536.912C748.42 533.621 744.976 531.728 741.684 532.685Z" fill="#FFF2EE"/>
<path d="M674.169 657.754L810.864 664.559L803.273 817.03L666.578 810.225L674.169 657.754Z" fill="#FFF2EE"/>
<path d="M812.843 649.527C815.374 598.703 777.241 555.502 727.673 553.034C678.104 550.566 635.869 589.767 633.339 640.591C630.809 691.415 668.941 734.617 718.51 737.084C768.079 739.552 810.313 700.351 812.843 649.527Z" fill="#FFF2EE"/>
<path d="M723.263 737.234C721.693 737.234 720.123 737.234 718.541 737.125C668.973 734.691 630.844 691.451 633.351 640.629C635.858 589.807 678.113 550.571 727.681 553.066C729.19 553.139 730.687 553.248 732.172 553.406C684.709 553.565 645.022 591.876 642.576 641.03C640.13 690.185 675.91 732.464 723.263 737.234Z" fill="white"/>
<path d="M803.61 816.534C803.258 824.404 801.347 832.126 797.988 839.252C794.628 846.378 789.888 852.766 784.04 858.046C774.031 867.14 761.052 872.275 747.53 872.492H746.91C745.948 872.492 744.999 872.492 744.025 872.492L634.435 867.161C628.691 866.88 623.064 865.442 617.89 862.932C612.716 860.422 608.102 856.894 604.326 852.557C598.999 846.463 595.398 839.055 593.896 831.101C593.24 827.69 592.971 824.216 593.093 820.745C593.945 795.626 615.315 776.056 639.607 777.249L805.119 785.293L803.61 816.534Z" fill="#007391"/>
<path d="M666.453 848.249L665.005 849.843L648.563 867.83L564.59 959.762L487.019 1044.66C486.194 1045.56 485.2 1046.3 484.092 1046.81C482.985 1047.33 481.786 1047.63 480.564 1047.68C479.343 1047.74 478.122 1047.55 476.972 1047.14C475.822 1046.72 474.766 1046.08 473.863 1045.26L424.647 1000.23C423.745 999.404 423.013 998.411 422.494 997.304C421.976 996.198 421.68 995 421.625 993.779C421.569 992.559 421.755 991.339 422.171 990.19C422.588 989.041 423.227 987.986 424.051 987.084L453.941 954.347L571.868 825.345L603.51 790.758C611.134 782.411 621.761 777.434 633.054 776.923C644.347 776.412 655.38 780.408 663.727 788.031C672.074 795.655 677.05 806.283 677.562 817.575C678.073 828.868 674.077 839.902 666.453 848.249Z" fill="#007391"/>
<path d="M472.455 1043.96L445.791 1073.14L399.334 1030.69L425.998 1001.51L472.455 1043.96Z" fill="#FFB2BF"/>
<path d="M472.468 1043.96L463.708 1053.55L417.251 1011.1L426.011 1001.51L472.468 1043.96Z" fill="#F9A0B4"/>
<path d="M753.957 662.949C779.787 662.949 800.726 642.01 800.726 616.18C800.726 590.35 779.787 569.41 753.957 569.41C728.127 569.41 707.188 590.35 707.188 616.18C707.188 642.01 728.127 662.949 753.957 662.949Z" fill="#F9CABD"/>
<path d="M790.755 615.661C789.475 596.339 772.774 581.713 753.452 582.993C734.13 584.273 719.504 600.974 720.784 620.296L727.793 726.101C729.073 745.423 745.774 760.049 765.096 758.769C784.418 757.489 799.044 740.788 797.764 721.466L790.755 615.661Z" fill="#329DA3"/>
<path d="M760.479 760.102C782.383 760.102 800.141 742.345 800.141 720.44C800.141 698.535 782.383 680.778 760.479 680.778C738.574 680.778 720.816 698.535 720.816 720.44C720.816 742.345 738.574 760.102 760.479 760.102Z" fill="#F9CABD"/>
<path d="M761.296 756.51C778.27 757.126 792.529 743.866 793.146 726.892C793.762 709.919 780.502 695.659 763.528 695.043L655.36 691.114C638.386 690.498 624.127 703.758 623.51 720.732C622.894 737.705 636.154 751.965 653.127 752.581L761.296 756.51Z" fill="#FFB2BF"/>
<path d="M647.938 753.595C669.311 750.106 684.349 733.253 681.525 715.953C678.701 698.653 659.086 687.456 637.712 690.945C616.339 694.433 601.302 711.286 604.126 728.586C606.949 745.886 626.565 757.083 647.938 753.595Z" fill="#FFB2BF"/>
<path d="M637.729 746.032C642.558 745.378 645.942 740.935 645.288 736.11C644.634 731.284 640.189 727.903 635.36 728.558L608.129 732.249C603.301 732.904 599.916 737.346 600.571 742.172C601.225 746.997 605.669 750.378 610.498 749.724L637.729 746.032Z" fill="#FFB2BF"/>
<path d="M620.306 731.652C625.135 730.998 628.52 726.556 627.866 721.731C627.213 716.905 622.769 713.523 617.94 714.177L590.709 717.863C585.88 718.517 582.495 722.959 583.148 727.785C583.801 732.61 588.246 735.992 593.074 735.338L620.306 731.652Z" fill="#FFB2BF"/>
<path d="M632.232 712.364C637.061 711.709 640.445 707.267 639.791 702.442C639.137 697.616 634.692 694.235 629.863 694.89L602.632 698.581C597.803 699.236 594.419 703.678 595.073 708.503C595.728 713.329 600.172 716.71 605.001 716.055L632.232 712.364Z" fill="#FFB2BF"/>
<path d="M656.511 707.399C661.068 709.124 666.16 706.83 667.884 702.276C669.608 697.721 667.31 692.631 662.753 690.906L637.052 681.179C632.495 679.455 627.403 681.748 625.679 686.303C623.955 690.857 626.253 695.947 630.81 697.672L656.511 707.399Z" fill="#FFB2BF"/>
<path d="M747.454 735.981L747.454 735.968C747.675 729.883 742.921 724.771 736.836 724.55L693.186 722.964C687.101 722.743 681.988 727.497 681.767 733.583L681.767 733.595C681.546 739.68 686.3 744.793 692.386 745.014L736.035 746.599C742.12 746.82 747.233 742.066 747.454 735.981Z" fill="#FDC3CD"/>
<path d="M741.421 519.744C736.375 526.838 729.659 532.58 721.867 536.462C714.075 540.344 705.447 542.248 696.745 542.003L683.552 541.638C679.41 541.533 675.329 540.615 671.541 538.936L666.916 512.893L737.964 500.358L741.421 519.744Z" fill="#F9A0B4"/>
<path d="M677.733 414.878L720.421 416.048C724.211 416.152 727.943 417.001 731.404 418.548C734.865 420.094 737.988 422.306 740.594 425.059C743.201 427.812 745.239 431.052 746.593 434.593C747.947 438.133 748.591 441.906 748.487 445.696L747.404 485.209C747.019 499.27 741.063 512.602 730.848 522.272C720.633 531.942 706.995 537.158 692.934 536.773L679.734 536.411C671.286 536.18 663.275 532.605 657.461 526.472C651.646 520.339 648.503 512.149 648.721 503.7L650.448 440.708C650.543 437.22 651.325 433.785 652.748 430.6C654.171 427.415 656.207 424.54 658.741 422.142C661.275 419.744 664.256 417.868 667.515 416.621C670.773 415.375 674.245 414.783 677.733 414.878V414.878Z" fill="#FFB2BF"/>
<path d="M730.32 418.089C728.892 417.843 727.449 417.697 726 417.651L683.32 416.434C676.277 416.244 669.447 418.857 664.329 423.699C659.21 428.54 656.223 435.216 656.023 442.258L654.294 505.202C654.116 511.753 655.957 518.201 659.569 523.67C663.181 529.139 668.389 533.365 674.484 535.773C667.08 534.322 660.429 530.292 655.714 524.401C650.999 518.51 648.526 511.138 648.733 503.595L650.449 440.652C650.659 433.617 653.651 426.952 658.768 422.12C663.885 417.288 670.71 414.682 677.746 414.876L720.426 416.093C723.816 416.168 727.166 416.844 730.32 418.089V418.089Z" fill="#FDC3CD"/>
<path d="M686.811 479.761L685.753 479.732C665.146 479.167 647.984 495.414 647.419 516.021L646.974 532.261C646.409 552.868 662.656 570.031 683.262 570.595L684.321 570.624C704.927 571.189 722.09 554.942 722.655 534.336L723.1 518.095C723.665 497.488 707.418 480.326 686.811 479.761Z" fill="#622F2B"/>
<path d="M677.847 479.759L676.789 479.729C656.182 479.165 639.02 495.412 638.455 516.018L638.01 532.259C637.445 552.866 653.692 570.028 674.298 570.593L675.357 570.622C695.963 571.187 713.126 554.94 713.691 534.333L714.136 518.093C714.701 497.486 698.454 480.323 677.847 479.759Z" fill="#622F2B"/>
<path d="M678.818 570.554C677.674 570.639 676.518 570.651 675.361 570.627H674.303C664.407 570.353 655.026 566.161 648.221 558.973C641.415 551.784 637.743 542.187 638.012 532.292L638.462 516.057C638.596 511.157 639.694 506.331 641.693 501.855C643.692 497.379 646.553 493.341 650.113 489.971C653.673 486.601 657.862 483.966 662.44 482.215C667.019 480.463 671.897 479.631 676.797 479.766H677.856H678.708C669.417 480.364 660.684 484.412 654.224 491.118C647.764 497.823 644.043 506.701 643.793 516.008L643.354 532.243C643.082 541.998 646.641 551.472 653.271 558.633C659.9 565.795 669.071 570.074 678.818 570.554V570.554Z" fill="#774340"/>
<path d="M729.005 434.373L749.114 434.924C751.553 434.991 753.866 436.024 755.543 437.796C757.221 439.568 758.126 441.934 758.059 444.373L757.119 478.68C757.046 481.335 755.921 483.853 753.992 485.679C752.063 487.505 749.488 488.49 746.832 488.417L746.759 488.415C741.658 488.276 736.822 486.115 733.313 482.409C729.805 478.703 727.913 473.756 728.053 468.655L728.993 434.348L729.005 434.373Z" fill="#622F2B"/>
<path d="M744.476 492.045C753.704 492.045 761.186 484.564 761.186 475.336C761.186 466.107 753.704 458.626 744.476 458.626C735.248 458.626 727.767 466.107 727.767 475.336C727.767 484.564 735.248 492.045 744.476 492.045Z" fill="#FFB2BF"/>
<path d="M731.028 400.841L668.351 399.123C653.711 398.722 641.517 410.265 641.116 424.905L641.116 424.917C640.715 439.557 652.258 451.751 666.898 452.152L729.574 453.87C744.214 454.271 756.408 442.728 756.809 428.088L756.809 428.076C757.211 413.436 745.668 401.242 731.028 400.841Z" fill="#622F2B"/>
<path d="M718.356 410.988L680.461 409.95C671.605 409.707 664.23 416.686 663.987 425.538C663.745 434.39 670.727 441.763 679.582 442.006L717.478 443.044C726.333 443.287 733.708 436.308 733.951 427.456C734.194 418.604 727.211 411.231 718.356 410.988Z" fill="#774340"/>
<path d="M747.531 407.196C745.015 406.346 742.385 405.878 739.73 405.809L677.067 404.044C673.585 403.953 670.119 404.55 666.868 405.8C663.616 407.049 660.643 408.928 658.118 411.327C655.593 413.727 653.566 416.6 652.152 419.784C650.738 422.968 649.966 426.399 649.879 429.881V430.623C649.879 434.445 650.706 438.221 652.303 441.694C653.899 445.166 656.228 448.252 659.128 450.74C653.888 448.957 649.337 445.578 646.113 441.078C642.89 436.578 641.155 431.181 641.153 425.646C641.153 425.402 641.153 425.147 641.153 424.903C641.363 417.89 644.343 411.245 649.441 406.423C654.539 401.602 661.339 398.996 668.353 399.176L731.017 400.892C737.081 401.039 742.911 403.264 747.531 407.196V407.196Z" fill="#774340"/>
<path d="M672.441 490.098C672.425 493.033 673.571 495.855 675.629 497.948C675.885 498.203 676.152 498.435 676.42 498.666C678.389 500.318 680.872 501.231 683.442 501.246H683.953C686.732 501.266 689.417 500.239 691.474 498.37C693.53 496.5 694.808 493.925 695.052 491.157C695.052 490.857 695.052 490.553 695.052 490.244C695.057 489.963 695.006 489.684 694.901 489.422C694.797 489.161 694.641 488.923 694.444 488.723C694.04 488.319 693.494 488.087 692.923 488.078L674.668 487.968C674.38 487.957 674.094 488.004 673.825 488.105C673.556 488.207 673.31 488.362 673.102 488.561C672.894 488.759 672.729 488.998 672.615 489.262C672.501 489.526 672.442 489.811 672.441 490.098V490.098Z" fill="#962F4A"/>
<path d="M683.674 499.542C683.671 500.114 683.724 500.685 683.832 501.246H683.954C686.731 501.26 689.413 500.232 691.468 498.363C693.524 496.495 694.803 493.923 695.053 491.157C694.263 490.92 693.444 490.797 692.619 490.792C691.456 490.774 690.301 490.987 689.22 491.418C688.139 491.849 687.155 492.49 686.323 493.303C685.492 494.117 684.83 495.087 684.375 496.158C683.92 497.229 683.682 498.379 683.674 499.542V499.542Z" fill="#E1617F"/>
<path d="M675.008 488.017C675.081 490.183 678.415 491.948 682.541 491.972C686.667 491.997 690.013 490.281 690.111 488.114L675.008 488.017Z" fill="white"/>
<path d="M687.702 500.589C686.413 499.883 684.973 499.496 683.504 499.46C682.035 499.424 680.578 499.74 679.256 500.382C680.582 500.937 682.004 501.231 683.442 501.246H683.953C685.232 501.247 686.5 501.025 687.702 500.589Z" fill="white"/>
<path d="M699.775 478.062C701.872 478.062 703.572 476.362 703.572 474.265C703.572 472.168 701.872 470.468 699.775 470.468C697.678 470.468 695.978 472.168 695.978 474.265C695.978 476.362 697.678 478.062 699.775 478.062Z" fill="#592702"/>
<path d="M663.959 477.125C666.056 477.125 667.756 475.425 667.756 473.328C667.756 471.231 666.056 469.531 663.959 469.531C661.862 469.531 660.162 471.231 660.162 473.328C660.162 475.425 661.862 477.125 663.959 477.125Z" fill="#592702"/>
<path d="M423.516 1060.88L374.994 1023.31C377.461 1020.13 380.531 1017.46 384.029 1015.46C387.528 1013.46 391.385 1012.17 395.383 1011.66C399.38 1011.15 403.438 1011.44 407.325 1012.5C411.213 1013.56 414.854 1015.37 418.04 1017.84C421.225 1020.3 423.894 1023.37 425.894 1026.87C427.893 1030.37 429.184 1034.23 429.693 1038.23C430.201 1042.22 429.918 1046.28 428.858 1050.17C427.798 1054.06 425.983 1057.7 423.516 1060.88V1060.88Z" fill="#007391"/>
<path d="M365.344 1024.91L371.429 1017.73C372.697 1016.23 374.486 1015.27 376.434 1015.05C378.382 1014.82 380.343 1015.35 381.919 1016.51L446.639 1064.74C447.695 1065.53 448.579 1066.52 449.237 1067.66C449.894 1068.8 450.311 1070.06 450.462 1071.37C450.612 1072.67 450.493 1074 450.112 1075.26C449.731 1076.52 449.096 1077.68 448.246 1078.69L437.001 1091.98L365.344 1024.91Z" fill="#FFF2EE"/>
<path d="M440.373 1088L436.722 1092.28C435.6 1093.61 433.998 1094.43 432.268 1094.58C430.538 1094.72 428.822 1094.17 427.497 1093.05L361.012 1036.79C358.865 1034.96 357.531 1032.35 357.302 1029.54C357.074 1026.72 357.971 1023.93 359.795 1021.78C361.624 1019.63 364.232 1018.29 367.046 1018.07C369.86 1017.84 372.649 1018.74 374.801 1020.56L393.421 1036.32C394.338 1037.1 395.093 1038.05 395.643 1039.11C396.193 1040.18 396.527 1041.34 396.627 1042.54C396.726 1043.74 396.589 1044.94 396.223 1046.08C395.856 1047.23 395.268 1048.29 394.492 1049.2L440.373 1088Z" fill="#007391"/>
<path d="M750.682 475.604C750.71 477.162 750.278 478.694 749.441 480.008C748.603 481.322 747.396 482.36 745.972 482.991C745.629 483.128 745.258 483.179 744.891 483.14C744.524 483.101 744.172 482.972 743.866 482.766C743.56 482.559 743.309 482.281 743.135 481.956C742.961 481.63 742.87 481.267 742.868 480.898L742.686 470.602C742.68 470.216 742.771 469.835 742.952 469.494C743.134 469.153 743.398 468.863 743.721 468.652C744.044 468.44 744.416 468.314 744.801 468.285C745.186 468.256 745.572 468.324 745.923 468.485C747.316 469.09 748.505 470.082 749.349 471.345C750.193 472.607 750.655 474.086 750.682 475.604Z" fill="#F9A0B4"/>
<path d="M626.448 774.929L610.544 774.724L610.583 771.682C610.601 770.297 611.168 768.976 612.16 768.01C613.151 767.044 614.486 766.511 615.871 766.529L621.274 766.598C622.658 766.616 623.979 767.184 624.945 768.175C625.912 769.167 626.445 770.502 626.427 771.886L626.387 774.929L626.448 774.929V774.929Z" fill="#D7E2FF"/>
<path d="M642.347 775.125L626.442 774.919L626.481 771.877C626.499 770.493 627.066 769.172 628.058 768.206C629.05 767.239 630.385 766.706 631.769 766.724L637.257 766.795C638.642 766.813 639.963 767.38 640.929 768.372C641.895 769.363 642.428 770.698 642.41 772.083L642.371 775.125L642.347 775.125V775.125Z" fill="#D7E2FF"/>
<path d="M658.244 775.334L642.339 775.128L642.378 772.086C642.396 770.701 642.964 769.381 643.955 768.414C644.947 767.448 646.282 766.915 647.666 766.933L653.118 767.003C654.503 767.021 655.823 767.588 656.79 768.58C657.756 769.572 658.289 770.907 658.271 772.291L658.232 775.333L658.244 775.334V775.334Z" fill="#D7E2FF"/>
<path d="M674.154 775.541L658.249 775.336L658.289 772.294C658.307 770.909 658.874 769.588 659.866 768.622C660.857 767.655 662.192 767.123 663.577 767.14L669.028 767.211C670.413 767.229 671.734 767.796 672.7 768.788C673.666 769.779 674.199 771.114 674.181 772.499L674.142 775.541L674.154 775.541V775.541Z" fill="#D7E2FF"/>
<path d="M690.053 775.738L674.16 775.533L674.199 772.491C674.217 771.106 674.784 769.785 675.776 768.819C676.768 767.852 678.103 767.32 679.487 767.337L684.939 767.408C686.324 767.426 687.644 767.993 688.611 768.985C689.577 769.976 690.11 771.311 690.092 772.696L690.053 775.738Z" fill="#D7E2FF"/>
<path d="M705.976 775.947L690.071 775.741L690.11 772.699C690.128 771.314 690.695 769.994 691.687 769.027C692.678 768.061 694.013 767.528 695.398 767.546L700.85 767.616C702.234 767.634 703.555 768.201 704.521 769.193C705.488 770.185 706.021 771.52 706.003 772.904L705.963 775.947L705.976 775.947Z" fill="#D7E2FF"/>
<path d="M721.859 776.142L705.955 775.937L705.994 772.895C706.012 771.51 706.579 770.189 707.571 769.223C708.562 768.256 709.897 767.724 711.282 767.742L716.733 767.812C718.118 767.83 719.439 768.397 720.405 769.389C721.372 770.38 721.904 771.715 721.886 773.1L721.847 776.142L721.859 776.142V776.142Z" fill="#D7E2FF"/>
<path d="M567.828 782.649L736.417 784.827C739.992 784.873 742.928 782.012 742.974 778.437L742.974 778.425C743.021 774.849 740.16 771.913 736.584 771.867L567.995 769.689C564.42 769.643 561.484 772.504 561.438 776.08L561.437 776.092C561.391 779.667 564.252 782.603 567.828 782.649Z" fill="#64617F"/>
<path d="M611.31 783.273L459.843 781.314C456.756 781.273 453.772 780.203 451.362 778.274C448.953 776.346 447.256 773.668 446.541 770.665L418.55 652.993C418.067 650.944 418.058 648.812 418.522 646.759C418.986 644.705 419.912 642.785 421.229 641.142C422.547 639.5 424.221 638.18 426.124 637.281C428.028 636.382 430.112 635.929 432.217 635.955L565.904 637.708C568.99 637.748 571.975 638.818 574.385 640.747C576.794 642.676 578.491 645.354 579.206 648.357L611.31 783.273Z" fill="#7D7BA3"/>
<path d="M418.525 653.018L446.516 770.678C447.234 773.682 448.936 776.36 451.35 778.287C453.764 780.214 456.753 781.28 459.842 781.314L611.31 783.261L608.219 770.252L488.539 768.718C485.453 768.678 482.468 767.608 480.059 765.679C477.649 763.75 475.952 761.072 475.237 758.07L447.246 640.41C446.912 639.008 446.797 637.563 446.905 636.126L432.216 635.931C430.105 635.902 428.014 636.355 426.104 637.255C424.194 638.156 422.515 639.481 421.194 641.129C419.874 642.777 418.947 644.704 418.484 646.765C418.022 648.825 418.036 650.964 418.525 653.018Z" fill="#64617F"/>
<path d="M505.494 720.853C509.681 720.853 513.076 717.459 513.076 713.271C513.076 709.084 509.681 705.69 505.494 705.69C501.307 705.69 497.912 709.084 497.912 713.271C497.912 717.459 501.307 720.853 505.494 720.853Z" fill="#D7E2FF"/>
<path d="M495.197 724.492C496.371 726.377 497.953 727.974 499.825 729.167C501.697 730.36 503.813 731.118 506.017 731.386C508.221 731.653 510.457 731.424 512.56 730.714C514.664 730.004 516.581 728.832 518.172 727.284C519.763 725.736 520.987 723.851 521.754 721.767C522.521 719.684 522.811 717.455 522.604 715.245C522.396 713.034 521.696 710.899 520.555 708.995C519.413 707.09 517.86 705.466 516.008 704.241C517.792 707.118 518.54 710.517 518.129 713.876C517.718 717.235 516.173 720.354 513.749 722.716C511.324 725.077 508.167 726.541 504.798 726.864C501.429 727.187 498.05 726.35 495.222 724.492H495.197Z" fill="#D7E2FF"/>
<path d="M695.002 259.647L683.672 254.977C678.163 252.707 673.782 248.341 671.492 242.84C669.203 237.339 669.192 231.154 671.462 225.645L682.793 230.315C688.302 232.586 692.683 236.952 694.972 242.453C697.262 247.953 697.273 254.138 695.002 259.647V259.647Z" fill="#6E8EC8"/>
<path d="M734.241 270.259C734.241 280.922 730.006 291.148 722.466 298.687C714.926 306.227 704.7 310.463 694.038 310.463C683.375 310.463 673.149 306.227 665.609 298.687C658.07 291.148 653.834 280.922 653.834 270.259C653.831 268.71 653.92 267.161 654.102 265.622C654.304 263.85 654.625 262.094 655.063 260.365H733.024C733.465 262.093 733.782 263.85 733.974 265.622C734.161 267.161 734.251 268.709 734.241 270.259Z" fill="#6E8EC8"/>
<path d="M735.799 249.85H654.151C651.247 249.85 648.894 252.204 648.894 255.108V255.12C648.894 258.024 651.247 260.378 654.151 260.378H735.799C738.703 260.378 741.057 258.024 741.057 255.12V255.108C741.057 252.204 738.703 249.85 735.799 249.85Z" fill="#6285B7"/>
<path d="M733.973 265.622H654.102C654.303 263.85 654.625 262.094 655.063 260.365H733.024C733.464 262.093 733.781 263.85 733.973 265.622V265.622Z" fill="#4575AF"/>
<path d="M892.638 270.71L883.783 267.061C881.649 266.181 879.71 264.89 878.075 263.261C876.441 261.632 875.143 259.697 874.256 257.567C873.369 255.436 872.91 253.152 872.906 250.844C872.902 248.536 873.353 246.25 874.232 244.116L883.087 247.766C887.397 249.542 890.824 252.957 892.615 257.26C894.406 261.563 894.414 266.401 892.638 270.71V270.71Z" fill="#6E8EC8"/>
<path d="M923.352 279.022C923.19 287.257 919.805 295.1 913.923 300.866C908.042 306.632 900.135 309.863 891.898 309.863C883.662 309.863 875.754 306.632 869.873 300.866C863.992 295.1 860.607 287.257 860.445 279.022C860.439 277.802 860.508 276.583 860.652 275.371C860.803 273.983 861.055 272.609 861.406 271.257H922.39C923.031 273.788 923.354 276.388 923.352 278.998V279.022Z" fill="#6E8EC8"/>
<path d="M924.555 263.043H860.687C858.415 263.043 856.573 264.884 856.573 267.156C856.573 269.428 858.415 271.27 860.687 271.27H924.555C926.827 271.27 928.668 269.428 928.668 267.156C928.668 264.884 926.827 263.043 924.555 263.043Z" fill="#6285B7"/>
<path d="M923.143 275.395H860.65C860.802 274.007 861.054 272.633 861.405 271.281H922.389C922.728 272.635 922.98 274.009 923.143 275.395V275.395Z" fill="#4575AF"/>
<path d="M775.838 162.567H794.908C797.746 162.567 800.467 163.694 802.473 165.7C804.479 167.706 805.606 170.427 805.606 173.264V310.469H765.141V173.252C765.144 170.417 766.272 167.699 768.278 165.696C770.284 163.692 773.003 162.567 775.838 162.567V162.567Z" fill="#6E8EC8"/>
<path d="M785.367 249.558C792.572 249.558 798.413 243.717 798.413 236.511C798.413 229.306 792.572 223.465 785.367 223.465C778.161 223.465 772.32 229.306 772.32 236.511C772.32 243.717 778.161 249.558 785.367 249.558Z" fill="#4575AF"/>
<path d="M785.368 245.931C784.882 246.015 784.389 246.056 783.895 246.053C781.368 246.053 778.944 245.049 777.157 243.262C775.37 241.475 774.366 239.051 774.366 236.524C774.366 233.996 775.37 231.573 777.157 229.786C778.944 227.999 781.368 226.995 783.895 226.995C784.388 226.994 784.881 227.03 785.368 227.104C783.125 227.457 781.081 228.599 779.605 230.325C778.13 232.051 777.319 234.247 777.319 236.518C777.319 238.788 778.13 240.985 779.605 242.71C781.081 244.436 783.125 245.578 785.368 245.931V245.931Z" fill="#6E8EC8"/>
<path d="M813.577 200.184H827.804C829.918 200.184 831.945 201.024 833.44 202.519C834.935 204.014 835.775 206.042 835.775 208.156V310.469H805.654V208.107C805.667 206.01 806.506 204.002 807.989 202.519C809.472 201.036 811.48 200.197 813.577 200.184V200.184Z" fill="#6285B7"/>
<path d="M820.684 265.063C826.061 265.063 830.42 260.704 830.42 255.327C830.42 249.95 826.061 245.591 820.684 245.591C815.307 245.591 810.948 249.95 810.948 255.327C810.948 260.704 815.307 265.063 820.684 265.063Z" fill="#6E8EC8"/>
<path d="M820.683 262.349C820.317 262.409 819.947 262.437 819.576 262.434C817.691 262.434 815.883 261.685 814.55 260.353C813.218 259.02 812.469 257.212 812.469 255.327C812.469 253.442 813.218 251.634 814.55 250.301C815.883 248.969 817.691 248.22 819.576 248.22C819.947 248.221 820.318 248.253 820.683 248.317C819.017 248.587 817.501 249.441 816.407 250.726C815.313 252.012 814.712 253.645 814.712 255.333C814.712 257.021 815.313 258.654 816.407 259.94C817.501 261.225 819.017 262.079 820.683 262.349V262.349Z" fill="#E9F1FF"/>
<path d="M371.598 1079.72H356.994V251.493C357.265 228.617 366.542 206.77 382.814 190.69C399.086 174.609 421.041 165.591 443.918 165.591C466.796 165.591 488.751 174.609 505.023 190.69C521.295 206.77 530.572 228.617 530.843 251.493V346.735H516.239V251.493C515.992 232.475 508.264 214.319 494.728 200.958C481.192 187.596 462.938 180.105 443.918 180.105C424.899 180.105 406.645 187.596 393.109 200.958C379.573 214.319 371.845 232.475 371.598 251.493V1079.72Z" fill="#34629B"/>
<path d="M525.16 451.045C549.935 451.045 570.019 430.961 570.019 406.186C570.019 381.411 549.935 361.328 525.16 361.328C500.386 361.328 480.302 381.411 480.302 406.186C480.302 430.961 500.386 451.045 525.16 451.045Z" fill="#BBD7FF"/>
<path d="M570.019 406.186C570.017 412.826 568.542 419.382 565.7 425.383C562.857 431.383 558.719 436.678 553.582 440.885C548.446 445.093 542.439 448.108 535.997 449.713C529.554 451.318 522.835 451.474 516.325 450.168C526.488 448.129 535.632 442.634 542.201 434.616C548.771 426.597 552.361 416.552 552.361 406.186C552.361 395.82 548.771 385.774 542.201 377.756C535.632 369.738 526.488 364.242 516.325 362.204C522.835 360.898 529.554 361.053 535.997 362.659C542.439 364.264 548.446 367.279 553.582 371.486C558.719 375.694 562.857 380.989 565.7 386.989C568.542 392.99 570.017 399.546 570.019 406.186V406.186Z" fill="#D4E6FC"/>
<path d="M618.882 406.186H428.202C428.202 340.468 470.907 287.285 523.542 287.285C576.177 287.285 618.882 340.505 618.882 406.186Z" fill="#547DBA"/>
<path d="M618.882 406.186H428.202C428.202 340.468 470.907 287.285 523.542 287.285C576.177 287.285 618.882 340.505 618.882 406.186Z" fill="#547DBA"/>
<path d="M618.868 406.186H586.776C586.776 347.344 552.505 298.482 507.488 288.977C512.764 287.848 518.145 287.281 523.541 287.285C576.2 287.285 618.868 340.517 618.868 406.186Z" fill="#34629B"/>
<path d="M449.245 1068.55H279.352C273.182 1068.55 268.18 1073.55 268.18 1079.72C268.18 1085.89 273.182 1090.89 279.352 1090.89H449.245C455.415 1090.89 460.417 1085.89 460.417 1079.72C460.417 1073.55 455.415 1068.55 449.245 1068.55Z" fill="#547DBA"/>
<path d="M460.415 1079.73C460.415 1082.7 459.238 1085.54 457.143 1087.63C455.047 1089.73 452.206 1090.91 449.243 1090.91H416.992C418.491 1090.96 419.985 1090.7 421.384 1090.16C422.784 1089.62 424.06 1088.81 425.138 1087.77C426.216 1086.72 427.073 1085.47 427.658 1084.09C428.244 1082.71 428.545 1081.23 428.545 1079.73C428.545 1078.23 428.244 1076.74 427.658 1075.36C427.073 1073.98 426.216 1072.73 425.138 1071.69C424.06 1070.65 422.784 1069.83 421.384 1069.29C419.985 1068.75 418.491 1068.5 416.992 1068.55H449.243C452.207 1068.55 455.048 1069.73 457.143 1071.83C459.238 1073.93 460.415 1076.77 460.415 1079.73V1079.73Z" fill="#34629B"/>
<path d="M859.202 774.925V1092.7H754.771V879.368C754.771 851.67 765.774 825.106 785.358 805.52C804.942 785.933 831.504 774.928 859.202 774.925V774.925Z" fill="#BBD7FF"/>
<path d="M859.2 774.925H1122.56V1075.94C1122.56 1080.39 1120.79 1084.65 1117.65 1087.8C1114.5 1090.94 1110.24 1092.71 1105.79 1092.71H859.2V774.925Z" fill="#34629B"/>
<path d="M816.57 874.39C816.57 867.488 810.977 861.892 804.077 861.892C797.178 861.892 791.585 867.488 791.585 874.39V1035.74C791.585 1042.64 797.178 1048.24 804.077 1048.24C810.977 1048.24 816.57 1042.64 816.57 1035.74V874.39Z" fill="#D4E6FC"/>
</svg>
