<svg width="1539" height="1269" viewBox="0 0 1539 1269" fill="none" xmlns="http://www.w3.org/2000/svg">
<path d="M511.958 853.354C521.096 853.106 566.785 849.884 573.518 847.901C567.747 841.457 468.674 845.422 409.999 724.967C399.659 703.651 391.964 681.345 394.609 656.559C401.583 593.357 473.723 582.204 519.653 610.707C606.222 664.243 671.87 836.995 793.066 852.362C882.039 863.516 996.502 810.228 1053.25 739.838C1051.81 739.59 1051.33 739.342 1050.85 739.59C1049.89 739.838 1048.92 740.086 1048.2 740.333C968.127 770.323 821.441 764.375 724.292 703.651C633.876 647.141 596.603 558.162 599.729 518.754C604.057 465.962 654.796 461.252 686.057 470.175C720.685 479.841 744.732 513.797 779.6 538.086C817.113 563.863 858.714 572.042 902.96 563.615C938.79 556.923 985.681 533.129 990.731 527.677C988.086 527.429 986.403 527.429 984.719 527.181C969.81 525.694 954.901 525.198 940.233 522.968C672.832 482.072 630.269 117.482 333.049 93.9365C226.522 85.5095 94.0233 114.012 5.29031 180.685C3.36656 182.172 1.68328 183.659 0 185.146C0.240469 185.642 0.240469 185.889 0.480937 186.385C2.40469 186.385 4.32844 186.137 6.25219 185.889C21.4017 183.411 36.3108 183.907 51.2198 186.633C108.451 197.291 165.923 243.887 185.642 376.239C198.387 461.252 183.959 502.148 204.879 589.64C250.568 780.733 423.706 856.328 511.958 853.354ZM181.073 160.856C178.909 158.378 178.909 157.882 177.947 155.899C207.044 149.455 236.14 145.737 265.958 144.002C263.313 180.437 212.574 196.795 181.073 160.856ZM654.556 1029.58C551.635 1032.55 433.325 963.4 357.577 877.395C346.515 865.003 317.178 827.329 312.85 819.398L313.812 818.407C329.683 828.569 375.612 864.507 445.589 885.327C503.782 902.676 561.254 900.941 617.764 877.147C672.351 854.097 716.356 875.908 721.406 884.335C676.92 893.753 673.072 895.241 663.694 903.915C651.43 914.821 652.632 932.914 680.527 946.546C743.529 977.279 832.022 939.606 914.262 1009.5C920.033 1014.46 933.74 1028.83 938.549 1036.02C938.309 1036.52 937.828 1036.76 937.588 1037.26C926.045 1033.54 898.151 1018.67 840.919 1014.21C781.523 1009.25 729.582 1027.35 654.556 1029.58V1029.58ZM1074.9 404.99C1114.33 392.102 1174.21 371.778 1234.81 396.811C1273.52 412.921 1297.81 443.159 1312 482.568C1320.41 505.866 1324.26 531.394 1324.26 553.701C1323.78 553.701 1323.3 553.701 1322.82 553.949C1322.34 552.958 1321.86 551.718 1321.62 550.727C1309.59 496.2 1249.72 442.168 1159.06 476.619C1038.34 522.72 845.488 500.661 733.67 357.651C731.987 355.42 727.899 353.437 730.544 349.719C730.784 349.224 735.594 351.206 737.758 352.941C781.283 386.153 829.858 407.221 882.761 417.878C956.104 432.997 1014.06 425.066 1074.9 404.99V404.99ZM1321.86 696.216C1243.94 696.711 1240.58 820.389 1072.73 855.832C1028.97 865.003 979.67 867.233 964.761 866.242V865.251C971.494 861.533 1000.11 858.806 1036.18 824.107C1055.18 806.014 1072.97 786.682 1091.01 767.349C1137.9 717.283 1190.56 662.756 1287.95 670.687C1343.5 675.148 1358.41 691.011 1374.76 702.164C1375.48 702.66 1375.72 703.403 1376.44 704.395C1375.24 704.395 1374.76 704.643 1374.28 704.395C1357.45 697.703 1339.89 696.216 1321.86 696.216V696.216ZM1292.28 636.483C1292.04 636.979 1292.04 637.475 1291.8 637.971C1222.3 627.065 1176.37 618.39 1127.08 647.885C1086.2 672.422 1051.57 698.694 977.986 708.36C912.819 716.787 869.535 714.309 819.037 688.532C818.315 688.037 817.594 687.541 816.632 687.045C816.632 686.55 816.872 686.302 816.872 685.806C876.749 695.224 904.403 698.446 950.332 671.431C1003.96 639.458 1046.76 605.502 1121.79 594.597C1192.97 584.435 1245.15 600.793 1292.28 636.483V636.483ZM645.899 241.16C644.456 239.673 643.254 238.186 640.849 235.46C659.125 235.46 712.268 232.485 769.259 256.279C816.632 276.107 846.69 308.328 889.975 337.822C916.667 355.916 946.244 360.873 977.505 357.898C987.846 356.907 997.945 354.924 1008.29 353.685C1009.25 353.437 1010.45 353.685 1011.89 354.428C1010.45 355.42 1009.01 356.659 1007.56 357.403C988.086 367.317 967.406 373.017 946.004 375C883.242 381.444 825.048 365.83 769.5 336.831C723.09 312.294 681.969 280.073 645.899 241.16V241.16ZM1539 832.038C1530.58 839.722 1484.41 860.789 1436.32 845.175C1406.74 835.508 1389.43 808.245 1360.33 785.442C1336.28 766.606 1310.07 765.862 1292.76 764.623C1294.2 762.64 1294.92 761.649 1295.65 761.153C1331.23 738.351 1368.99 730.915 1409.39 745.043C1439.45 755.452 1455.56 778.502 1482.49 805.023C1508.46 830.799 1532.99 829.56 1538.04 831.047C1538.28 830.799 1538.52 831.047 1539 832.038V832.038ZM1028 1171.6C1033.29 1174.57 1031.85 1175.31 1031.61 1176.55C987.124 1173.08 950.092 1157.72 919.072 1121.53C866.649 1060.31 818.796 1052.38 802.204 1047.92C803.406 1047.42 804.127 1046.93 804.849 1046.93C836.35 1047.17 867.611 1048.66 898.391 1056.59C959.23 1072.45 982.555 1119.55 998.426 1144.08C1006.12 1155.98 1015.98 1164.66 1028 1171.6V1171.6Z" fill="url(#paint0_linear)"/>
<defs>
<linearGradient id="paint0_linear" x1="769.5" y1="92.4961" x2="769.5" y2="1176.55" gradientUnits="userSpaceOnUse">
<stop stop-color="#43CEA2"/>
<stop offset="1" stop-color="#185A9D"/>
</linearGradient>
</defs>
</svg>
